<?xml version="1.0" encoding="UTF-8" standalone="no"?>
<svg
   xmlns:dc="http://purl.org/dc/elements/1.1/"
   xmlns:cc="http://creativecommons.org/ns#"
   xmlns:rdf="http://www.w3.org/1999/02/22-rdf-syntax-ns#"
   xmlns:svg="http://www.w3.org/2000/svg"
   xmlns="http://www.w3.org/2000/svg"
   xmlns:sodipodi="http://sodipodi.sourceforge.net/DTD/sodipodi-0.dtd"
   xmlns:inkscape="http://www.inkscape.org/namespaces/inkscape"
   version="1.1"
   viewBox="0.0 0.0 150.0 150.0"
   fill="none"
   stroke="none"
   stroke-linecap="square"
   stroke-miterlimit="10"
   id="svg92"
   sodipodi:docname="hub_off.svg"
   inkscape:export-filename="/home/christian7573/Documents/glap/glap-rs-client/assets_rs/hub_off.png"
   inkscape:export-xdpi="96"
   inkscape:export-ydpi="96"
   inkscape:version="1.0.1 (3bc2e813f5, 2020-09-07)">
  <metadata
     id="metadata98">
    <rdf:RDF>
      <cc:Work
         rdf:about="">
        <dc:format>image/svg+xml</dc:format>
        <dc:type
           rdf:resource="http://purl.org/dc/dcmitype/StillImage" />
      </cc:Work>
    </rdf:RDF>
  </metadata>
  <defs
     id="defs96" />
  <sodipodi:namedview
     pagecolor="#ffffff"
     bordercolor="#666666"
     borderopacity="1"
     objecttolerance="10"
     gridtolerance="10"
     guidetolerance="10"
     inkscape:pageopacity="0"
     inkscape:pageshadow="2"
     inkscape:window-width="1536"
     inkscape:window-height="792"
     id="namedview94"
     showgrid="false"
     inkscape:zoom="4.3666667"
     inkscape:cx="75"
     inkscape:cy="75"
     inkscape:window-x="0"
     inkscape:window-y="0"
     inkscape:window-maximized="1"
     inkscape:current-layer="svg92" />
  <clipPath
     id="p.0">
    <path
       d="m0 0l150.0 0l0 150.0l-150.0 0l0 -150.0z"
       clip-rule="nonzero"
       id="path2" />
  </clipPath>
  <g
     clip-path="url(#p.0)"
     id="g90">
    <path
       fill="#000000"
       fill-opacity="0.0"
       d="m0 0l150.0 0l0 150.0l-150.0 0z"
       fill-rule="evenodd"
       id="path5" />
    <defs
       id="defs12">
      <radialGradient
         id="p.1"
         gradientUnits="userSpaceOnUse"
         gradientTransform="matrix(10.298835693915233 0.0 0.0 10.298835693915233 0.0 0.0)"
         spreadMethod="pad"
         cx="7.280847485779989"
         cy="7.2816120397530835"
         fx="7.280847485779989"
         fy="7.2816120397530835"
         r="10.298835754394531">
        <stop
           offset="0.0"
           stop-color="#696969"
           id="stop7" />
        <stop
           offset="1.0"
           stop-color="#1d1d1d"
           id="stop9" />
      </radialGradient>
    </defs>
    <path
       fill="url(#p.1)"
       d="m-0.023622047 23.896992l0 0c0 -13.197945 10.699048 -23.896992 23.896992 -23.896992l102.22177 0l0 0c6.3378754 0 12.416168 2.5177114 16.89772 6.9992666c4.481552 4.481555 6.9992676 10.559848 6.9992676 16.897724l0 102.19026c0 13.197945 -10.699051 23.896996 -23.896988 23.896996l-102.22177 0c-13.197944 0 -23.896992 -10.699051 -23.896992 -23.896996z"
       fill-rule="evenodd"
       id="path14" />
    <path
       stroke="#000000"
       stroke-width="1.0"
       stroke-linejoin="round"
       stroke-linecap="butt"
       d="m-0.023622047 23.896992l0 0c0 -13.197945 10.699048 -23.896992 23.896992 -23.896992l102.22177 0l0 0c6.3378754 0 12.416168 2.5177114 16.89772 6.9992666c4.481552 4.481555 6.9992676 10.559848 6.9992676 16.897724l0 102.19026c0 13.197945 -10.699051 23.896996 -23.896988 23.896996l-102.22177 0c-13.197944 0 -23.896992 -10.699051 -23.896992 -23.896996z"
       fill-rule="evenodd"
       id="path16" />
    <defs
       id="defs23">
      <linearGradient
         id="p.2"
         gradientUnits="userSpaceOnUse"
         gradientTransform="matrix(-4.108299776140616 0.0 0.0 -4.108299776140616 0.0 0.0)"
         spreadMethod="pad"
         x1="-28.351160325066612"
         y1="-36.512854440081306"
         x2="-28.351175298596146"
         y2="-32.40455466396798">
        <stop
           offset="0.0"
           stop-color="#ffc002"
           id="stop18" />
        <stop
           offset="1.0"
           stop-color="#ffff00"
           id="stop20" />
      </linearGradient>
    </defs>
    <path
       fill="url(#p.2)"
       d="m116.47507 150.00545l-82.897644 0l0 -16.877823l82.897644 0z"
       fill-rule="evenodd"
       id="path25" />
    <path
       stroke="#000000"
       stroke-width="1.0"
       stroke-linejoin="round"
       stroke-linecap="butt"
       d="m116.47507 150.00545l-82.897644 0l0 -16.877823l82.897644 0z"
       fill-rule="evenodd"
       id="path27" />
    <path
       fill="#232323"
       d="m89.57743 132.75293l-15.686699 17.236237l-13.415665 0l15.686699 -17.236237z"
       fill-rule="evenodd"
       id="path29" />
    <path
       fill="#232323"
       d="m116.47507 132.76921l-15.686699 17.236237l-13.415665 0l15.686699 -17.236237z"
       fill-rule="evenodd"
       id="path31" />
    <path
       fill="#232323"
       d="m62.67979 132.75293l-15.686699 17.236237l-13.415665 0l15.686699 -17.236237z"
       fill-rule="evenodd"
       id="path33" />
    <defs
       id="defs40">
      <linearGradient
         id="p.3"
         gradientUnits="userSpaceOnUse"
         gradientTransform="matrix(0.0 -4.039217555591932 -4.039217555591932 0.0 0.0 0.0)"
         spreadMethod="pad"
         x1="-29.184614514430002"
         y1="-37.142481801413915"
         x2="-29.184629744049893"
         y2="-33.103264245850696">
        <stop
           offset="0.0"
           stop-color="#ffc002"
           id="stop35" />
        <stop
           offset="1.0"
           stop-color="#ffff00"
           id="stop37" />
      </linearGradient>
    </defs>
    <path
       fill="url(#p.3)"
       d="m150.02625 117.88301l0 -85.75761l-16.314957 0l0 85.75761z"
       fill-rule="evenodd"
       id="path42" />
    <path
       stroke="#000000"
       stroke-width="1.0"
       stroke-linejoin="round"
       stroke-linecap="butt"
       d="m150.02625 117.88301l0 -85.75761l-16.314957 0l0 85.75761z"
       fill-rule="evenodd"
       id="path44" />
    <path
       fill="#232323"
       d="m133.34908 90.0574l16.661423 -15.163559l0 -14.942833l-16.661423 15.163551z"
       fill-rule="evenodd"
       id="path46" />
    <path
       fill="#232323"
       d="m133.36482 117.88301l16.661423 -15.163559l0 -14.942833l-16.661423 15.163551z"
       fill-rule="evenodd"
       id="path48" />
    <path
       fill="#232323"
       d="m133.34908 62.231796l16.661423 -15.163555l0 -14.942837l-16.661423 15.163555z"
       fill-rule="evenodd"
       id="path50" />
    <defs
       id="defs57">
      <linearGradient
         id="p.4"
         gradientUnits="userSpaceOnUse"
         gradientTransform="matrix(0.0 4.0392166409211026 4.0392166409211026 0.0 0.0 0.0)"
         spreadMethod="pad"
         x1="7.953373811867721"
         y1="0.006421115577500093"
         x2="7.95335921681202"
         y2="4.045637756472234">
        <stop
           offset="0.0"
           stop-color="#ffc002"
           id="stop52" />
        <stop
           offset="1.0"
           stop-color="#ffff00"
           id="stop54" />
      </linearGradient>
    </defs>
    <path
       fill="url(#p.4)"
       d="m0.026246719 32.1254l0 85.7576l16.31496 0l0 -85.7576z"
       fill-rule="evenodd"
       id="path59" />
    <path
       stroke="#000000"
       stroke-width="1.0"
       stroke-linejoin="round"
       stroke-linecap="butt"
       d="m0.026246719 32.1254l0 85.7576l16.31496 0l0 -85.7576z"
       fill-rule="evenodd"
       id="path61" />
    <path
       fill="#232323"
       d="m16.703413 59.951008l-16.661419 15.163555l0 14.942841l16.661419 -15.163559z"
       fill-rule="evenodd"
       id="path63" />
    <path
       fill="#232323"
       d="m16.687664 32.1254l-16.661417 15.163555l0 14.942837l16.661417 -15.163555z"
       fill-rule="evenodd"
       id="path65" />
    <path
       fill="#232323"
       d="m16.703413 87.77661l-16.661419 15.163559l0 14.942833l16.661419 -15.163551z"
       fill-rule="evenodd"
       id="path67" />
    <path
       fill="#4f4f4f"
       d="m16.703413 35.65687l0 0c0 -10.163136 8.23885 -18.401985 18.401987 -18.401985l79.857445 0c4.8805084 0 9.561127 1.9387741 13.012169 5.3898163c3.4510422 3.4510422 5.3898087 8.13166 5.3898087 13.012169l0 78.69209c0 10.163139 -8.238846 18.401985 -18.401978 18.401985l-79.857445 0c-10.163137 0 -18.401987 -8.238846 -18.401987 -18.401985z"
       fill-rule="evenodd"
       id="path69" />
    <path
       fill="#666666"
       d="m52.39501 75.00445l0 0c0 -12.463367 10.131763 -22.566925 22.629921 -22.566925l0 0c6.001831 0 11.757835 2.3775787 16.00177 6.6096992c4.2439346 4.2321205 6.628151 9.972111 6.628151 15.957226l0 0c0 12.463371 -10.13176 22.566933 -22.629921 22.566933l0 0c-12.4981575 0 -22.629921 -10.103561 -22.629921 -22.566933z"
       fill-rule="evenodd"
       id="path71" />
    <defs
       id="defs78">
      <linearGradient
         id="p.5"
         gradientUnits="userSpaceOnUse"
         gradientTransform="matrix(4.108299768448526 0.0 0.0 4.108299768448526 0.0 0.0)"
         spreadMethod="pad"
         x1="8.17307151717476"
         y1="6.457488465320926E-4"
         x2="8.173056543645197"
         y2="4.108945517267771">
        <stop
           offset="0.0"
           stop-color="#ffc002"
           id="stop73" />
        <stop
           offset="1.0"
           stop-color="#ffff00"
           id="stop75" />
      </linearGradient>
    </defs>
    <path
       fill="url(#p.5)"
       d="m33.577427 0.0029530183l82.897644 0l0 16.877827l-82.897644 0z"
       fill-rule="evenodd"
       id="path80" />
    <path
       stroke="#000000"
       stroke-width="1.0"
       stroke-linejoin="round"
       stroke-linecap="butt"
       d="m33.577427 0.0029530183l82.897644 0l0 16.877827l-82.897644 0z"
       fill-rule="evenodd"
       id="path82" />
    <path
       fill="#232323"
       d="m60.475067 17.25548l15.686699 -17.236235l13.415665 0l-15.686699 17.236235z"
       fill-rule="evenodd"
       id="path84" />
    <path
       fill="#232323"
       d="m33.577427 17.23919l15.686699 -17.236237l13.415665 0l-15.686699 17.236237z"
       fill-rule="evenodd"
       id="path86" />
    <path
       fill="#232323"
       d="m87.3727 17.25548l15.686699 -17.236235l13.415665 0l-15.686699 17.236235z"
       fill-rule="evenodd"
       id="path88" />
  </g>
</svg>
