<?xml version="1.0" encoding="UTF-8" standalone="no"?>
<svg
   xmlns:dc="http://purl.org/dc/elements/1.1/"
   xmlns:cc="http://creativecommons.org/ns#"
   xmlns:rdf="http://www.w3.org/1999/02/22-rdf-syntax-ns#"
   xmlns:svg="http://www.w3.org/2000/svg"
   xmlns="http://www.w3.org/2000/svg"
   xmlns:sodipodi="http://sodipodi.sourceforge.net/DTD/sodipodi-0.dtd"
   xmlns:inkscape="http://www.inkscape.org/namespaces/inkscape"
   version="1.1"
   viewBox="0.0 0.0 150.0 150.0"
   fill="none"
   stroke="none"
   stroke-linecap="square"
   stroke-miterlimit="10"
   id="svg123"
   sodipodi:docname="landing_thruster.svg"
   inkscape:export-filename="/home/christian7573/Documents/glap/glap-rs-client/assets_rs/landing_thruster.png"
   inkscape:export-xdpi="128"
   inkscape:export-ydpi="128"
   inkscape:version="1.0.1 (3bc2e813f5, 2020-09-07)">
  <metadata
     id="metadata129">
    <rdf:RDF>
      <cc:Work
         rdf:about="">
        <dc:format>image/svg+xml</dc:format>
        <dc:type
           rdf:resource="http://purl.org/dc/dcmitype/StillImage" />
      </cc:Work>
    </rdf:RDF>
  </metadata>
  <defs
     id="defs127" />
  <sodipodi:namedview
     pagecolor="#ffffff"
     bordercolor="#666666"
     borderopacity="1"
     objecttolerance="10"
     gridtolerance="10"
     guidetolerance="10"
     inkscape:pageopacity="0"
     inkscape:pageshadow="2"
     inkscape:window-width="1536"
     inkscape:window-height="822"
     id="namedview125"
     showgrid="false"
     inkscape:zoom="2.1833333"
     inkscape:cx="-10.23441"
     inkscape:cy="55.997349"
     inkscape:window-x="0"
     inkscape:window-y="0"
     inkscape:window-maximized="1"
     inkscape:current-layer="g121"
     inkscape:document-rotation="0" />
  <clipPath
     id="p.0">
    <path
       d="m0 0l150.0 0l0 150.0l-150.0 0l0 -150.0z"
       clip-rule="nonzero"
       id="path2" />
  </clipPath>
  <g
     clip-path="url(#p.0)"
     id="g121"
     transform="rotate(180,75.00003,75.007155)">
    <path
       fill="#000000"
       fill-opacity="0"
       d="M 0,0 H 150 V 150 H 0 Z"
       fill-rule="evenodd"
       id="path5" />
    <defs
       id="defs12">
      <linearGradient
         id="p.1"
         gradientUnits="userSpaceOnUse"
         gradientTransform="scale(7.2936733)"
         spreadMethod="pad"
         x1="13.193443"
         y1="20.510183"
         x2="13.193523"
         y2="13.216509">
        <stop
           offset="0.0"
           stop-color="#8c8c8c"
           id="stop7" />
        <stop
           offset="1.0"
           stop-color="#404040"
           id="stop9" />
      </linearGradient>
    </defs>
    <path
       fill="url(#p.1)"
       d="m 74.984566,96.396904 v 0 0 c 5.634285,0 11.037804,2.238213 15.021843,6.222256 3.984039,3.98404 6.222252,9.38755 6.222252,15.02184 v 31.95275 c 0,2e-4 -1.6e-4,3.7e-4 -3.51e-4,3.7e-4 l -42.487835,-3.7e-4 v 0 c -1.98e-4,0 -3.55e-4,-1.5e-4 -3.55e-4,-3.5e-4 l 3.55e-4,-31.9524 v 0 c 0,-11.73279 9.511303,-21.244096 21.244091,-21.244096 z"
       fill-rule="evenodd"
       id="path14"
       style="fill:url(#p.1)" />
    <path
       stroke="#000000"
       stroke-width="1"
       stroke-linejoin="round"
       stroke-linecap="butt"
       d="m 74.984566,96.396904 v 0 0 c 5.634285,0 11.037804,2.238213 15.021843,6.222256 3.984039,3.98404 6.222252,9.38755 6.222252,15.02184 v 31.95275 c 0,2e-4 -1.6e-4,3.7e-4 -3.51e-4,3.7e-4 l -42.487835,-3.7e-4 v 0 c -1.98e-4,0 -3.55e-4,-1.5e-4 -3.55e-4,-3.5e-4 l 3.55e-4,-31.9524 v 0 c 0,-11.73279 9.511303,-21.244096 21.244091,-21.244096 z"
       fill-rule="evenodd"
       id="path16"
       style="stroke:none" />
    <defs
       id="defs23">
      <linearGradient
         id="p.2"
         gradientUnits="userSpaceOnUse"
         gradientTransform="scale(3.8833291)"
         spreadMethod="pad"
         x1="7.6759162"
         y1="0.0014806752"
         x2="7.6759024"
         y2="3.8848097">
        <stop
           offset="0.0"
           stop-color="#ffc002"
           id="stop18" />
        <stop
           offset="1.0"
           stop-color="#ffff00"
           id="stop20" />
      </linearGradient>
    </defs>
    <path
       fill="url(#p.2)"
       d="M 29.808111,0.00607717 H 120.19969 V 15.085996 H 29.808111 Z"
       fill-rule="evenodd"
       id="path25"
       style="fill:url(#p.2)" />
    <path
       stroke="#000000"
       stroke-width="1"
       stroke-linejoin="round"
       stroke-linecap="butt"
       d="M 29.808111,0.00607717 H 120.19969 V 15.085996 H 29.808111 Z"
       fill-rule="evenodd"
       id="path27"
       style="stroke:none" />
    <path
       fill="#232323"
       d="M 59.137295,15.420781 73.15297,0.020633 H 90.870515 L 76.854837,15.420781 Z"
       fill-rule="evenodd"
       id="path29" />
    <path
       fill="#232323"
       d="M 29.808111,15.406225 43.823784,0.006077 h 17.71754 L 47.525649,15.406225 Z"
       fill-rule="evenodd"
       id="path31" />
    <path
       fill="#232323"
       d="M 88.46648,15.420781 102.48216,0.020633 h 17.71753 l -14.01567,15.400148 z"
       fill-rule="evenodd"
       id="path33" />
    <defs
       id="defs40">
      <radialGradient
         id="p.3"
         gradientUnits="userSpaceOnUse"
         gradientTransform="matrix(-8.796677,0,0,-8.826737,0,-0.35793014)"
         spreadMethod="pad"
         cx="-8.540946"
         cy="-6.8282928"
         fx="-8.540946"
         fy="-6.8282928"
         r="8.7966766">
        <stop
           offset="0.0"
           stop-color="#8c8c8c"
           id="stop35" />
        <stop
           offset="1.0"
           stop-color="#404040"
           id="stop37" />
      </radialGradient>
    </defs>
    <path
       fill="url(#p.3)"
       d="m 138.31305,83.66357 v 0 c 0,11.642095 -9.40566,21.07988 -21.0081,21.07988 H 32.958938 v 0 c -5.571693,0 -10.915186,-2.2209 -14.854967,-6.174152 -3.939783,-3.953244 -6.15313,-9.314995 -6.15313,-14.905728 V 36.163666 c 0,-11.642098 9.405645,-21.079887 21.008097,-21.079887 h 84.346012 c 11.60245,0 21.0081,9.437787 21.0081,21.079887 z"
       fill-rule="evenodd"
       id="path42"
       style="fill:url(#p.3);stroke-width:1" />
    <path
       stroke="#000000"
       stroke-width="1"
       stroke-linejoin="round"
       stroke-linecap="butt"
       d="m 138.31305,83.73536 v 0 c 0,11.602447 -9.40566,21.00809 -21.0081,21.00809 H 32.958938 v 0 c -5.571693,0 -10.915186,-2.21334 -14.854967,-6.153125 -3.939783,-3.939781 -6.15313,-9.283272 -6.15313,-14.854965 V 36.39722 c 0,-11.602451 9.405645,-21.008099 21.008097,-21.008099 h 84.346012 c 11.60245,0 21.0081,9.405646 21.0081,21.008099 z"
       fill-rule="evenodd"
       id="path44"
       style="stroke:none" />
    <defs
       id="defs51">
      <radialGradient
         id="p.4"
         gradientUnits="userSpaceOnUse"
         gradientTransform="scale(-5.6581652)"
         spreadMethod="pad"
         cx="-13.252242"
         cy="-10.615746"
         fx="-13.252242"
         fy="-10.615746"
         r="5.658165">
        <stop
           offset="0.0"
           stop-color="#ffffff"
           id="stop46" />
        <stop
           offset="1.0"
           stop-color="#b3b3b3"
           id="stop48" />
      </radialGradient>
    </defs>
    <path
       fill="url(#p.4)"
       d="m 97.55031,60.065647 v 0 c 0,12.541645 -10.103561,22.70866 -22.566933,22.70866 v 0 c -5.985123,0 -11.725109,-2.39251 -15.95723,-6.651215 C 54.79403,71.864395 52.416448,66.088355 52.416448,60.065646 v 0 c 0,-12.541649 10.103558,-22.70866 22.566929,-22.70866 v 0 c 12.463371,0 22.566933,10.167011 22.566933,22.708661 z"
       fill-rule="evenodd"
       id="path53"
       style="fill:url(#p.4)" />
    <defs
       id="defs60">
      <linearGradient
         id="p.5"
         gradientUnits="userSpaceOnUse"
         gradientTransform="scale(-8.1370888,8.1370888)"
         spreadMethod="pad"
         x1="-20.215708"
         y1="10.033647"
         x2="-14.461927"
         y2="15.787447">
        <stop
           offset="0.0"
           stop-color="#696969"
           id="stop55" />
        <stop
           offset="1.0"
           stop-color="#1d1d1d"
           id="stop57" />
      </linearGradient>
    </defs>
    <path
       fill="url(#p.5)"
       d="m 117.67789,44.24316 v 0 0 c -2.49763,0 -4.89297,0.99218 -6.65906,2.75827 -1.76609,1.766091 -2.75827,4.161423 -2.75827,6.65905 v 65.38583 c 0,8e-5 8e-5,1.5e-4 1.6e-4,1.5e-4 l 18.83449,-1.5e-4 v 0 c 8e-5,0 1.6e-4,-7e-5 1.6e-4,-1.6e-4 l -1.6e-4,-65.385666 v 0 c 0,-5.201042 -4.21628,-9.41732 -9.41732,-9.41732 z"
       fill-rule="evenodd"
       id="path62"
       style="fill:url(#p.5)" />
    <defs
       id="defs71">
      <linearGradient
         id="p.6"
         gradientUnits="userSpaceOnUse"
         gradientTransform="scale(-7.7683127,7.7683127)"
         spreadMethod="pad"
         x1="-16.360743"
         y1="11.492983"
         x2="-16.360771"
         y2="19.261295">
        <stop
           offset="0.0"
           stop-color="#8c8c8c"
           id="stop66" />
        <stop
           offset="1.0"
           stop-color="#404040"
           id="stop68" />
      </linearGradient>
    </defs>
    <path
       stroke="#000000"
       stroke-width="1"
       stroke-linejoin="round"
       stroke-linecap="butt"
       d="m 117.67789,44.24316 v 0 0 c -2.49763,0 -4.89296,0.99218 -6.65905,2.75827 -1.76609,1.76609 -2.75827,4.161423 -2.75827,6.65905 v 50.59194 c 0,8e-5 7e-5,1.5e-4 1.6e-4,1.5e-4 l 18.83449,-2.51924 v 0 c 0,0 1.5e-4,-7e-5 1.5e-4,-1.6e-4 l -1.5e-4,-48.072686 v 0 c 0,-5.201044 -4.21628,-9.417324 -9.41733,-9.417324 z"
       fill-rule="evenodd"
       id="path50"
       sodipodi:nodetypes="ccssssccsccssc" />
    <path
       fill="url(#p.6)"
       d="m 117.67789,89.28115 v 0 0 c -2.49763,0 -4.89297,0.99218 -6.65906,2.75827 -1.76609,1.766091 -2.75827,4.161423 -2.75827,6.659058 v 50.929132 c 0,9e-5 8e-5,1.5e-4 1.6e-4,1.5e-4 l 18.83449,-1.5e-4 v 0 c 8e-5,0 1.6e-4,-8e-5 1.6e-4,-1.5e-4 l -1.6e-4,-50.928983 v 0 c 0,-5.20105 -4.21628,-9.417328 -9.41732,-9.417327 z"
       fill-rule="evenodd"
       id="path73"
       style="fill:url(#p.6);stroke:none" />
    <path
       stroke="#000000"
       stroke-width="1"
       stroke-linejoin="round"
       stroke-linecap="butt"
       d="m 117.67789,89.28115 v 0 0 c -2.49763,0 -4.89297,0.99218 -6.65906,2.75827 -1.76609,1.766091 -2.75827,4.161423 -2.75827,6.659058 v 50.929132 c 0,9e-5 8e-5,1.5e-4 1.6e-4,1.5e-4 l 18.83449,-1.5e-4 v 0 c 8e-5,0 1.6e-4,-8e-5 1.6e-4,-1.5e-4 l -1.6e-4,-50.928983 v 0 c 0,-5.20105 -4.21628,-9.417328 -9.41732,-9.417327 z"
       fill-rule="evenodd"
       id="path75"
       style="stroke:none" />
    <defs
       id="defs82">
      <linearGradient
         id="p.7"
         gradientUnits="userSpaceOnUse"
         gradientTransform="scale(3.7099762)"
         spreadMethod="pad"
         x1="29.183062"
         y1="36.725407"
         x2="29.183048"
         y2="40.435383">
        <stop
           offset="0.0"
           stop-color="#8c8c8c"
           id="stop77" />
        <stop
           offset="1.0"
           stop-color="#404040"
           id="stop79" />
      </linearGradient>
    </defs>
    <path
       fill="url(#p.7)"
       d="m 108.26847,136.25053 h 41.73228 v 13.76378 h -41.73228 z"
       fill-rule="evenodd"
       id="path84"
       style="fill:url(#p.7);stroke:none" />
    <path
       stroke="#000000"
       stroke-width="1"
       stroke-linejoin="round"
       stroke-linecap="butt"
       d="m 108.26847,136.25053 h 41.73228 v 13.76378 h -41.73228 z"
       fill-rule="evenodd"
       id="path86"
       style="stroke:none" />
    <defs
       id="defs93">
      <linearGradient
         id="p.8"
         gradientUnits="userSpaceOnUse"
         gradientTransform="scale(8.137071)"
         spreadMethod="pad"
         x1="3.9722161"
         y1="4.232965"
         x2="-1.7815936"
         y2="9.9867115">
        <stop
           offset="0.0"
           stop-color="#696969"
           id="stop88" />
        <stop
           offset="1.0"
           stop-color="#1d1d1d"
           id="stop90" />
      </linearGradient>
    </defs>
    <path
       fill="url(#p.8)"
       d="m 32.32218,43.86134 v 0 0 c 2.497627,0 4.89296,0.99218 6.65905,2.75827 1.76609,1.766091 2.75827,4.161423 2.75827,6.659054 v 65.385826 c 0,8e-5 -6.8e-5,1.6e-4 -1.56e-4,1.6e-4 l -18.834488,-1.6e-4 v 0 c -8.8e-5,0 -1.57e-4,-7e-5 -1.57e-4,-1.6e-4 l 1.57e-4,-65.385666 v 0 c 0,-5.201046 4.216278,-9.417324 9.417324,-9.417324 z"
       fill-rule="evenodd"
       id="path95"
       style="fill:url(#p.8)" />
    <path
       stroke="#000000"
       stroke-width="1"
       stroke-linejoin="round"
       stroke-linecap="butt"
       d="m 32.32174,44.24316 v 0 0 c 2.49763,0 4.89296,0.99218 6.65905,2.75827 1.76609,1.76609 2.75827,4.161423 2.75827,6.65905 v 50.59194 c 0,8e-5 -7e-5,1.5e-4 -1.6e-4,1.5e-4 l -18.834494,-2.51924 v 0 c 0,0 -1.5e-4,-7e-5 -1.5e-4,-1.6e-4 l 1.5e-4,-48.072686 v 0 c 0,-5.201044 4.21628,-9.417324 9.417334,-9.417324 z"
       fill-rule="evenodd"
       id="path64"
       sodipodi:nodetypes="ccssssccsccssc" />
    <defs
       id="defs104">
      <linearGradient
         id="p.9"
         gradientUnits="userSpaceOnUse"
         gradientTransform="scale(7.7683127)"
         spreadMethod="pad"
         x1="2.948478"
         y1="11.443832"
         x2="2.9484501"
         y2="19.212145">
        <stop
           offset="0.0"
           stop-color="#8c8c8c"
           id="stop99" />
        <stop
           offset="1.0"
           stop-color="#404040"
           id="stop101" />
      </linearGradient>
    </defs>
    <path
       fill="url(#p.9)"
       d="m 32.32218,88.89933 v 0 0 c 2.497627,0 4.89296,0.99218 6.65905,2.75827 1.76609,1.766091 2.75827,4.161423 2.75827,6.659058 v 50.929132 c 0,9e-5 -6.8e-5,1.5e-4 -1.56e-4,1.5e-4 l -18.834488,-1.5e-4 v 0 c -8.8e-5,0 -1.57e-4,-8e-5 -1.57e-4,-1.5e-4 l 1.57e-4,-50.928983 v 0 c 0,-5.201042 4.216278,-9.417328 9.417324,-9.417327 z"
       fill-rule="evenodd"
       id="path106"
       style="fill:url(#p.9);stroke:none" />
    <defs
       id="defs115">
      <linearGradient
         id="p.10"
         gradientUnits="userSpaceOnUse"
         gradientTransform="scale(-3.7099762,3.7099762)"
         spreadMethod="pad"
         x1="-11.248482"
         y1="36.622494"
         x2="-11.248495"
         y2="40.33247">
        <stop
           offset="0.0"
           stop-color="#8c8c8c"
           id="stop110" />
        <stop
           offset="1.0"
           stop-color="#404040"
           id="stop112" />
      </linearGradient>
    </defs>
    <path
       fill="url(#p.10)"
       d="M 41.731598,135.86871 H -6.87e-4 v 13.76379 h 41.732285 z"
       fill-rule="evenodd"
       id="path117"
       style="fill:url(#p.10);stroke:none" />
    <path
       stroke="#000000"
       stroke-width="1"
       stroke-linejoin="round"
       stroke-linecap="butt"
       d="M 41.731598,135.86871 H -6.87e-4 v 13.76379 h 41.732285 z"
       fill-rule="evenodd"
       id="path119"
       style="stroke:none" />
  </g>
</svg>
