<?xml version="1.0" encoding="UTF-8" standalone="no"?>
<!-- Created with Inkscape (http://www.inkscape.org/) -->

<svg
   xmlns:dc="http://purl.org/dc/elements/1.1/"
   xmlns:cc="http://creativecommons.org/ns#"
   xmlns:rdf="http://www.w3.org/1999/02/22-rdf-syntax-ns#"
   xmlns:svg="http://www.w3.org/2000/svg"
   xmlns="http://www.w3.org/2000/svg"
   xmlns:sodipodi="http://sodipodi.sourceforge.net/DTD/sodipodi-0.dtd"
   xmlns:inkscape="http://www.inkscape.org/namespaces/inkscape"
   version="1.1"
   id="svg815"
   width="1681"
   height="1453"
   viewBox="0 0 1681 1453"
   sodipodi:docname="Saturn-Rings.svg"
   inkscape:version="0.92.3 (2405546, 2018-03-11)">
  <metadata
     id="metadata821">
    <rdf:RDF>
      <cc:Work
         rdf:about="">
        <dc:format>image/svg+xml</dc:format>
        <dc:type
           rdf:resource="http://purl.org/dc/dcmitype/StillImage" />
        <dc:title></dc:title>
      </cc:Work>
    </rdf:RDF>
  </metadata>
  <defs
     id="defs819" />
  <sodipodi:namedview
     pagecolor="#ffffff"
     bordercolor="#666666"
     borderopacity="1"
     objecttolerance="10"
     gridtolerance="10"
     guidetolerance="10"
     inkscape:pageopacity="0"
     inkscape:pageshadow="2"
     inkscape:window-width="1920"
     inkscape:window-height="1017"
     id="namedview817"
     showgrid="false"
     inkscape:zoom="0.1767767"
     inkscape:cx="1247.5932"
     inkscape:cy="791.51239"
     inkscape:window-x="-8"
     inkscape:window-y="-8"
     inkscape:window-maximized="1"
     inkscape:current-layer="svg815" />
  <g
     id="g825"
     transform="translate(0.0043228,0.00486689)">
    <path
       style="fill:#fefefe"
       d="M 0,726.5 V 0 H 840.5 1681 V 726.5 1453 H 840.5 0 Z"
       id="path841"
       inkscape:connector-curvature="0" />
    <path
       style="fill:#eae5d5"
       d="m 1342.5,1451.8199 c -40.5324,-2.0312 -77.8509,-7.4742 -125.5,-18.3043 -52.1293,-11.8485 -91.4245,-23.712 -152.5,-46.0407 -4.95,-1.8096 -18.675,-7.2144 -30.5,-12.0105 -11.825,-4.7962 -23.525,-9.5184 -26,-10.4939 -34.93926,-13.7708 -122.76432,-56.8998 -168,-82.5012 -4.675,-2.6458 -9.87135,-5.5213 -11.54744,-6.3899 -2.64709,-1.3719 -17.70483,-10.1896 -54.98951,-32.2016 -5.23767,-3.0921 -10.29704,-6.2785 -11.24304,-7.0808 -0.94601,-0.8022 -3.97001,-2.7348 -6.72001,-4.2946 -2.75,-1.5598 -8.15,-4.8594 -12,-7.3326 -3.85,-2.4731 -9.025,-5.7555 -11.5,-7.2943 -2.475,-1.5388 -5.85,-3.7375 -7.5,-4.8859 -4.98622,-3.4705 -39.46754,-26.3451 -42.94537,-28.4896 -1.7839,-1.1 -5.22597,-3.4777 -7.64904,-5.2837 -5.00007,-3.7269 -9.47615,-6.8338 -15.71078,-10.905 -2.36785,-1.5462 -6.64285,-4.6517 -9.5,-6.9012 -2.85714,-2.2494 -6.31981,-4.6859 -7.69481,-5.4145 -1.375,-0.7286 -5.425,-3.6653 -9,-6.526 -3.575,-2.8608 -7.62456,-5.7875 -8.99901,-6.5039 -1.37446,-0.7164 -6.54946,-4.541 -11.5,-8.499 -4.95055,-3.958 -9.99528,-7.7133 -11.21052,-8.345 -2.40678,-1.2513 -92.71714,-73.5583 -103.29047,-82.6995 -20.73979,-17.9308 -25.97443,-22.5005 -31.98531,-27.9222 -3.6586,-3.3 -9.92796,-8.925 -13.93191,-12.5 -4.00395,-3.575 -8.95761,-8.075 -11.00814,-10 -2.05052,-1.925 -8.57609,-8 -14.50127,-13.5 C 399.56581,955.35867 374.68699,930.90362 345.5,900.79058 331.80551,886.66159 324.84896,879.26297 310,863.03464 299.98605,852.09047 285.97595,836.37893 282.37199,832.05138 280.7924,830.15465 278.6,827.64625 277.5,826.47718 c -1.1,-1.16907 -4.025,-4.51952 -6.5,-7.44545 -2.475,-2.92593 -6.3,-7.43089 -8.5,-10.01102 -2.2,-2.58013 -6.475,-7.76736 -9.5,-11.52718 -3.025,-3.75982 -6.4,-7.76769 -7.5,-8.90636 -1.1,-1.13868 -3.89535,-4.54911 -6.21188,-7.57875 -2.31654,-3.02963 -6.26179,-7.98342 -8.76723,-11.00842 -2.50543,-3.025 -7.13508,-8.83114 -10.28811,-12.90252 -3.15303,-4.07139 -7.85885,-10.14639 -10.45738,-13.5 -2.59853,-3.35362 -7.30676,-9.69748 -10.46274,-14.09748 -3.15598,-4.4 -6.24643,-8.45 -6.86767,-9 -0.62125,-0.55 -4.23801,-5.4347 -8.03726,-10.85489 -3.79925,-5.42018 -9.95916,-14.19518 -13.68868,-19.5 C 166.98953,684.8403 159.62716,673.975 154.35822,666 149.08928,658.025 144.14378,650.6 143.36823,649.5 128.65355,628.62963 92.357616,565.98163 76.162115,533.5 67.04625,515.21726 63.214112,506.94952 52.291604,482 29.256998,429.38366 13.650662,378.21358 4.4082625,325 2.3332039,313.05275 0.06394441,278.65299 0.02143608,258.5 -0.06560386,217.2348 4.6018944,188.30161 16.476063,156.5 19.973132,147.13409 30.703306,125.02786 35.57424,117.15407 42.163212,106.5031 62.312844,81.910729 70.52263,74.5 74.787754,70.65 79.227486,66.581302 80.388701,65.458449 81.549915,64.335596 84.975,61.645708 88,59.48092 c 3.025,-2.164789 5.95,-4.485602 6.5,-5.157363 1.526126,-1.863984 25.93659,-16.289673 35.51253,-20.9866 C 145.43544,25.772131 160.42534,19.882975 174,16.055383 c 4.125,-1.16311 9.75,-2.770337 12.5,-3.571615 2.75,-0.801278 9.275,-2.368277 14.5,-3.4822185 5.225,-1.1139421 11.525,-2.4559557 14,-2.9822525 27.29854,-5.80490368 85.15975,-7.4881889 140,-4.0728485 49.00344,3.0518358 119.44776,17.4026375 187,38.0953365 16.53265,5.064304 59.31288,19.489227 66.5,22.422913 4.4,1.79602 9.8,3.838816 12,4.539546 3.61246,1.150618 26.23242,10.156155 48.5,19.308989 48.45706,19.917717 112.0544,50.939567 169,82.435707 19.44456,10.75462 42.62587,23.96297 46,26.21009 1.375,0.91572 5.13704,3.21206 8.36009,5.10296 3.22305,1.89091 7.34943,4.33801 9.16974,5.43801 1.82031,1.1 6.15827,3.71624 9.63991,5.81386 3.48164,2.09763 8.23156,5.02263 10.55536,6.5 2.32381,1.47738 7.04881,4.45473 10.5,6.61634 3.4512,2.1616 9.4249,5.94065 13.2749,8.39788 3.85,2.45723 8.575,5.45408 10.5,6.65966 1.925,1.20558 4.79346,3.05153 6.37434,4.10211 1.58089,1.05058 4.59895,3.03515 6.70679,4.41015 2.10784,1.375 7.56438,5.00746 12.12565,8.07213 4.56127,3.06467 9.41822,6.31955 10.79322,7.23307 1.375,0.91352 5.65,3.906 9.5,6.64997 3.85,2.74396 8.3181,5.7298 9.929,6.63519 1.611,0.90538 5.0928,3.28044 7.7373,5.2779 2.6446,1.99746 8.0058,5.88174 11.9138,8.63174 3.908,2.75 10.7762,7.70733 15.2627,11.01629 4.4865,3.30895 9.5072,6.87082 11.1572,7.91525 1.65,1.04443 6.15,4.45416 10,7.57718 3.85,3.12301 8.975,6.91872 11.3888,8.4349 4.3969,2.76177 92.8851,73.60137 105.1112,84.14718 14.8981,12.85055 25.6861,22.23473 31.5096,27.4092 10.384,9.22661 21.5492,19.31218 25.4622,23 2.0426,1.925 6.372,5.92676 9.621,8.8928 23.1707,21.15289 62.7691,60.14116 88.9072,87.53741 24.7057,25.89494 25.8807,27.13694 29.0155,30.67059 1.6586,1.86956 9.0363,10.1492 16.3951,18.3992 7.3588,8.25 14.7768,16.61337 16.4845,18.58526 8.0153,9.25528 12.8292,14.85359 17.1244,19.91474 2.5673,3.025 5.6509,6.625 6.8526,8 1.2017,1.375 3.7401,4.525 5.6409,7 1.9009,2.475 3.9475,4.95 4.5482,5.5 0.6006,0.55 2.6326,3.01708 4.5154,5.48239 1.8829,2.46532 4.0984,5.19714 4.9234,6.07071 0.825,0.87357 4.425,5.36695 8,9.98527 3.575,4.61833 8.3081,10.66151 10.5181,13.4293 2.21,2.76778 5.7999,7.50733 7.9775,10.53233 2.1777,3.025 4.4674,5.95 5.0882,6.5 0.6208,0.55 3.3156,4.15 5.9884,8 2.6728,3.85 5.2147,7.25289 5.6485,7.56198 0.77,0.54851 3.9877,5.04011 20.978,29.28287 7.0968,10.12613 15.8763,23.14796 33.4784,49.65515 16.196,24.38986 49.6164,83.4015 64.5623,114 18.1721,37.20353 19.8089,40.91491 35.2861,80.0081 1.8526,4.6794 6.3195,17.5044 9.9265,28.5 3.607,10.9955 7.0634,21.5331 7.681,23.4167 4.7236,14.4074 14.1821,57.2545 17.2351,78.0752 0.8468,5.775 2.0974,20.85 2.7792,33.5 1.5927,29.5526 -0.4688,69.5779 -4.5839,89 -6.2771,29.6261 -16.4645,54.7531 -33.8539,83.5 -3.1861,5.2671 -21.479,27.7856 -26.774,32.9588 -4.1749,4.0789 -8.2788,7.7358 -19.8139,17.6558 -10.3215,8.8763 -45.7784,29.5119 -59.7298,34.7621 -2.1405,0.8055 -6.8168,2.5629 -10.3918,3.9052 -3.575,1.3424 -8.3,3.14 -10.5,3.9947 -9.6499,3.7492 -38.1708,10.7617 -53.9381,13.262 -5.466,0.8667 -10.2935,1.7955 -10.7279,2.064 -0.4344,0.2685 -13.2873,1.1372 -28.5619,1.9304 -29.9159,1.5536 -51.8967,1.6337 -78.7721,0.2869 z m 80.7353,-35.3648 c 42.1289,-4.0014 67.4003,-9.6335 99.2647,-22.1226 18.6078,-7.2932 43.5072,-21.8969 59,-34.6042 8.8025,-7.2197 27.0672,-26.313 31.7865,-33.2283 2.2521,-3.3 6.0698,-8.925 8.4838,-12.5 15.0702,-22.3179 27.032,-57.6662 31.8095,-94 2.0116,-15.2992 2.3549,-55.9072 0.5959,-70.5 -0.6629,-5.5 -1.6617,-13.825 -2.2195,-18.5 -0.9913,-8.3088 -1.8104,-13.5878 -4.073,-26.25 -1.4671,-8.2096 -9.6409,-42.1355 -11.3841,-47.25 -0.7498,-2.2 -2.1341,-6.7 -3.0762,-10 -3.4292,-12.0116 -8.7367,-27.1976 -18.1742,-52 -1.0464,-2.75 -3.1477,-7.925 -4.6696,-11.5 -1.5218,-3.575 -3.9106,-9.2 -5.3083,-12.5 -5.5491,-13.10117 -21.7904,-46.99528 -31.1466,-65 -11.427,-21.98971 -35.9471,-63.88987 -48.5718,-83 -3.9968,-6.05 -10.2445,-15.5 -13.8837,-21 -13.5421,-20.46623 -42.7383,-61.6721 -47.4724,-67 -0.9774,-1.1 -3.5508,-4.475 -5.7186,-7.5 -3.9247,-5.47657 -10.7628,-14.24118 -14.8237,-19 -1.1733,-1.375 -4.1274,-5.2 -6.5647,-8.5 -2.4373,-3.3 -4.9514,-6.45 -5.587,-7 -0.6356,-0.55 -2.6845,-3.025 -4.5531,-5.5 -1.8686,-2.475 -3.7487,-4.7528 -4.1778,-5.06178 -0.4292,-0.30898 -1.8311,-1.98599 -3.1153,-3.72668 -2.3271,-3.1541 -6.5625,-8.30801 -14.1561,-17.22585 -11.3389,-13.31629 -13.1945,-15.46704 -15.5,-17.96596 -1.375,-1.49033 -4.75,-5.32171 -7.5,-8.51417 -8.3801,-9.72843 -14.7418,-16.89898 -16.9243,-19.07626 -1.1416,-1.13888 -5.6757,-6.06094 -10.0757,-10.9379 -9.4895,-10.51816 -8.3932,-9.36124 -35.2075,-37.15535 -20.5003,-21.24955 -26.5921,-27.34307 -49.4788,-49.49355 -10.9257,-10.57421 -27.7756,-26.40357 -37.6211,-35.3425 -3.0289,-2.75 -7.1713,-6.575 -9.2052,-8.5 -2.034,-1.925 -8.3343,-7.55 -14.0007,-12.5 -5.6664,-4.95 -13.044,-11.48047 -16.3946,-14.51215 -3.3507,-3.03169 -8.9046,-7.71057 -12.3421,-10.39752 -3.4375,-2.68695 -6.25,-5.19031 -6.25,-5.56302 0,-0.3727 -6.1832,-5.59382 -13.7405,-11.60248 -7.5573,-6.00866 -17.3448,-14.09646 -21.75,-17.97289 -10.5038,-9.24295 -26.198,-21.83186 -35.2746,-28.29504 -3.9958,-2.84529 -13.6708,-10.27337 -21.5,-16.50684 -7.8292,-6.23347 -15.3599,-11.92516 -16.7349,-12.6482 -1.375,-0.72304 -5.65,-3.86988 -9.5,-6.99299 -3.85,-3.1231 -8.35,-6.52681 -10,-7.56379 -1.65,-1.03699 -6.687,-4.59886 -11.1933,-7.91526 -15.025,-11.05753 -19.7744,-14.48145 -23.9507,-17.26639 -2.2792,-1.51989 -7.3726,-5.01343 -11.3187,-7.76343 -3.94618,-2.75 -8.89358,-6.125 -10.99427,-7.5 -2.10069,-1.375 -11.85724,-7.85078 -21.68123,-14.39063 C 942.22384,258.875 930.97161,251.53273 927.5,249.59888 c -1.65,-0.91913 -5.025,-2.98965 -7.5,-4.60115 -2.475,-1.61151 -6.075,-3.8653 -8,-5.00843 -1.925,-1.14314 -6.65,-4.04389 -10.5,-6.44613 -3.85,-2.40223 -16.45,-9.86976 -28,-16.59449 -11.55,-6.72474 -22.35,-13.03253 -24,-14.01732 -5.36432,-3.20165 -23.10551,-12.93541 -45,-24.6894 C 687.64428,115.50835 558.7541,66.981351 455,46.65563 400.06269,35.893255 368.98012,32.609374 321.5,32.551322 c -30.39299,-0.03716 -43.442,0.751385 -67,4.048775 C 202.32775,43.902595 157.56328,61.496276 123.54667,88.068396 114.15192,95.407115 93.720644,116.21553 89.248177,123 c -1.994144,3.025 -4.85382,7.075 -6.354834,9 -4.387559,5.6269 -13.528702,22.68318 -17.953988,33.5 -9.972384,24.37571 -15.131498,46.89447 -17.667654,77.11665 -1.471507,17.53526 -1.531432,22.8295 -0.466999,41.25781 1.685216,29.17577 4.743697,52.43358 9.682011,73.62554 4.543717,19.49862 7.924024,32.50246 11.438537,44.00339 6.045394,19.783 6.941417,22.55377 9.215363,28.49661 1.157474,3.025 3.118097,8.2 4.356941,11.5 10.610027,28.26272 17.871871,44.86824 34.766546,79.5 21.91994,44.93287 65.10322,116.52711 95.98144,159.12914 3.43995,4.74603 8.93769,12.39603 12.2172,17 3.27951,4.60398 6.46635,8.82086 7.08188,9.37086 0.61552,0.55 3.31068,4.15 5.98924,8 2.67857,3.85 5.38955,7.45 6.02442,8 0.63486,0.55 3.26685,3.925 5.84886,7.5 5.44672,7.54142 10.79011,14.44207 13.93797,18 1.21652,1.375 3.76709,4.525 5.66791,7 1.90083,2.475 3.93869,4.95 4.52858,5.5 0.58989,0.55 2.36433,2.8 3.9432,5 1.57887,2.2 4.47819,5.83532 6.44293,8.0785 1.96475,2.24317 6.49727,7.63145 10.07227,11.97395 3.575,4.3425 7.175,8.61492 8,9.49425 1.47056,1.56742 3.4364,3.81813 13.5,15.45628 4.4777,5.17828 17.00444,19.26816 26.5,29.80679 1.925,2.13645 5.75,6.26205 8.5,9.16799 2.75,2.90594 10.4,11.03914 17,18.07377 15.24487,16.2488 55.03377,56.01619 72.98793,72.94847 7.5815,7.15 14.96074,14.17211 16.39831,15.60469 1.43757,1.43259 8.46376,7.88919 15.61376,14.34801 7.15,6.45882 15.02482,13.6117 17.49961,15.8953 2.47478,2.2836 7.19978,6.33323 10.5,8.99919 3.30021,2.66595 6.28051,5.29961 6.62287,5.85271 0.80544,1.301 16.92681,15.0689 38.37752,32.7749 9.35,7.7178 21.275,17.6591 26.5,22.0918 5.225,4.4327 14.1619,11.5186 19.85979,15.7465 5.69788,4.2278 17.01561,12.9405 25.15051,19.3615 8.13489,6.4211 16.52666,12.7705 18.64836,14.1099 2.12171,1.3394 7.25959,5.1386 11.41752,8.4428 4.15793,3.3042 8.62365,6.5769 9.92382,7.2727 1.30017,0.6958 5.68654,3.9055 9.74749,7.1326 4.06094,3.2271 7.7628,5.8674 8.22635,5.8674 0.46355,0 3.24657,1.9529 6.18449,4.3399 2.93792,2.3869 6.46667,4.9318 7.84167,5.6554 1.375,0.7236 4.3,2.7443 6.5,4.4905 2.2,1.7462 5.40925,4.0387 7.13166,5.0945 1.72242,1.0559 6.36586,4.1697 10.31877,6.9197 7.84945,5.4608 13.97761,9.543 18.39511,12.2538 1.56505,0.9604 4.34754,2.8712 6.18332,4.2462 1.83578,1.375 5.64779,3.85 8.47114,5.5 2.82335,1.65 6.64835,4.125 8.5,5.5 1.85165,1.375 5.69027,3.85 8.53027,5.5 2.83999,1.65 6.3575,3.9162 7.81668,5.036 2.599,1.9945 19.10644,12.215 25.44592,15.7548 1.76392,0.9849 6.35713,3.7579 10.20713,6.1622 6.76162,4.2227 41.12852,24.348 56.5,33.0865 8.11891,4.6156 29.37026,16.105 43,23.2478 11.30265,5.9232 59.88017,30.2127 60.42366,30.2127 0.2351,0 7.77346,3.4154 16.7519,7.5898 15.35183,7.1376 55.48084,24.4542 69.14834,29.8391 28.2942,11.1478 37.0231,14.3271 67.6761,24.6495 25.5318,8.5979 28.9141,9.692 41,13.2635 18.79,5.5525 24.4274,7.1002 42,11.5309 35.8625,9.0421 70.122,15.499 107,20.1662 31.4804,3.984 84.759,5.1209 113.2353,2.4161 z M 1347,1370.3723 c -10.8577,-0.7724 -42.6669,-4.4621 -51,-5.9157 -4.675,-0.8155 -13.675,-2.3888 -20,-3.4962 -6.325,-1.1073 -15.55,-2.9032 -20.5,-3.9908 -4.95,-1.0876 -12.375,-2.6789 -16.5,-3.5363 -4.125,-0.8573 -10.425,-2.3689 -14,-3.3591 -3.575,-0.9901 -11.225,-3.0333 -17,-4.5404 -25.4804,-6.6498 -82.9847,-25.409 -103.7622,-33.8496 -3.1558,-1.282 -9.1128,-3.6088 -13.2378,-5.1707 -13.299,-5.0355 -45.0894,-18.6494 -72.5,-31.0475 -31.77941,-14.3741 -87.26497,-42.5518 -120,-60.9408 -3.72583,-2.093 -47.41433,-27.5725 -54.91209,-32.0252 -1.85225,-1.1 -6.00477,-3.5471 -9.22782,-5.438 -3.22305,-1.8909 -6.98509,-4.183 -8.36009,-5.0936 -2.70538,-1.7915 -6.24096,-4.0309 -18.29053,-11.5846 -9.89251,-6.2015 -52.69143,-34.2514 -58.89569,-38.5996 -2.57743,-1.8063 -7.00986,-4.8592 -9.84985,-6.7842 -2.84,-1.925 -8.05364,-5.627 -11.58588,-8.2266 -3.53224,-2.5997 -7.4248,-5.2593 -8.65015,-5.9102 -1.22534,-0.6509 -4.63165,-3.1364 -7.56957,-5.5233 -2.93792,-2.387 -5.72094,-4.3399 -6.18449,-4.3399 -0.46355,0 -4.16541,-2.6403 -8.22635,-5.8674 -4.06095,-3.2271 -8.45833,-6.4427 -9.77197,-7.1457 -1.31364,-0.703 -6.46394,-4.4752 -11.44511,-8.3826 -4.98118,-3.9074 -11.07578,-8.4814 -13.54355,-10.1645 -7.02008,-4.7879 -88.83995,-70.19954 -94.98686,-75.93809 -3.025,-2.82404 -8.875,-7.92612 -13,-11.33797 -4.125,-3.41184 -11.325,-9.58002 -16,-13.70707 -4.675,-4.12704 -11.2,-9.80191 -14.5,-12.61082 -3.3,-2.80891 -10.70233,-9.43582 -16.44962,-14.72648 C 501.3031,925.82872 494.15333,919.25 491.16202,916.5 468.64113,895.79591 415.32038,842.90441 392.4891,818.62142 384.79509,810.4382 377.15,802.32155 375.5,800.58443 c -1.65,-1.73713 -5.475,-6.01045 -8.5,-9.49628 -3.025,-3.48582 -6.22688,-7.06917 -7.11529,-7.963 -3.37184,-3.39243 -32.5131,-36.98425 -37.38471,-43.09424 -1.65,-2.06944 -5.7,-7.03335 -9,-11.03091 -3.3,-3.99756 -7.35,-8.94553 -9,-10.9955 -6.31927,-7.85106 -19.74596,-24.72009 -23.48375,-29.5045 -2.14841,-2.75 -5.86213,-7.475 -8.25271,-10.5 -2.39057,-3.025 -7.47783,-9.89064 -11.30502,-15.25698 -3.82719,-5.36633 -9.77968,-13.69133 -13.22777,-18.5 -19.68407,-27.4512 -38.70934,-56.31981 -54.53011,-82.74302 -0.65861,-1.1 -3.06608,-4.925 -5.34992,-8.5 -2.28384,-3.575 -6.48878,-11 -9.3443,-16.5 -2.85552,-5.5 -5.82514,-10.71043 -6.59914,-11.57874 -0.774,-0.86831 -1.40728,-1.92232 -1.40728,-2.34225 0,-0.41992 -3.98174,-8.25949 -8.84832,-17.42126 C 152.65741,487.28392 135.9191,450.73673 128.64604,432 102.85489,365.55724 91.418346,306.57426 94.909391,258.00619 c 3.55292,-49.42888 18.124109,-84.96954 47.500419,-115.85848 22.44863,-23.60454 56.227,-42.13025 93.09019,-51.055215 2.75,-0.665804 6.575,-1.611035 8.5,-2.100514 5.6927,-1.447511 26.69602,-4.804574 38,-6.073726 13.0975,-1.470518 59.2997,-1.468534 76,0.0033 45.45007,4.005517 81.06723,10.478352 134.5,24.443175 16.63501,4.34761 34.43586,9.78594 55.5,16.9558 7.975,2.71454 17.65,5.97276 21.5,7.24049 10.04473,3.30754 23.27263,8.13705 28.5,10.40536 2.475,1.07399 13.275,5.39987 24,9.61307 58.19897,22.86287 145.70666,66.17495 207,102.455 3.575,2.11608 8.975,5.23533 12,6.93168 3.025,1.69637 8.54802,4.98546 12.27338,7.3091 8.0271,5.0068 26.45979,16.39148 31.12648,19.22481 1.81178,1.1 4.60049,2.85957 6.19714,3.91015 1.59665,1.05058 4.478,2.88898 6.403,4.08532 1.925,1.19637 7.4405,4.71983 12.25667,7.82993 28.52614,18.42111 26.44404,17.04852 37.0621,24.43262 3.75032,2.60808 8.53125,5.86697 10.62428,7.24197 2.09303,1.375 6.89958,4.66762 10.68123,7.31693 3.78165,2.64931 8.45072,5.89503 10.37572,7.2127 8.36948,5.72899 17.60209,12.41055 25.177,18.22037 4.4818,3.4375 8.5023,6.25 8.9345,6.25 0.4321,0 5.1963,3.48824 10.5871,7.75164 5.3908,4.2634 11.6026,8.92112 13.804,10.35048 5.1361,3.3348 93.997,74.27918 94.9312,75.7908 0.3869,0.62592 6.2544,5.61422 13.039,11.08512 6.7846,5.47091 12.4912,10.30144 12.6814,10.73453 0.1902,0.43309 3.0458,3.02 6.3458,5.74869 3.3,2.72869 8.025,6.85494 10.5,9.16945 2.475,2.3145 12.825,11.75291 23,20.97426 25.9945,23.55818 29.3474,26.78184 67.4963,64.89504 41.6315,41.59256 65.1544,66.49014 89.6693,94.9098 13.763,15.95509 18.0177,20.92454 22.3452,26.09889 5.9197,7.0782 11.8287,14.27499 15.9892,19.47411 1.65,2.06189 5.7,7.02206 9,11.02257 3.3,4.00053 7.8,9.62306 10,12.49454 20.1073,26.24428 24.203,31.70658 36.2419,48.33402 13.7425,18.98037 22.1847,31.35348 41.7337,61.16607 12.7558,19.45281 37.9295,62.20523 42.5628,72.28435 1.0659,2.31861 6.1058,12.34632 11.1998,22.28381 5.094,9.93749 10.3333,20.51249 11.643,23.5 1.3097,2.98751 4.3527,9.88998 6.7624,15.33882 12.0875,27.33288 25.1727,64.45248 30.8778,87.59298 7.7405,31.3965 10.9556,50.387 12.5764,74.2849 2.5962,38.2787 -2.7371,73.6167 -15.6872,103.9431 -12.441,29.1341 -36.9788,56.9516 -65.7077,74.49 -14.6808,8.9622 -28.7156,14.7777 -56.2029,23.2881 -6.8461,2.1197 -18.9812,4.4222 -40,7.5898 -9.6952,1.4611 -67.1196,2.7282 -80.5,1.7764 z m -98.5,-329.4163 c 32.0819,-3.6629 49.1114,-19.7759 51.1214,-48.37024 1.1283,-16.05217 -1.7995,-31.93685 -10.4299,-56.58576 -5.368,-15.3312 -30.2744,-61.1924 -42.6321,-78.5 -1.9635,-2.75 -6.7263,-9.5 -10.584,-15 -14.226,-20.28223 -25.9467,-35.36615 -43.8061,-56.37608 -30.4486,-35.81993 -38.0211,-43.98431 -76.6619,-82.65302 -28.5825,-28.60316 -52.9115,-51.97958 -60.5074,-58.13838 -1.925,-1.5608 -4.8804,-4.18662 -6.5675,-5.83516 -1.6871,-1.64855 -7.51,-6.82236 -12.9397,-11.49736 -5.4297,-4.675 -12.5994,-11.01371 -15.9325,-14.08603 -3.3332,-3.07231 -12.8103,-11.06157 -21.0603,-17.7539 -8.25,-6.69233 -18.15,-14.884 -22,-18.2037 -3.85,-3.3197 -13.975,-11.28358 -22.5,-17.69752 -8.525,-6.41393 -19.775,-15.0979 -25,-19.29771 -5.225,-4.19982 -11.3,-8.78018 -13.5,-10.17859 -2.2,-1.39842 -7.49079,-5.18407 -11.75731,-8.41256 -13.86,-10.48792 -19.82598,-14.83418 -23.06379,-16.80212 -1.7484,-1.06267 -5.27163,-3.53767 -7.82941,-5.5 -2.55778,-1.96233 -5.93278,-4.34269 -7.5,-5.2897 -1.56722,-0.94701 -5.09949,-3.30197 -7.84949,-5.23325 -8.45254,-5.93608 -10.8868,-7.60975 -14,-9.62571 -1.65,-1.06846 -7.05,-4.62345 -12,-7.89997 -4.95,-3.27652 -12.72631,-8.33375 -17.28068,-11.23828 -4.55438,-2.90453 -10.17938,-6.50322 -12.5,-7.9971 -2.32063,-1.49388 -5.79432,-3.64392 -7.71932,-4.77787 -1.925,-1.13395 -6.65,-4.05484 -10.5,-6.49087 -3.85,-2.43602 -9.22801,-5.62693 -11.95114,-7.0909 -2.72312,-1.46397 -6.09812,-3.44862 -7.5,-4.41033 C 761.50408,428.26812 744.29554,418.60072 723.5,407.23438 685.90186,386.68414 638.47897,365.59487 603,353.64723 533.7012,330.31066 483.89392,329.20722 460.22875,350.48424 441.69111,367.15117 440.09637,399.11675 455.71298,441 c 12.34113,33.09851 46.45428,88.22674 79.747,128.87437 3.32201,4.0559 7.81206,9.6809 9.97789,12.5 7.84978,10.21748 44.17001,51.10006 59.99918,67.53595 26.59262,27.61189 50.93036,51.2907 78.55668,76.42981 31.67621,28.82438 36.60306,33.13395 59.00627,51.61346 7.975,6.57826 19.9,16.51966 26.5,22.092 6.6,5.57234 15.76359,12.90418 20.36352,16.29297 4.59994,3.38879 14.72494,11.13496 22.5,17.21372 7.77507,6.07875 16.61148,12.73403 19.63648,14.78951 3.025,2.05548 8.28937,5.85696 11.69859,8.44772 6.79234,5.16169 18.80344,13.88678 24.30141,17.65299 1.925,1.31866 9.25826,6.37105 16.29614,11.22753 12.64177,8.72344 17.14287,11.75188 23.79664,16.0109 1.87397,1.19951 4.75722,3.13632 6.40722,4.304 1.65,1.16769 5.475,3.64947 8.5,5.51507 3.025,1.8656 6.85,4.3406 8.5,5.5 3.02896,2.12835 8.4972,5.59125 18.94912,12 3.13945,1.925 7.58522,4.68184 9.87948,6.12631 6.90935,4.35013 39.54594,23.22469 49.1321,28.41434 4.9284,2.66808 12.1284,6.57667 16,8.68577 12.006,6.54039 48.3613,24.29183 62.697,30.61348 18.3106,8.0745 22.7734,9.8138 47.8423,18.646 47.4573,16.7199 82.8852,22.8513 112.5,19.4701 z"
       id="path839"
       inkscape:connector-curvature="0" />
    <path
       style="fill:#dad8d1"
       d="m 1346.5,1451.8765 c -40.9504,-2.634 -84.6542,-9.1679 -129.5,-19.3609 -52.1293,-11.8485 -91.4245,-23.712 -152.5,-46.0407 -4.95,-1.8096 -18.675,-7.2144 -30.5,-12.0105 -11.825,-4.7962 -23.525,-9.5184 -26,-10.4939 -34.93926,-13.7708 -122.76432,-56.8998 -168,-82.5012 -4.675,-2.6458 -9.87135,-5.5213 -11.54744,-6.3899 -2.64709,-1.3719 -17.70483,-10.1896 -54.98951,-32.2016 -5.23767,-3.0921 -10.29704,-6.2785 -11.24304,-7.0808 -0.94601,-0.8022 -3.97001,-2.7348 -6.72001,-4.2946 -2.75,-1.5598 -8.15,-4.8594 -12,-7.3326 -3.85,-2.4731 -9.025,-5.7555 -11.5,-7.2943 -2.475,-1.5388 -5.85,-3.7375 -7.5,-4.8859 -4.98622,-3.4705 -39.46754,-26.3451 -42.94537,-28.4896 -1.7839,-1.1 -5.22597,-3.4777 -7.64904,-5.2837 -5.00007,-3.7269 -9.47615,-6.8338 -15.71078,-10.905 -2.36785,-1.5462 -6.64285,-4.6517 -9.5,-6.9012 -2.85714,-2.2494 -6.31981,-4.6859 -7.69481,-5.4145 -1.375,-0.7286 -5.425,-3.6653 -9,-6.526 -3.575,-2.8608 -7.62456,-5.7875 -8.99901,-6.5039 -1.37446,-0.7164 -6.54946,-4.541 -11.5,-8.499 -4.95055,-3.958 -9.99528,-7.7133 -11.21052,-8.345 -2.40678,-1.2513 -92.71714,-73.5583 -103.29047,-82.6995 -19.83738,-17.1506 -27.44218,-23.9045 -49.38118,-43.85601 -13.26535,-12.0636 -27.48663,-25.1136 -31.60285,-29 -16.41783,-15.5012 -73.37831,-72.66358 -87.09282,-87.40154 -16.58349,-17.82104 -40.96896,-44.71529 -45.39821,-50.06879 -1.63629,-1.97772 -7.71129,-9.03299 -13.5,-15.67837 C 264.23622,809.77211 257.025,801.26566 254,797.51427 c -3.025,-3.75139 -7.075,-8.70781 -9,-11.01427 -1.925,-2.30646 -5.975,-7.26812 -9,-11.0259 -3.025,-3.75779 -6.8651,-8.43924 -8.53355,-10.40322 -1.66846,-1.96398 -5.04346,-6.21885 -7.5,-9.45526 -2.45655,-3.23641 -6.59688,-8.63641 -9.20073,-12 -2.60386,-3.36359 -7.68838,-10.16562 -11.29893,-15.11562 -3.61056,-4.95 -9.70402,-13.275 -13.54103,-18.5 -3.83701,-5.225 -9.72611,-13.55 -13.0869,-18.5 -3.36078,-4.95 -6.91142,-9.9 -7.8903,-11 -0.97888,-1.1 -6.33488,-8.975 -11.90221,-17.5 -5.56733,-8.525 -12.05308,-18.425 -14.41276,-22 C 116.25333,607.0932 78.387971,538.49854 63.007373,504 42.682261,458.41096 35.206254,439.08405 24.712338,405 8.3749648,351.9365 1.422594,313.03586 0.3088111,268.45481 -0.99792983,216.15028 6.683916,177.2537 26.369111,136.5 34.452733,119.76471 38.312292,113.6094 50.410863,98.157681 61.008044,84.623467 64.931837,80.453195 77.5,69.366897 103.72753,46.231752 139.71801,26.72174 174,17.055383 c 4.125,-1.16311 9.75,-2.770337 12.5,-3.571615 4.37737,-1.275453 10.87044,-2.745872 28.5,-6.4541061 6.7923,-1.428706 23.05938,-3.7556558 36.5,-5.2212003 18.28408,-1.99366782 81.51653,-1.69601505 102.5,0.4824961 64.8546,6.7332279 121.78549,18.4679043 188,38.7508273 16.53265,5.064304 59.31288,19.489227 66.5,22.422913 4.4,1.79602 9.8,3.838816 12,4.539546 3.61246,1.150618 26.23242,10.156155 48.5,19.308989 48.45706,19.917717 112.0544,50.939567 169,82.435707 19.44456,10.75462 42.62587,23.96297 46,26.21009 1.375,0.91572 5.13704,3.21206 8.36009,5.10296 3.22305,1.89091 7.34943,4.33801 9.16974,5.43801 1.82031,1.1 6.15827,3.71624 9.63991,5.81386 3.48164,2.09763 8.23156,5.02263 10.55536,6.5 2.32381,1.47738 7.04881,4.45473 10.5,6.61634 3.4512,2.1616 9.4249,5.94065 13.2749,8.39788 3.85,2.45723 8.575,5.45408 10.5,6.65966 1.925,1.20558 4.79346,3.05153 6.37434,4.10211 1.58089,1.05058 4.59895,3.03515 6.70679,4.41015 2.10784,1.375 7.56438,5.00746 12.12565,8.07213 4.56127,3.06467 9.41822,6.31955 10.79322,7.23307 1.375,0.91352 5.65,3.906 9.5,6.64997 3.85,2.74396 8.3181,5.7298 9.929,6.63519 1.611,0.90538 5.0928,3.28044 7.7373,5.2779 2.6446,1.99746 8.0058,5.88174 11.9138,8.63174 3.908,2.75 10.7762,7.70733 15.2627,11.01629 4.4865,3.30895 9.5072,6.87082 11.1572,7.91525 1.65,1.04443 6.15,4.45416 10,7.57718 3.85,3.12301 8.975,6.91872 11.3888,8.4349 4.3969,2.76177 92.8851,73.60137 105.1112,84.14718 19.7598,17.04414 27.8502,24.23396 53.8957,47.89627 46.2196,41.9906 121.4199,118.08629 153.1043,154.92736 4.675,5.43586 13.2254,15.32887 19.0009,21.98448 10.1218,11.66429 15.116,17.60735 21.4991,25.5839 1.65,2.06189 5.543,6.84676 8.6512,10.63304 19.939,24.28949 23.8585,29.37508 54.0714,70.15927 10.9755,14.81573 22.1118,31.06107 47.4545,69.22488 16.196,24.38986 49.6164,83.4015 64.5623,114 18.1721,37.20353 19.8089,40.91491 35.2861,80.0081 1.8526,4.6794 6.3195,17.5044 9.9265,28.5 3.607,10.9955 7.0634,21.5331 7.681,23.4167 6.7964,20.7293 16.6868,69.3345 20.0586,98.5752 1.8708,16.224 1.5429,60.775 -0.5667,77 -5.4691,42.063 -16.06,72.3701 -37.9154,108.5 -1.1645,1.925 -6.4795,8.9 -11.8112,15.5 -15.2584,18.8879 -30.5798,32.7871 -50.3983,45.7201 -12.1957,7.9585 -34.359,19.8641 -43.1082,23.1566 -2.1405,0.8055 -6.8168,2.5629 -10.3918,3.9052 -3.575,1.3424 -8.3,3.1328 -10.5,3.9788 -10.1569,3.9057 -31.7659,9.3182 -51,12.7741 -34.3267,6.1676 -78.0183,8.3491 -117,5.8417 z m 76.7353,-34.4214 c 42.1289,-4.0014 67.4003,-9.6335 99.2647,-22.1226 19.8396,-7.7759 44.047,-22.2001 61,-36.3473 9.1245,-7.6143 26.4815,-26.0586 31.5112,-33.4852 1.8625,-2.75 5.3578,-7.925 7.7673,-11.5 15.0826,-22.3781 27.0256,-57.6798 31.8013,-94 2.0116,-15.2992 2.3549,-55.9072 0.5959,-70.5 -0.6629,-5.5 -1.6617,-13.825 -2.2195,-18.5 -0.9913,-8.3088 -1.8104,-13.5878 -4.073,-26.25 -1.4671,-8.2096 -9.6409,-42.1355 -11.3841,-47.25 -0.7498,-2.2 -2.1341,-6.7 -3.0762,-10 -3.4292,-12.0116 -8.7367,-27.1976 -18.1742,-52 -1.0464,-2.75 -3.1477,-7.925 -4.6696,-11.5 -1.5218,-3.575 -3.9106,-9.2 -5.3083,-12.5 -5.5491,-13.10117 -21.7904,-46.99528 -31.1466,-65 -11.427,-21.98971 -35.9471,-63.88987 -48.5718,-83 -3.9968,-6.05 -10.2445,-15.5 -13.8837,-21 -16.917,-25.56668 -45.9672,-65.99322 -60.7796,-84.58145 -1.9365,-2.4302 -6.3428,-8.01855 -9.7916,-12.41855 -44.1033,-56.26614 -98.429,-116.35109 -158.5426,-175.35044 -20.4487,-20.06962 -21.1698,-20.76133 -34.0343,-32.64956 -5.9516,-5.5 -12.4851,-11.575 -14.5187,-13.5 -3.4532,-3.26871 -10.6936,-9.79668 -25.5101,-23 -3.3946,-3.025 -10.6016,-9.325 -16.0156,-14 -5.4139,-4.675 -12.3484,-10.78623 -15.4099,-13.58051 -3.0614,-2.79429 -11.4163,-9.73926 -18.5663,-15.43329 -7.15,-5.69402 -16.375,-13.33546 -20.5,-16.98098 -9.8038,-8.66423 -25.6501,-21.35782 -34.7651,-27.84832 -3.9958,-2.84529 -13.6708,-10.27337 -21.5,-16.50684 -7.8292,-6.23347 -15.3599,-11.92516 -16.7349,-12.6482 -1.375,-0.72304 -5.65,-3.86988 -9.5,-6.99299 -3.85,-3.1231 -8.35,-6.52681 -10,-7.56379 -1.65,-1.03699 -6.687,-4.59886 -11.1933,-7.91526 -15.025,-11.05753 -19.7744,-14.48145 -23.9507,-17.26639 -2.2792,-1.51989 -7.3726,-5.01343 -11.3187,-7.76343 -3.94618,-2.75 -8.89358,-6.125 -10.99427,-7.5 -2.10069,-1.375 -11.85724,-7.85078 -21.68123,-14.39063 C 942.22384,257.875 930.97161,250.53273 927.5,248.59888 c -1.65,-0.91913 -5.025,-2.98965 -7.5,-4.60115 -2.475,-1.61151 -6.075,-3.8653 -8,-5.00843 -1.925,-1.14314 -6.65,-4.04389 -10.5,-6.44613 -3.85,-2.40223 -16.45,-9.86976 -28,-16.59449 -11.55,-6.72474 -22.35,-13.03253 -24,-14.01732 -5.36432,-3.20165 -23.10551,-12.93541 -45,-24.6894 C 687.64428,114.50835 558.7541,65.981351 455,45.65563 400.06269,34.893255 368.98012,31.609374 321.5,31.551322 c -30.39299,-0.03716 -43.442,0.751385 -67,4.048775 C 200.41402,43.170458 157.24332,60.591783 119.85696,89.934639 111.33902,96.619987 91.740531,117.276 87.451891,124.08828 85.92433,126.51472 83.434695,130.075 81.919367,132 c -4.37161,5.55349 -13.520493,22.5995 -17.980012,33.5 -9.972384,24.37571 -15.131498,46.89447 -17.667654,77.11665 -1.471507,17.53526 -1.531432,22.8295 -0.466999,41.25781 1.685216,29.17577 4.743697,52.43358 9.682011,73.62554 4.543717,19.49862 7.924024,32.50246 11.438537,44.00339 6.045394,19.783 6.941417,22.55377 9.215363,28.49661 1.157474,3.025 3.213724,8.425 4.569444,12 11.487351,30.29185 17.513284,44.06879 34.554043,79 22.00858,45.11458 65.11477,116.54695 96.25099,159.5 3.5882,4.95 9.46021,13.05 13.0489,18 3.58868,4.95 9.09239,12.41156 12.23045,16.58124 5.19362,6.901 8.40374,11.07653 22.20556,28.88365 6.65792,8.59005 19.88725,24.94848 23.949,29.61361 1.95305,2.24317 6.4685,7.64317 10.03433,12 6.77133,8.27337 27.82119,32.43767 43.92039,50.41863 22.38083,24.99681 67.60148,71.3009 100.63019,103.04118 12.52057,12.03215 53.56419,49.45913 67.5708,61.61669 5.16741,4.4852 12.54529,10.9023 16.39529,14.2602 3.85,3.358 14.65,12.4023 24,20.0986 9.35,7.6963 21.275,17.6201 26.5,22.0528 5.225,4.4327 14.1619,11.5186 19.85979,15.7465 5.69788,4.2278 17.01561,12.9405 25.15051,19.3615 8.13489,6.4211 16.52666,12.7705 18.64836,14.1099 2.12171,1.3394 7.25959,5.1386 11.41752,8.4428 4.15793,3.3042 8.62365,6.5769 9.92382,7.2727 1.30017,0.6958 5.68654,3.9055 9.74749,7.1326 4.06094,3.2271 7.7628,5.8674 8.22635,5.8674 0.46355,0 3.24657,1.9529 6.18449,4.3399 2.93792,2.3869 6.46667,4.9318 7.84167,5.6554 1.375,0.7236 4.3,2.7443 6.5,4.4905 2.2,1.7462 5.40925,4.0387 7.13166,5.0945 1.72242,1.0559 6.36586,4.1697 10.31877,6.9197 7.84945,5.4608 13.97761,9.543 18.39511,12.2538 1.56505,0.9604 4.34754,2.8712 6.18332,4.2462 1.83578,1.375 5.64779,3.85 8.47114,5.5 2.82335,1.65 6.64835,4.125 8.5,5.5 1.85165,1.375 5.69027,3.85 8.53027,5.5 2.83999,1.65 6.3575,3.9162 7.81668,5.036 2.599,1.9945 19.10644,12.215 25.44592,15.7548 1.76392,0.9849 6.35713,3.7579 10.20713,6.1622 6.76162,4.2227 41.12852,24.348 56.5,33.0865 8.11891,4.6156 29.37026,16.105 43,23.2478 11.30265,5.9232 59.88017,30.2127 60.42366,30.2127 0.2351,0 7.77346,3.4154 16.7519,7.5898 15.35183,7.1376 55.48084,24.4542 69.14834,29.8391 28.2942,11.1478 37.0231,14.3271 67.6761,24.6495 25.5318,8.5979 28.9141,9.692 41,13.2635 18.79,5.5525 24.4274,7.1002 42,11.5309 35.8625,9.0421 70.122,15.499 107,20.1662 31.4804,3.984 84.759,5.1209 113.2353,2.4161 z M 1349,1369.3742 c -10.9075,-0.7798 -42.6826,-4.4667 -51,-5.9176 -4.675,-0.8155 -13.675,-2.3888 -20,-3.4962 -6.325,-1.1073 -15.55,-2.9032 -20.5,-3.9908 -4.95,-1.0876 -12.375,-2.6789 -16.5,-3.5363 -4.125,-0.8573 -10.425,-2.3689 -14,-3.3591 -3.575,-0.9901 -11.225,-3.0332 -17,-4.5402 -25.813,-6.7358 -78.7543,-23.9782 -103,-33.5459 -4.125,-1.6277 -11.6095,-4.524 -16.6322,-6.4362 -37.0371,-14.1001 -110.98521,-48.2231 -152.8678,-70.5401 -16.94711,-9.0302 -34.42151,-18.5811 -44.5,-24.3223 -5.775,-3.2898 -13.65,-7.7689 -17.5,-9.9537 -7.66324,-4.3487 -21.98036,-12.8108 -27.5,-16.2538 -1.925,-1.2008 -10.025,-6.1551 -18,-11.0095 -7.975,-4.8545 -17.78385,-10.8842 -21.79744,-13.3994 -10.89945,-6.8304 -66.51383,-43.841 -75.70256,-50.3791 -9.35702,-6.6578 -18.89761,-13.3952 -27.88826,-19.694 -8.03804,-5.6314 -16.03068,-11.5191 -27.87252,-20.532 -5.08157,-3.8676 -11.26422,-8.3933 -13.73922,-10.057 -6.73436,-4.5271 -88.65163,-69.98267 -95,-75.90929 -3.025,-2.82404 -8.875,-7.92612 -13,-11.33797 -4.125,-3.41184 -11.325,-9.58002 -16,-13.70707 -4.675,-4.12704 -11.2,-9.80191 -14.5,-12.61082 -3.3,-2.80891 -10.70233,-9.43582 -16.44962,-14.72648 C 502.3031,924.82872 495.15333,918.25 492.16202,915.5 469.64113,894.79591 416.32038,841.90441 393.4891,817.62142 385.79509,809.4382 378.15,801.32155 376.5,799.58443 c -1.65,-1.73713 -5.475,-6.01045 -8.5,-9.49628 -3.025,-3.48582 -6.22688,-7.06917 -7.11529,-7.963 -3.37184,-3.39243 -32.5131,-36.98425 -37.38471,-43.09424 -1.65,-2.06944 -5.7,-7.03335 -9,-11.03091 -3.3,-3.99756 -7.35,-8.95213 -9,-11.01016 -1.65,-2.05802 -6.40005,-7.96016 -10.55567,-13.11585 -4.15561,-5.1557 -8.43061,-10.5626 -9.5,-12.01534 -1.06938,-1.45273 -5.57531,-7.30273 -10.01318,-13 C 256.4624,654.50687 224.25356,608.13364 208.50461,582.5 c -9.76226,-15.88947 -11.94656,-19.39873 -18.05064,-29 -3.49191,-5.4925 -12.98777,-22.68877 -20.70768,-37.5 -2.72338,-5.225 -7.32446,-14 -10.22464,-19.5 C 153.06464,484.25467 135.71909,445.64528 129.64604,430 104.2729,364.63411 92.588732,305.53493 95.937438,259.5 c 1.69442,-23.29334 4.325652,-36.49839 11.357782,-57 9.97443,-29.07967 25.3433,-51.34728 49.45176,-71.64954 19.66961,-16.56421 50.80239,-31.506606 80.75302,-38.757965 2.75,-0.665804 6.575,-1.611035 8.5,-2.100514 5.69287,-1.447555 26.73067,-4.805416 37.5,-5.985407 12.81974,-1.404654 57.41891,-1.433259 73,-0.04682 45.26501,4.027775 80.78335,10.496603 134,24.404936 19.81917,5.1798 32.01369,9.00149 77,24.13138 6.52446,2.19432 22.31462,8.02722 37.5,13.85255 54.86643,21.04754 129.75261,56.48119 189,89.42851 23.44326,13.03674 74.45237,43.06419 86.25,50.77265 3.97978,2.60036 9.98881,6.3999 15.75,9.95881 7.32338,4.52394 21.13277,13.56338 38.29183,25.06532 9.78551,6.55935 19.51644,13.05109 21.62428,14.42609 3.53906,2.30862 6.60031,4.43801 24.43947,17 3.51472,2.475 9.26006,6.48678 12.76741,8.91506 3.50736,2.42828 8.40201,6.07512 10.87701,8.10408 2.475,2.02896 6.525,4.95012 9,6.49147 2.475,1.54136 7.65,5.36158 11.5,8.48939 3.85,3.12781 8.817,6.82776 11.0379,8.2221 4.858,3.05009 93.8921,74.04667 94.8959,75.67082 0.3869,0.62592 6.2544,5.61422 13.039,11.08512 6.7846,5.4709 12.4912,10.30144 12.6814,10.73453 0.1902,0.43308 3.0458,3.02 6.3458,5.74869 3.3,2.72869 8.025,6.85494 10.5,9.16944 2.475,2.3145 12.825,11.75292 23,20.97427 25.9945,23.55817 29.3474,26.78183 67.4963,64.89503 41.6315,41.59256 65.1544,66.49015 89.6693,94.9098 13.763,15.95509 18.0177,20.92455 22.3452,26.09889 6.0674,7.25474 11.9536,14.42765 15.9892,19.48428 1.65,2.06748 6.5785,8.20235 10.9522,13.63304 43.9824,54.61169 83.5979,112.47047 116.3113,169.87399 7.8712,13.81187 30.4877,57.96132 35.1177,68.55281 1.3097,2.99595 4.3527,9.90533 6.7624,15.35417 12.0875,27.33292 25.1727,64.45252 30.8778,87.59302 11.0752,44.9225 14.6676,75.1489 12.5611,105.6902 -1.4802,21.4605 -4.1716,35.7079 -10.0972,53.4511 -11.5492,34.5828 -28.3033,58.4109 -56.4853,80.3353 -17.3353,13.4861 -37.3161,22.7909 -72,33.5295 -6.8724,2.1278 -19.1971,4.4638 -40,7.5814 -9.7103,1.4553 -63.5485,2.7127 -76.5,1.7867 z m 15.5763,-158.4161 c 57.1468,-5.4507 90.5712,-29.5124 102.0415,-73.4581 3.5255,-13.5069 4.3691,-37.3608 1.9451,-55 -8.5694,-62.3589 -46.4162,-140.83304 -111.4077,-231 C 1268.6551,728.71786 1126.14,588.06159 972,471.3684 764.78738,314.49601 555.74886,211.58858 411.58275,195.48098 c -17.0518,-1.90519 -49.9484,-1.88984 -63.45266,0.0296 -50.08989,7.11957 -80.3246,30.1073 -91.53863,69.59768 -18.31791,64.5068 21.59623,169.56995 110.70153,291.39174 107.7186,147.26927 276.1126,305.84647 460.00659,433.18978 C 941.90329,1069.0508 1059.217,1132.9013 1161,1171.3136 c 79.5312,30.0145 153.5056,44.4203 203.5763,39.6445 z"
       id="path837"
       inkscape:connector-curvature="0" />
    <path
       style="fill:#c9c5b4"
       d="m 1350.75,1452.3335 c -4.8125,-0.2263 -8.75,-0.8438 -8.75,-1.3724 0,-0.5286 -2.1843,-0.9611 -4.8539,-0.9611 -7.7158,0 -40.9662,-3.8458 -61.1461,-7.0722 -24.6075,-3.9343 -34.6237,-5.8718 -59,-11.4122 -52.1293,-11.8485 -91.4245,-23.712 -152.5,-46.0407 -4.95,-1.8096 -18.675,-7.2144 -30.5,-12.0105 -11.825,-4.7962 -23.525,-9.5184 -26,-10.4939 -34.93926,-13.7708 -122.76432,-56.8998 -168,-82.5012 -4.675,-2.6458 -9.87135,-5.5213 -11.54744,-6.3899 -2.64709,-1.3719 -17.70483,-10.1896 -54.98951,-32.2016 -5.23767,-3.0921 -10.29704,-6.2785 -11.24304,-7.0808 -0.94601,-0.8022 -3.97001,-2.7348 -6.72001,-4.2946 -2.75,-1.5598 -8.15,-4.8594 -12,-7.3326 -3.85,-2.4731 -9.025,-5.7555 -11.5,-7.2943 -2.475,-1.5388 -5.85,-3.7375 -7.5,-4.8859 -4.98622,-3.4705 -39.46754,-26.3451 -42.94537,-28.4896 -1.7839,-1.1 -5.22597,-3.4777 -7.64904,-5.2837 -5.00007,-3.7269 -9.47615,-6.8338 -15.71078,-10.905 -2.36785,-1.5462 -6.64285,-4.6517 -9.5,-6.9012 -2.85714,-2.2494 -6.31981,-4.6859 -7.69481,-5.4145 -1.375,-0.7286 -5.425,-3.6653 -9,-6.526 -3.575,-2.8608 -7.62456,-5.7875 -8.99901,-6.5039 -1.37446,-0.7164 -6.54946,-4.541 -11.5,-8.499 -4.95055,-3.958 -9.99528,-7.7133 -11.21052,-8.345 C 597.88369,1122.8704 507.57333,1050.5634 497,1041.4222 449.21343,1000.1079 420.30918,973.27412 375.90323,929 357.975,911.125 336.80606,889.525 328.86114,881 c -16.35004,-17.5438 -39.8768,-43.48919 -44.3362,-48.89413 -1.63629,-1.98323 -7.71129,-9.043 -13.5,-15.68838 C 265.23622,809.77211 258.025,801.26566 255,797.51427 c -3.025,-3.75139 -7.075,-8.70781 -9,-11.01427 -1.925,-2.30646 -5.975,-7.26812 -9,-11.0259 -3.025,-3.75779 -6.8651,-8.43924 -8.53355,-10.40322 -1.66846,-1.96398 -5.04346,-6.21885 -7.5,-9.45526 -2.45655,-3.23641 -6.59688,-8.63641 -9.20073,-12 -2.60386,-3.36359 -7.68838,-10.16562 -11.29893,-15.11562 -3.61056,-4.95 -9.70402,-13.275 -13.54103,-18.5 -3.83701,-5.225 -9.72611,-13.55 -13.0869,-18.5 -3.36078,-4.95 -6.91142,-9.9 -7.8903,-11 -0.97888,-1.1 -6.33488,-8.975 -11.90221,-17.5 -5.56733,-8.525 -12.05308,-18.425 -14.41276,-22 C 124.57435,618.18478 91.868543,560.98956 78.162115,533.5 69.04625,515.21726 65.214112,506.94952 54.291604,482 28.104522,422.18269 8.4677096,353.25121 3.441523,303.5 3.0525712,299.65 2.231612,296.17895 1.617169,295.78655 -0.08056068,294.70233 0.04915985,225.81791 1.75,225.25041 2.4375,225.02102 3,223.45833 3,221.77776 3,213.78514 9.1842121,184.1964 13.926346,169.5 19.223806,153.08258 29.725951,129.8371 37.57424,117.15768 42.397478,109.36543 59.912044,86.948191 65.439623,81.492232 71.980074,75.036523 85.030343,63.663348 91.357494,58.905073 113.72786,42.081652 146.84443,25.712331 174,18.055383 c 4.125,-1.16311 9.75,-2.769556 12.5,-3.569881 5.97037,-1.737539 17.07743,-4.316525 24,-5.5726429 14.56694,-2.6432079 29.31999,-4.845598 36.69866,-5.4785136 4.56574,-0.391632 8.62259,-1.2120728 9.01522,-1.8232018 0.98024,-1.52572777 86.5462,-1.57612694 87.5727,-0.051581 0.39238,0.5827594 6.78842,1.6131066 14.21342,2.2896606 55.02053,5.0133816 119.11969,18.3183327 184,38.1925617 16.53265,5.064304 59.31288,19.489227 66.5,22.422913 4.4,1.79602 9.8,3.838816 12,4.539546 3.61246,1.150618 26.23242,10.156155 48.5,19.308989 48.45706,19.917717 112.0544,50.939567 169,82.435707 19.44456,10.75462 42.62587,23.96297 46,26.21009 1.375,0.91572 5.13704,3.21206 8.36009,5.10296 3.22305,1.89091 7.34943,4.33801 9.16974,5.43801 1.82031,1.1 6.15827,3.71624 9.63991,5.81386 3.48164,2.09763 8.23156,5.02263 10.55536,6.5 2.32381,1.47738 7.04881,4.45473 10.5,6.61634 3.4512,2.1616 9.4249,5.94065 13.2749,8.39788 3.85,2.45723 8.575,5.45408 10.5,6.65966 1.925,1.20558 4.79346,3.05153 6.37434,4.10211 1.58089,1.05058 4.59895,3.03515 6.70679,4.41015 2.10784,1.375 7.56438,5.00746 12.12565,8.07213 4.56127,3.06467 9.41822,6.31955 10.79322,7.23307 1.375,0.91352 5.65,3.906 9.5,6.64997 3.85,2.74396 8.3181,5.7298 9.929,6.63519 1.611,0.90538 5.0928,3.28044 7.7373,5.2779 2.6446,1.99746 8.0058,5.88174 11.9138,8.63174 3.908,2.75 10.7762,7.70733 15.2627,11.01629 4.4865,3.30895 9.5072,6.87082 11.1572,7.91525 1.65,1.04443 6.15,4.45416 10,7.57718 3.85,3.12301 8.975,6.91872 11.3888,8.4349 4.3969,2.76177 92.8851,73.60137 105.1112,84.14718 19.7713,17.05404 27.8514,24.23548 53.8957,47.90161 46.0726,41.8656 120.5555,117.23861 152.1043,153.92202 4.675,5.43586 13.2254,15.32887 19.0009,21.98448 10.1218,11.66429 15.116,17.60735 21.4991,25.5839 1.65,2.06189 5.543,6.84676 8.6512,10.63304 19.939,24.28949 23.8585,29.37508 54.0714,70.15927 10.9755,14.81573 22.1118,31.06107 47.4545,69.22488 16.196,24.38986 49.6164,83.4015 64.5623,114 18.1721,37.20353 19.8089,40.91491 35.2861,80.0081 1.8526,4.6794 6.3195,17.5044 9.9265,28.5 3.607,10.9955 7.0634,21.5331 7.681,23.4167 6.5774,20.0616 17.5981,73.7962 19.4994,95.0752 0.3686,4.125 1.1646,7.8211 1.7689,8.2136 1.5093,0.9802 1.5438,62.5604 0.036,63.5732 -0.5842,0.3922 -1.6021,5.4137 -2.2619,11.1587 -4.299,37.4272 -16.0167,70.5968 -37.4655,106.0545 -3.5786,5.9159 -21.1706,27.1836 -27.3562,33.0721 -12.4593,11.8608 -21.3378,18.9807 -33.8533,27.148 -12.1957,7.9585 -34.359,19.8641 -43.1082,23.1566 -2.1405,0.8055 -6.8168,2.5629 -10.3918,3.9052 -3.575,1.3424 -8.3,3.14 -10.5,3.9947 -4.5509,1.7682 -26.5244,7.7775 -37,10.1188 -14.2336,3.1813 -43.6839,7.4966 -51.6667,7.5706 -2.0166,0.019 -3.818,0.488 -4.0029,1.0429 -0.355,1.065 -54.9574,2.0825 -71.0804,1.3246 z m 72.4853,-33.8784 c 42.1289,-4.0014 67.4003,-9.6335 99.2647,-22.1226 19.8305,-7.7724 44.0279,-22.1889 61,-36.343 9.185,-7.66 27.5335,-27.1221 32.5161,-34.4895 1.8598,-2.75 5.3529,-7.925 7.7624,-11.5 15.0826,-22.3781 27.0256,-57.6798 31.8013,-94 2.0116,-15.2992 2.3549,-55.9072 0.5959,-70.5 -0.6629,-5.5 -1.6617,-13.825 -2.2195,-18.5 -0.9913,-8.3088 -1.8104,-13.5878 -4.073,-26.25 -1.4671,-8.2096 -9.6409,-42.1355 -11.3841,-47.25 -0.7498,-2.2 -2.1341,-6.7 -3.0762,-10 -3.4292,-12.0116 -8.7367,-27.1976 -18.1742,-52 -1.0464,-2.75 -3.1477,-7.925 -4.6696,-11.5 -1.5218,-3.575 -3.9106,-9.2 -5.3083,-12.5 -5.5491,-13.10117 -21.7904,-46.99528 -31.1466,-65 -11.427,-21.98971 -35.9471,-63.88987 -48.5718,-83 -3.9968,-6.05 -10.2445,-15.5 -13.8837,-21 -16.917,-25.56668 -45.9672,-65.99322 -60.7796,-84.58145 -1.9365,-2.4302 -6.3428,-8.01855 -9.7916,-12.41855 -18.1713,-23.1825 -35.0636,-43.36029 -60.5975,-72.38346 -30.9709,-35.2031 -60.1932,-65.92246 -98.4343,-103.47723 -29.9865,-29.44831 -42.004,-40.67217 -74.5638,-69.63931 -3.4002,-3.025 -10.6117,-9.325 -16.0257,-14 -5.4139,-4.675 -12.3484,-10.78623 -15.4099,-13.58051 -3.0614,-2.79429 -11.4163,-9.73926 -18.5663,-15.43329 -7.15,-5.69402 -16.375,-13.33546 -20.5,-16.98098 -9.8038,-8.66423 -25.6501,-21.35782 -34.7651,-27.84832 -3.9958,-2.84529 -13.6708,-10.27337 -21.5,-16.50684 -7.8292,-6.23347 -15.3599,-11.92516 -16.7349,-12.6482 -1.375,-0.72304 -5.65,-3.86988 -9.5,-6.99299 -3.85,-3.1231 -8.35,-6.52681 -10,-7.56379 -1.65,-1.03699 -6.687,-4.59886 -11.1933,-7.91526 -15.025,-11.05753 -19.7744,-14.48145 -23.9507,-17.26639 -2.2792,-1.51989 -7.3726,-5.01343 -11.3187,-7.76343 -3.94618,-2.75 -8.89358,-6.125 -10.99427,-7.5 -2.10069,-1.375 -11.85724,-7.85078 -21.68123,-14.39063 C 942.22384,256.875 930.97161,249.53273 927.5,247.59888 c -1.65,-0.91913 -5.025,-2.98965 -7.5,-4.60115 -2.475,-1.61151 -6.075,-3.8653 -8,-5.00843 -1.925,-1.14314 -6.65,-4.04389 -10.5,-6.44613 -3.85,-2.40223 -16.45,-9.86976 -28,-16.59449 -11.55,-6.72474 -22.35,-13.03253 -24,-14.01732 -5.36432,-3.20165 -23.10551,-12.93541 -45,-24.6894 C 687.64428,113.50835 558.7541,64.981351 455,44.65563 400.06269,33.893255 368.98012,30.609374 321.5,30.551322 270.82038,30.489359 232.64173,35.753871 197,47.718818 138.56536,67.335356 96.471567,101.09002 70.697197,149 c -13.972061,25.97158 -22.331995,56.75285 -25.425496,93.61665 -1.471507,17.53526 -1.531432,22.8295 -0.466999,41.25781 1.685216,29.17577 4.743697,52.43358 9.682011,73.62554 4.543717,19.49862 7.924024,32.50246 11.438537,44.00339 6.045394,19.783 6.941417,22.55377 9.215363,28.49661 1.157474,3.025 3.118097,8.2 4.356941,11.5 10.610027,28.26272 17.871871,44.86824 34.766546,79.5 22.00858,45.11458 65.11477,116.54695 96.25099,159.5 3.5882,4.95 9.46021,13.05 13.0489,18 3.58868,4.95 9.09239,12.41156 12.23045,16.58124 5.19362,6.901 8.40374,11.07653 22.20556,28.88365 6.65792,8.59005 19.88725,24.94848 23.949,29.61361 1.95305,2.24317 6.4685,7.64317 10.03433,12 14.55812,17.78747 47.26938,54.53006 69.37209,77.9215 16.15658,17.09861 55.76481,56.91613 76.16967,76.57215 12.16496,11.71852 52.95228,48.8865 67.57962,61.58285 5.16741,4.4852 12.54529,10.9023 16.39529,14.2602 3.85,3.358 14.65,12.4023 24,20.0986 9.35,7.6963 21.275,17.6201 26.5,22.0528 5.225,4.4327 14.1619,11.5186 19.85979,15.7465 5.69788,4.2278 17.01561,12.9405 25.15051,19.3615 8.13489,6.4211 16.52666,12.7705 18.64836,14.1099 2.12171,1.3394 7.25959,5.1386 11.41752,8.4428 4.15793,3.3042 8.62365,6.5769 9.92382,7.2727 1.30017,0.6958 5.68654,3.9055 9.74749,7.1326 4.06094,3.2271 7.7628,5.8674 8.22635,5.8674 0.46355,0 3.24657,1.9529 6.18449,4.3399 2.93792,2.3869 6.46667,4.9318 7.84167,5.6554 1.375,0.7236 4.3,2.7443 6.5,4.4905 2.2,1.7462 5.40925,4.0387 7.13166,5.0945 1.72242,1.0559 6.36586,4.1697 10.31877,6.9197 7.84945,5.4608 13.97761,9.543 18.39511,12.2538 1.56505,0.9604 4.34754,2.8712 6.18332,4.2462 1.83578,1.375 5.64779,3.85 8.47114,5.5 2.82335,1.65 6.64835,4.125 8.5,5.5 1.85165,1.375 5.69027,3.85 8.53027,5.5 2.83999,1.65 6.3575,3.9162 7.81668,5.036 2.599,1.9945 19.10644,12.215 25.44592,15.7548 1.76392,0.9849 6.35713,3.7579 10.20713,6.1622 6.76162,4.2227 41.12852,24.348 56.5,33.0865 8.11891,4.6156 29.37026,16.105 43,23.2478 11.30265,5.9232 59.88017,30.2127 60.42366,30.2127 0.2351,0 7.77346,3.4154 16.7519,7.5898 15.35183,7.1376 55.48084,24.4542 69.14834,29.8391 28.2942,11.1478 37.0231,14.3271 67.6761,24.6495 25.5318,8.5979 28.9141,9.692 41,13.2635 18.79,5.5525 24.4274,7.1002 42,11.5309 35.8625,9.0421 70.122,15.499 107,20.1662 31.4804,3.984 84.759,5.1209 113.2353,2.4161 z M 1335.5,1339.9042 c -72.5499,-4.9051 -161.1779,-27.882 -255.5,-66.2388 -17.0251,-6.9233 -27.3743,-11.3869 -56,-24.1526 -24.40065,-10.8815 -92.53073,-45.5229 -112.17976,-57.0389 -3.26007,-1.9106 -6.10233,-3.4739 -6.31614,-3.4739 -0.21381,0 -5.39066,-2.925 -11.5041,-6.5 -6.11344,-3.575 -11.4494,-6.5 -11.85768,-6.5 -0.40827,0 -1.28452,-0.5422 -1.94721,-1.2049 -0.66268,-0.6627 -3.65546,-2.5752 -6.65061,-4.25 -8.15751,-4.5615 -23.21009,-13.4533 -28.69924,-16.9531 -2.66725,-1.7006 -6.98608,-4.393 -9.5974,-5.9832 -2.61132,-1.5902 -6.43536,-3.9527 -8.49786,-5.25 -2.0625,-1.2973 -5.4375,-3.41 -7.5,-4.6948 -2.0625,-1.2848 -6.9,-4.3673 -10.75,-6.8499 -3.85,-2.4827 -9.925,-6.373 -13.5,-8.6452 -3.575,-2.2722 -7.85,-5.0708 -9.5,-6.2192 -1.65,-1.1483 -4.53325,-3.0693 -6.40722,-4.2688 -1.87397,-1.1995 -5.06334,-3.3059 -7.08748,-4.6809 -2.02415,-1.375 -5.8909,-3.9554 -8.59278,-5.7343 -2.70189,-1.7788 -5.98523,-4.1609 -7.29632,-5.2935 -1.31109,-1.1326 -3.78609,-2.777 -5.5,-3.6544 -1.71391,-0.8773 -4.50695,-2.7702 -6.20676,-4.2065 -1.69981,-1.4362 -5.07481,-3.8603 -7.5,-5.3868 -2.42519,-1.5265 -7.78444,-5.2273 -11.90944,-8.2239 -4.125,-2.9966 -10.80213,-7.6983 -14.83807,-10.4482 -4.03594,-2.7499 -8.88385,-6.3571 -10.77314,-8.0159 -1.88929,-1.6588 -7.37178,-5.6631 -12.18332,-8.8983 -4.81153,-3.2353 -9.37691,-6.6398 -10.14528,-7.5657 -0.76837,-0.9258 -9.45926,-7.5665 -19.31308,-14.757 -22.80115,-16.6385 -39.33312,-29.84433 -61.3927,-49.04069 -9.65421,-8.40115 -18.2959,-15.68674 -19.20376,-16.19021 C 576.24279,959.08113 571,954.71533 565.5,949.88282 c -5.5,-4.83251 -13.49022,-11.84558 -17.75604,-15.5846 -42.03425,-36.8433 -86.81247,-79.70859 -125.59928,-120.23367 -9.70457,-10.13949 -18.7498,-19.58949 -20.10051,-21 -2.91022,-3.03906 -35.27717,-39.03919 -39.56909,-44.01071 -1.6363,-1.89539 -4.57357,-5.27039 -6.52728,-7.5 C 344.65314,728.66416 319.31065,698.08189 311,687.3127 309.625,685.53093 304.91524,679.44417 300.53387,673.78656 263.18371,625.5568 227.58197,572.45714 201.7826,526.5 c -8.91809,-15.88604 -10.73013,-19.33351 -21.55015,-41 -46.17991,-92.47268 -65.35784,-175.63682 -55.63096,-241.24081 4.8302,-32.57773 20.60742,-66.65837 39.50907,-85.34418 23.26068,-22.99505 42.45354,-34.61915 74.02377,-44.83227 C 279.78887,100.6073 335.11262,97.424557 396,105.00082 c 69.88604,8.69596 164.57877,36.54608 248.86738,73.19447 46.88671,20.38618 113.93238,53.52553 144.31238,71.33076 3.26007,1.91067 6.10233,3.47395 6.31614,3.47395 0.21381,0 5.39066,2.925 11.5041,6.5 6.11344,3.575 11.4494,6.5 11.85768,6.5 0.40827,0 1.28452,0.5422 1.94721,1.20489 0.66268,0.66268 3.65546,2.57518 6.65061,4.25 8.15751,4.56147 23.21009,13.45327 28.69924,16.95309 2.66725,1.70061 6.98608,4.39306 9.5974,5.98323 2.61132,1.59016 6.54786,4.03062 8.74786,5.42325 2.2,1.39262 5.575,3.50528 7.5,4.69479 1.925,1.18952 6.65,4.19401 10.5,6.67666 3.85,2.48265 9.925,6.37298 13.5,8.64518 6.37826,4.05391 8.98907,5.79325 16,10.65937 1.925,1.33609 5.075,3.36787 7,4.51505 1.925,1.14719 6.2,4.07529 9.5,6.50689 3.3,2.4316 8.025,5.64536 10.5,7.14169 2.475,1.49633 5.89075,3.87379 7.59056,5.28325 1.69981,1.40946 5.07481,3.81164 7.5,5.33817 2.42519,1.52652 7.78444,5.22726 11.90944,8.22385 4.125,2.99659 10.80213,7.6983 14.83807,10.44823 4.03594,2.74993 8.88385,6.35709 10.77313,8.01591 1.8893,1.65882 7.3718,5.66307 12.1833,8.89834 4.8116,3.23527 9.3769,6.6398 10.1453,7.56564 0.7684,0.92583 9.4593,7.56651 19.3131,14.75706 22.8011,16.63851 39.3331,29.84429 61.3927,49.04065 9.6542,8.40115 18.2959,15.69447 19.2037,16.2074 0.9079,0.51292 5.9257,4.68093 11.1507,9.26223 5.225,4.58131 13.2231,11.58664 17.7735,15.56741 4.5504,3.98078 10.8504,9.56574 14,12.41104 18.9005,17.07454 32.1732,29.23841 35.2551,32.30998 1.9407,1.93421 12.0657,11.68606 22.5,21.67078 54.731,52.37291 112.0223,114.50808 155.2097,168.3323 5.0811,6.33252 10.5142,13.08867 12.0736,15.01367 22.9395,28.31751 60.0803,80.86311 82.6991,117 47.9063,76.53742 82.172,153.8802 95.4743,215.5 5.577,25.8341 6.8758,34.3152 8.1164,53 2.9529,44.4746 -4.3119,84.013 -20.487,111.5 -2.4274,4.125 -6.0592,10.3186 -8.0706,13.7636 -3.6991,6.3353 -16.0475,19.382 -27.0441,28.5734 -28.9869,24.2283 -74.6134,40.2777 -124,43.6176 -17.1533,1.1601 -45.4311,1.1375 -63,-0.05 z m 48.5,-80.3506 c 37.4319,-5.9773 64.6293,-18.2173 85.2506,-38.3665 10.3234,-10.087 17.2547,-19.7584 23.2588,-32.4535 21.9519,-46.4157 16.1228,-112.1565 -17.1336,-193.2336 -7.552,-18.41127 -29.8475,-62.75788 -41.9801,-83.5 C 1325.6762,727.84088 1121.7245,524.79118 889.5,370.50982 821.3251,325.21694 767.77065,293.97393 702,261.12461 589.52593,204.94916 492.63487,172.59048 406.10318,162.30405 c -20.82401,-2.47545 -66.113,-2.46854 -82.10318,0.0125 -40.51128,6.28581 -67.89049,18.4507 -89.12015,39.59709 -8.00662,7.97522 -16.82977,20.03861 -21.66532,29.62174 -3.39618,6.73059 -9.03291,23.91339 -10.66218,32.50219 C 176.34705,402.18071 325.95376,643.30871 577,867.55205 c 238.09988,212.67915 520.5049,367.25215 715,391.35165 23.5731,2.9209 22.7601,2.8815 53.5,2.5911 20.2423,-0.1913 30.9091,-0.7291 38.5,-1.9412 z"
       id="path835"
       inkscape:connector-curvature="0" />
    <path
       style="fill:#c6c1ae"
       d="m 1359.8816,1452.2707 c -0.065,-0.4239 -0.088,-1.04 -0.05,-1.3692 0.037,-0.3292 -5.6671,-0.8888 -12.6765,-1.2436 -23.1877,-1.1736 -62.8714,-6.0534 -91.6546,-11.2707 -4.95,-0.8972 -20.025,-4.0836 -33.5,-7.0808 -39.5152,-8.7891 -63.6131,-15.3596 -102.5,-27.9475 -17.4825,-5.6591 -45.9059,-15.5503 -47,-16.3558 -0.55,-0.4048 -4.825,-1.9813 -9.5,-3.5031 -4.675,-1.5218 -8.95,-3.0836 -9.5,-3.4706 -0.55,-0.387 -3.925,-1.7502 -7.5,-3.0294 -3.575,-1.2792 -6.95,-2.6438 -7.5,-3.0326 -0.55,-0.3887 -2.731,-1.2647 -4.8467,-1.9465 -2.1156,-0.6819 -5.0406,-1.8628 -6.5,-2.6242 -1.4593,-0.7614 -3.0353,-1.3872 -3.5022,-1.3905 -0.4668,0 -2.2668,-0.6487 -4,-1.4339 C 1011.587,1362.9186 1007.059,1361 1006.5,1361 c -0.3354,0 -2.7225,-0.96 -5.3049,-2.1334 -4.14341,-1.8827 -11.73013,-5.2499 -17.6951,-7.8536 -3.43032,-1.4973 -15.80939,-7.0698 -20,-9.003 -19.35524,-8.9291 -67.34578,-32.6652 -85.68501,-42.3797 -18.0024,-9.5361 -24.11754,-12.8395 -27.22165,-14.705 -1.70134,-1.0225 -5.34334,-3.025 -8.09334,-4.4501 -2.75,-1.4251 -6.35,-3.439 -8,-4.4752 -1.65,-1.0362 -5.25,-3.0512 -8,-4.4776 -2.75,-1.4265 -6.35,-3.4785 -8,-4.5601 -1.65,-1.0815 -4.35,-2.6549 -6,-3.4962 -1.65,-0.8414 -4.35,-2.4164 -6,-3.5 -1.65,-1.0837 -4.35,-2.6587 -6,-3.5 -1.65,-0.8414 -4.35,-2.4028 -6,-3.4698 -1.65,-1.0669 -4.575,-2.8642 -6.5,-3.9938 -1.925,-1.1296 -4.9625,-2.9423 -6.75,-4.0282 -1.7875,-1.0859 -4.7125,-2.8627 -6.5,-3.9486 -1.7875,-1.0859 -4.90697,-2.8795 -6.93215,-3.9857 -2.02518,-1.1063 -3.94663,-2.4394 -4.26988,-2.9624 -0.32325,-0.523 -1.81628,-1.5931 -3.31785,-2.3779 -5.53426,-2.8925 -7.83005,-4.2511 -10.89857,-6.4497 -1.72716,-1.2375 -3.57822,-2.25 -4.11348,-2.25 -0.53525,0 -1.5639,-0.7118 -2.28589,-1.5817 -0.72199,-0.87 -2.71228,-2.3325 -4.42286,-3.25 -5.24793,-2.815 -9.53821,-5.5424 -13.24237,-8.4183 -1.94808,-1.5125 -4.04258,-2.7683 -4.65445,-2.7906 -0.61188,-0.022 -2.6705,-1.3724 -4.57473,-3 -1.90422,-1.6277 -3.90022,-2.9594 -4.43554,-2.9594 -0.53533,0 -1.90233,-0.8572 -3.03778,-1.9048 -1.13545,-1.0476 -3.48493,-2.7351 -5.22108,-3.75 -1.73615,-1.0149 -6.4019,-4.0952 -10.36834,-6.8452 -3.96644,-2.75 -8.62095,-5.8638 -10.34337,-6.9197 -1.72241,-1.0558 -5.00739,-3.4183 -7.29996,-5.25 -2.29256,-1.8316 -4.51455,-3.3303 -4.93776,-3.3303 -0.42321,0 -3.27248,-1.9473 -6.3317,-4.3273 -3.05923,-2.38 -6.23897,-4.5734 -7.06609,-4.8742 -0.82711,-0.3007 -3.97711,-2.5564 -7,-5.0125 -3.02288,-2.4562 -6.62115,-5.0618 -7.99615,-5.7904 -1.375,-0.7286 -5.425,-3.6132 -9,-6.4102 -3.575,-2.797 -7.61338,-5.7147 -8.97417,-6.4839 -1.3608,-0.7691 -6.5358,-4.6458 -11.5,-8.6148 -4.96421,-3.969 -10.02012,-7.7333 -11.23536,-8.365 -2.40678,-1.2513 -92.71714,-73.5583 -103.29047,-82.6995 -19.25669,-16.6486 -26.8893,-23.3931 -43.38284,-38.3349 C 437.60421,986.67491 414.81463,965.52952 405.48517,956.5 380.4999,932.31801 352.16185,903.61665 326.5,876.5022 c -2.06921,-2.18634 -19.57088,-21.4102 -24.94831,-27.40326 -1.67843,-1.87058 -5.37823,-5.92058 -8.22177,-9 -2.84355,-3.07942 -6.44811,-7.21249 -8.01013,-9.1846 -1.56202,-1.97212 -4.02665,-4.89712 -5.47695,-6.5 -4.86793,-5.3801 -17.3959,-19.88371 -19.88152,-23.0168 -1.35373,-1.70636 -5.16132,-6.37922 -8.46132,-10.38415 -3.3,-4.00492 -7.35,-8.96095 -9,-11.01339 -1.65,-2.05244 -5.7,-7.00486 -9,-11.00538 -3.3,-4.00053 -7.8,-9.62278 -10,-12.4939 -2.2,-2.87112 -6.7,-8.71762 -10,-12.99222 -19.34783,-25.06189 -52.02464,-71.21028 -66.98324,-94.59822 -0.55922,-0.87435 -3.07703,-4.69935 -5.59514,-8.5 C 118.61697,606.7452 80.502109,537.75455 65.007373,503 41.867662,451.09784 31.338325,422.55362 19.63537,380 11.48173,350.3522 3.0218203,302.40527 3.0055999,285.75 3.0016416,281.68562 2.6335612,280.07329 1.75,280.25 0.78030303,280.44394 0.5,275.56667 0.5,258.5 c 0,-17.06667 0.28030303,-21.94394 1.25,-21.75 0.8424974,0.1685 1.2517665,-1.13551 1.2554186,-4 0.00841,-6.59697 3.7911746,-31.10761 6.5976723,-42.75 2.9696761,-12.31932 7.3101001,-27.07557 8.3830291,-28.5 0.414279,-0.55 1.315019,-2.8 2.001645,-5 1.494048,-4.78704 3.045618,-8.39927 8.161112,-19 C 31.617844,130.31134 34.117938,125.76737 40.5,115.05162 43.463332,110.07606 61.755823,87.115345 66.439623,82.492232 72.980074,76.036523 86.030343,64.663348 92.357494,59.905073 114.73608,43.075466 147.92234,26.67419 175,19.061579 c 4.125,-1.159702 9.75,-2.795743 12.5,-3.635647 14.07158,-4.297736 53.18606,-10.7662303 73.2008,-12.1054666 5.86419,-0.3923871 9.12799,-1.0154308 9,-1.718057 C 269.55834,0.82028738 277.78023,0.5 298,0.5 c 22.26667,0 28.44532,0.27339181 28.25,1.25 C 326.07132,2.6434224 327.78438,3 332.25522,3 339.68251,3 371.6237,6.2170998 392,9.0174623 436.24285,15.097862 495.53172,28.638929 540.5,42.933586 c 3.3,1.049014 11.4,3.591905 18,5.650869 14.78517,4.612445 47.57689,15.990053 53,18.389192 2.2,0.973262 7.15,2.787243 11,4.031068 3.85,1.243825 7.45,2.578307 8,2.965514 0.55,0.387207 3.925,1.750604 7.5,3.029771 3.575,1.279167 6.95,2.647387 7.5,3.04049 0.55,0.393103 2.125,1.048426 3.5,1.456274 2.35111,0.697379 7.42361,2.800835 14.65113,6.075509 1.73312,0.78525 3.44531,1.427727 3.80486,1.427727 0.56508,0 4.28999,1.546377 12.04401,5 1.1,0.489938 4.25,1.839938 7,3 7.00742,2.956017 16.01901,6.95243 27,11.97381 17.41156,7.96196 72.5044,35.22046 90,44.52966 5.5,2.92649 13.15,6.96593 17,8.97655 3.85,2.01062 8.35,4.49906 10,5.52987 1.65,1.0308 5.25,3.04018 8,4.46528 2.75,1.4251 6.575,3.53029 8.5,4.6782 1.925,1.1479 5.525,3.18759 8,4.53263 2.475,1.34505 6.3,3.54872 8.5,4.89706 2.2,1.34834 4.9,2.91307 6,3.47717 1.1,0.56411 2.9,1.58437 4,2.26725 1.1,0.68288 3.8,2.24927 6,3.48086 2.2,1.23159 5.8,3.36132 8,4.73275 2.2,1.37142 4.96879,2.90796 6.15286,3.41452 1.18407,0.50656 2.45235,1.4056 2.81838,1.99786 0.36604,0.59226 2.09725,1.74408 3.84714,2.55959 1.74989,0.81552 4.53162,2.37102 6.18162,3.45667 1.65,1.08564 4.575,2.8913 6.5,4.01256 5.16972,3.01122 7.15287,4.26705 10.68328,6.7652 1.7508,1.23888 3.46833,2.25251 3.81672,2.25251 0.34839,0 2.10839,1.125 3.91111,2.5 1.80272,1.375 3.60272,2.5 4,2.5 0.39728,0 2.19728,1.125 4,2.5 1.80272,1.375 3.7426,2.5 4.31084,2.5 0.56824,0 1.65076,0.74471 2.40561,1.6549 0.75484,0.9102 2.72244,2.2798 4.37244,3.04355 1.65,0.76376 4.575,2.48028 6.5,3.8145 1.925,1.33422 4.85,3.34716 6.5,4.47321 1.65,1.12604 5.25,3.61723 8,5.53598 2.75,1.91875 5.675,3.78598 6.5,4.14939 0.825,0.36342 3.13976,1.93599 5.1439,3.49461 2.00415,1.55862 4.02915,2.83864 4.5,2.84449 0.47086,0.006 3.1061,1.80106 5.8561,3.98937 2.75,2.18831 5.35074,3.98353 5.77942,3.98937 0.42868,0.006 3.05658,1.81063 5.83978,4.01063 2.7832,2.2 5.3913,4 5.7958,4 0.4045,0 3.2902,1.9125 6.4127,4.25 3.1224,2.3375 8.8679,6.5 12.7675,9.25 3.8997,2.75 10.7611,7.70733 15.2476,11.01629 4.4865,3.30895 9.5072,6.87082 11.1572,7.91525 1.65,1.04443 6.15,4.45416 10,7.57718 3.85,3.12301 8.975,6.91872 11.3888,8.4349 4.3969,2.76177 92.8851,73.60137 105.1112,84.14718 24.3623,21.01411 35.1707,30.52653 43,37.84428 2.475,2.31328 12.15,11.20324 21.5,19.75547 18.5401,16.95815 23.4115,21.61694 49.3524,47.19784 16.3188,16.09232 44.5428,45.17237 61.2242,63.08119 4.0829,4.38328 10.3705,11.13328 13.9724,15 7.6857,8.25063 20.3406,22.54577 24.3717,27.53042 1.5567,1.925 5.5864,6.61867 8.9549,10.43038 10.4444,11.81884 13.1587,14.96385 15.6831,18.17208 1.3427,1.70636 5.1413,6.37922 8.4413,10.38415 3.3,4.00492 7.35,8.96552 9,11.02355 11.0238,13.74985 19.3467,24.11321 22.479,27.98984 1.9998,2.475 5.7757,7.425 8.391,11 2.6153,3.575 7.6486,10.325 11.1852,15 15.4194,20.38325 41.4788,57.6659 53.9074,77.12423 0.5706,0.89332 2.799,4.26832 4.9521,7.5 11.5033,17.266 47.2859,79.03518 57.2784,98.87577 15.7172,31.20754 26.6092,54.85571 35.4649,77 9.4555,23.6441 11.0637,28.0154 17.294,47.0081 3.607,10.9955 7.0634,21.5331 7.681,23.4167 8.1266,24.7866 19.1414,82.4644 20.5821,107.7759 0.3761,6.6066 0.969,10.13 1.6828,10 0.7652,-0.1394 1.1021,4.6895 1.1021,15.7993 0,12.2667 -0.2917,15.9417 -1.25,15.75 -0.8956,-0.1791 -1.25,1.5601 -1.25,6.1336 0,8.6907 -3.5517,34.7135 -6.5585,48.0533 -2.4165,10.7209 -9.7796,34.0546 -13.0531,41.3656 -2.6936,6.0159 -12.3153,25.5321 -13.6531,27.6932 -0.6794,1.0976 -2.1353,3.3413 -3.2353,4.9859 -1.1,1.6447 -2.52,3.9786 -3.1556,5.1866 -0.6355,1.208 -5.6325,7.7483 -11.1043,14.5341 -8.7168,10.8098 -19.0038,21.2006 -32.7401,33.0703 -10.5665,9.1307 -45.8578,29.7414 -60.1082,35.1041 -2.1405,0.8055 -6.8168,2.5629 -10.3918,3.9052 -3.575,1.3424 -8.3,3.14 -10.5,3.9947 -4.6568,1.8093 -26.8454,7.8613 -37,10.0919 -19.4656,4.276 -53.8273,8.6315 -68.0954,8.6315 -6.1903,0 -8.3387,0.3293 -8.1546,1.25 0.192,0.9601 -4.4471,1.3128 -20,1.5207 -11.1375,0.1489 -20.3033,-0.076 -20.3684,-0.5 z M 1425,1419.4957 c 28.9543,-2.766 45.9286,-5.7662 70,-12.3725 32.538,-8.9299 64.9204,-25.6352 89.6176,-46.2318 8.521,-7.1062 29.1972,-28.8008 31.4142,-32.9615 0.7122,-1.3364 3.0213,-4.7208 5.1315,-7.5208 2.1102,-2.7999 3.8367,-5.3675 3.8367,-5.7056 0,-0.3381 1.162,-2.3222 2.5823,-4.4091 2.1193,-3.1142 6.8391,-12.4888 12.483,-24.7944 2.1083,-4.5969 8.0753,-22.1372 9.9646,-29.2919 8.4963,-32.1739 10.8012,-73.3643 6.3908,-114.2081 -1.4847,-13.7494 -1.7247,-15.5739 -3.5528,-27 -2.451,-15.3189 -10.1706,-49.093 -13.3712,-58.5 -0.7485,-2.2 -2.1317,-6.7 -3.0738,-10 -3.4292,-12.0116 -8.7367,-27.1976 -18.1742,-52 -1.0464,-2.75 -3.1477,-7.925 -4.6696,-11.5 -1.5218,-3.575 -3.9106,-9.2 -5.3083,-12.5 -5.5491,-13.10117 -21.7904,-46.99528 -31.1466,-65 -11.427,-21.98971 -35.9471,-63.88987 -48.5718,-83 -3.9968,-6.05 -10.2445,-15.5 -13.8837,-21 -16.917,-25.56668 -45.9672,-65.99322 -60.7796,-84.58145 -1.9365,-2.4302 -6.3428,-8.01855 -9.7916,-12.41855 -39.4829,-50.37152 -91.9026,-109.05064 -144.6594,-161.93317 -15.0695,-15.10534 -50.9432,-49.37602 -63.3999,-60.56683 -3.9794,-3.575 -8.8979,-8.075 -10.9298,-10 -2.032,-1.925 -8.3694,-7.55 -14.0832,-12.5 -5.7138,-4.95 -12.8944,-11.27224 -15.9569,-14.04941 -3.0626,-2.77718 -8.0433,-7.05218 -11.0683,-9.5 -3.025,-2.44783 -5.6569,-4.80872 -5.8486,-5.24643 -0.1918,-0.43772 -7.1668,-6.25611 -15.5,-12.92977 -8.3333,-6.67366 -18.5264,-15.11821 -22.6514,-18.76566 -9.7872,-8.65417 -25.6355,-21.35091 -34.7651,-27.85183 -3.9958,-2.84529 -13.6708,-10.27337 -21.5,-16.50684 -7.8292,-6.23347 -15.3599,-11.92516 -16.7349,-12.6482 -1.375,-0.72304 -5.65,-3.86988 -9.5,-6.99299 -3.85,-3.1231 -8.35,-6.5215 -10,-7.552 -1.65,-1.03049 -6.4148,-4.47986 -10.5885,-7.66525 -4.1736,-3.18539 -7.9165,-5.79162 -8.3174,-5.79162 -0.401,0 -3.2844,-2.08163 -6.4077,-4.62584 -3.1233,-2.54422 -6.3554,-4.87192 -7.1826,-5.17269 -0.8271,-0.30076 -4.0068,-2.49413 -7.066,-4.87416 -3.0593,-2.38002 -5.9085,-4.32731 -6.3317,-4.32731 -0.4232,0 -2.69159,-1.575 -5.0408,-3.5 -2.3492,-1.925 -4.67494,-3.50478 -5.16829,-3.51063 C 990.90365,287.98353 988.25,286.18831 985.5,284 c -2.75,-2.18831 -5.45,-4.00181 -6,-4.03001 -0.55,-0.0282 -2.558,-1.38298 -4.46223,-3.01063 C 973.13355,275.33171 971.17331,274 970.68168,274 c -0.49163,0 -2.59839,-1.35 -4.68168,-3 -2.08329,-1.65 -4.10829,-3 -4.5,-3 -0.39171,0 -2.41671,-1.35 -4.5,-3 -2.08329,-1.65 -4.13058,-3 -4.54951,-3 -0.41894,0 -2.23666,-1.125 -4.03938,-2.5 -1.80272,-1.375 -3.58043,-2.5 -3.95048,-2.5 -0.37005,0 -2.31258,-1.27524 -4.31673,-2.83386 -2.00414,-1.55862 -4.3189,-3.14091 -5.1439,-3.5162 -0.825,-0.37529 -3.525,-2.00982 -6,-3.63228 -2.475,-1.62247 -6.075,-3.86989 -8,-4.99427 -4.51706,-2.63839 -6.80456,-4.06296 -10.47496,-6.52339 -4.42977,-2.96946 -6.67574,-4.28054 -10.20666,-5.9581 -1.74989,-0.83138 -3.4811,-1.99617 -3.84714,-2.58843 -0.36603,-0.59226 -1.63431,-1.4913 -2.81838,-1.99786 -1.18407,-0.50656 -3.95286,-2.04902 -6.15286,-3.42767 -2.2,-1.37866 -4.9,-2.95366 -6,-3.5 -1.1,-0.54635 -3.8,-2.11543 -6,-3.48685 -2.2,-1.37143 -5.8,-3.50116 -8,-4.73275 -2.2,-1.23159 -4.76396,-2.7048 -5.69769,-3.2738 -0.93373,-0.569 -4.08373,-2.3245 -7,-3.90111 -2.91627,-1.57661 -5.88367,-3.33486 -6.59422,-3.90723 -0.71055,-0.57236 -3.41055,-2.15425 -6,-3.51531 -6.08208,-3.19685 -12.22884,-6.53448 -19.70809,-10.7013 -19.10956,-10.64627 -57.05476,-30.07531 -79.24315,-40.57481 -5.91627,-2.79956 -13.45685,-6.37141 -16.75685,-7.93745 -3.3,-1.56603 -9.15,-4.26364 -13,-5.99468 -3.85,-1.73104 -8.8,-3.98911 -11,-5.01794 -2.2,-1.02883 -6.25,-2.82085 -9,-3.98226 -2.75,-1.16141 -5.9,-2.51251 -7,-3.00245 -1.1,-0.48994 -4.25,-1.83994 -7,-3 -2.75,-1.16006 -5.9,-2.51006 -7,-3 -6.47641,-2.88458 -11.30487,-4.85173 -13.5,-5.5 -1.375,-0.40607 -4.3,-1.53056 -6.5,-2.49887 -2.2,-0.96831 -8.275,-3.42549 -13.5,-5.460401 -5.225,-2.034912 -10.85,-4.28198 -12.5,-4.993486 -5.21582,-2.24914 -60.44017,-21.149381 -74,-25.326106 C 519.33227,58.004749 486.22485,49.576762 456,43.65563 399.25627,32.539372 371.19568,29.595599 321.5,29.545542 287.68659,29.511482 273.59723,30.401111 250,34.060187 198.39693,42.061954 156.49841,58.813341 122.5,85.035782 113.28996,92.139342 90.844015,115.03383 86.259978,122 c -1.990579,3.025 -4.888401,7.06503 -6.439606,8.97784 C 78.269167,132.89066 77,134.78317 77,135.18343 c 0,0.40027 -1.0125,2.22336 -2.25,4.05132 -3.360671,4.96418 -14.75,28.36771 -14.75,30.30926 0,0.35955 -0.634965,2.07174 -1.411034,3.80486 -8.357679,18.66441 -15.57387,60.94853 -15.584907,91.32158 -0.01051,28.93393 4.233927,66.90955 10.487097,93.82955 4.441206,19.11947 7.913829,32.48364 11.434094,44.00339 6.045394,19.783 6.941417,22.55377 9.215363,28.49661 1.157474,3.025 3.118097,8.2 4.356941,11.5 10.610027,28.26272 17.871871,44.86824 34.766546,79.5 22.00858,45.11458 65.11477,116.54695 96.25099,159.5 3.5882,4.95 9.46021,13.05 13.0489,18 3.58868,4.95 9.09239,12.41156 12.23045,16.58124 5.19362,6.901 8.40374,11.07653 22.20556,28.88365 6.74454,8.7018 19.92432,24.99261 23.949,29.60204 1.95305,2.23681 6.251,7.38831 9.551,11.44778 6.3424,7.80206 31.53682,36.72257 44.37068,50.93283 35.98435,39.84355 90.90492,94.91265 131.12932,131.48393 10.175,9.25092 20.78714,18.90081 23.58252,21.44419 2.79539,2.54339 9.32039,8.29408 14.5,12.77934 5.17962,4.4852 12.56748,10.9023 16.41748,14.2602 3.85,3.358 14.65,12.4023 24,20.0986 9.35,7.6963 21.275,17.6201 26.5,22.0528 5.225,4.4327 14.1619,11.5186 19.85979,15.7465 5.69788,4.2278 17.01561,12.9405 25.15051,19.3615 8.13489,6.4211 16.52666,12.7705 18.64836,14.1099 2.12171,1.3394 7.25959,5.1386 11.41752,8.4428 4.15793,3.3042 8.65426,6.5913 9.99184,7.3047 1.33759,0.7134 5.35698,3.6277 8.93198,6.4762 3.575,2.8484 7.17673,5.4178 8.00385,5.7096 0.82711,0.2918 4.05926,2.6121 7.18255,5.1564 3.12329,2.5442 6.01855,4.6258 6.43392,4.6258 0.41536,0 3.33271,2.025 6.48299,4.5 3.15028,2.475 6.10329,4.5048 6.56224,4.5106 0.45895,0.01 3.08445,1.8011 5.83445,3.9894 2.75,2.1883 5.37427,3.9835 5.8317,3.9894 0.45744,0.01 2.75379,1.5856 5.103,3.5106 2.3492,1.925 4.69194,3.5 5.20607,3.5 0.51413,0 2.49278,1.3317 4.397,2.9594 1.90423,1.6276 3.91223,2.982 4.46223,3.0097 0.55,0.028 2.88314,1.5084 5.18475,3.2906 2.30161,1.7822 6.49411,4.5903 9.31668,6.2403 2.82256,1.65 6.64692,4.125 8.49857,5.5 1.85165,1.375 5.69027,3.85 8.53027,5.5 2.83999,1.65 6.35917,3.9 7.82039,5 2.54059,1.9126 5.2802,3.593 9.66341,5.9274 1.10775,0.5899 3.42721,2.0851 5.15438,3.3226 1.72716,1.2375 3.57822,2.25 4.11348,2.25 0.53525,0 1.55496,0.701 2.26602,1.5578 0.71106,0.8568 2.67866,2.2058 4.37244,2.9979 1.69379,0.7921 4.42961,2.3284 6.07961,3.414 1.65,1.0857 4.575,2.8973 6.5,4.0259 1.925,1.1286 5.3,3.1741 7.5,4.5455 2.2,1.3714 4.9,2.9405 6,3.4868 1.1,0.5464 3.8,2.1214 6,3.5 2.2,1.3787 4.9,2.9537 6,3.5 1.1,0.5464 3.8,2.1214 6,3.5 2.2,1.3787 4.9,2.9545 6,3.5018 1.1,0.5474 3.575,1.9437 5.5,3.103 1.925,1.1593 5.65624,3.2912 8.29164,4.7375 2.6354,1.4464 7.3604,4.0723 10.5,5.8353 3.1396,1.763 7.50836,4.126 9.70836,5.251 2.2,1.1251 7.6,4.0326 12,6.461 4.4,2.4285 13.85,7.3993 21,11.0461 7.15,3.6469 13.675,7.043 14.5,7.5469 2.11953,1.2945 46.80629,22.9895 47.35318,22.9895 0.24785,0 4.43227,1.843 9.29872,4.0956 14.96671,6.9279 19.7075,9.0485 28.8481,12.9044 2.75,1.1601 5.9,2.5101 7,3 5.0051,2.2293 11.5244,5.0079 17.5,7.4588 3.575,1.4664 7.918,3.313 9.6511,4.1036 1.7332,0.7907 3.5332,1.4404 4,1.4438 0.4669,0 2.0356,0.6253 3.4861,1.3821 1.4504,0.7568 5.0504,2.1636 8,3.1262 2.9495,0.9626 5.8128,2.0836 6.3628,2.4911 0.55,0.4075 5.95,2.4489 12,4.5364 6.05,2.0875 11.45,4.1241 12,4.5258 0.9066,0.6621 46.6907,16.0204 57.5,19.2883 57.7869,17.4707 106.2132,28.0995 158,34.6783 31.0863,3.9491 88.7321,5.1618 117,2.4613 z m -80.5,-81.1095 c -50.7698,-3.2406 -107.5799,-14.1469 -164.5,-31.5805 -10.725,-3.2849 -21.075,-6.4319 -23,-6.9932 -14.4267,-4.2073 -74.6128,-27.2006 -101,-38.5858 -40.4441,-17.4503 -90.53798,-41.8926 -128.50836,-62.703 -29.56934,-16.2061 -56.94163,-31.9878 -81.99164,-47.2729 -17.03865,-10.3967 -18.04323,-11.0283 -43.46189,-27.3255 -9.69662,-6.2169 -41.15276,-27.24 -51.53811,-34.4444 -13.49122,-9.359 -17.29607,-12.0232 -24.61831,-17.2381 -4.05993,-2.8915 -11.0095,-7.8415 -15.44348,-11 -4.43399,-3.1586 -11.40899,-8.253 -15.5,-11.321 -4.09102,-3.068 -9.55201,-7.118 -12.13553,-9 -20.712,-15.0877 -60.06664,-45.92431 -77.80268,-60.9628 -11.825,-10.02649 -23.075,-19.38695 -25,-20.80102 -1.925,-1.41407 -6.20915,-5.0656 -9.52034,-8.11451 C 567.16847,947.99456 559.75359,941.45 554.00214,936.5 543.07717,927.0974 533.98411,919.02542 525.45211,911.15593 522.67576,908.59517 515.48089,902 509.46349,896.5 485.33705,874.44804 438.17112,827.99595 415.54201,804 410.09596,798.225 402.87225,790.575 399.48931,787 396.10638,783.425 385.66633,771.86781 376.2892,761.31736 223.82191,589.77249 133.91491,424.12986 124.92521,298.21 c -2.33359,-32.68699 1.8063,-65.05422 11.54651,-90.27482 8.18049,-21.18199 18.20236,-36.49548 33.59923,-51.33991 C 189.35557,138.0026 209.75669,125.9181 237,116.95018 c 30.24723,-9.95675 53.68302,-13.28863 94,-13.36405 29.85698,-0.0559 42.70104,0.76902 70,4.49556 129.15708,17.63103 291.05421,82.70655 454.5,182.68898 14.01424,8.57273 18.24534,11.22875 40.19102,25.22933 22.33992,14.2521 54.90533,36.29271 79.42729,53.75724 4.05993,2.89148 11.0095,7.84148 15.44348,11 4.43399,3.15852 11.40901,8.25296 15.50001,11.32098 4.091,3.06802 9.5416,7.11802 12.1123,9 22.5989,16.54387 60.1468,45.95484 77.5321,60.73038 11.6634,9.91256 22.9134,19.2787 25,20.81364 2.0866,1.53495 6.503,5.28538 9.8141,8.33429 3.3112,3.04891 10.7208,9.59347 16.4657,14.54347 32.0825,27.64328 65.649,59.04125 101.5184,94.95992 34.51,34.55745 49.407,50.24433 75.5349,79.54008 146.4492,164.20536 236.7613,326.4038 250.8384,450.5 4.9384,43.5339 -0.4143,83.5749 -15.3731,115 -14.3103,30.0628 -39.1681,54.3658 -71.5046,69.9089 -21.9337,10.5427 -44.8574,16.8781 -76.5,21.1422 -10.6441,1.4343 -54.4715,2.6347 -67,1.8351 z m 39.6541,-77.766 c 20.923,-3.4536 36.2619,-7.9676 51.7461,-15.228 75.9712,-35.6222 91.4014,-123.3599 42.8927,-243.8922 C 1409.5832,829.53087 1220.6876,612.99926 987.5,438.32937 783.20815,285.30393 569.58871,182.15798 416.5,162.62253 c -32.57946,-4.15743 -70.37712,-4.63136 -93.4992,-1.17238 -54.80321,8.19839 -91.49769,31.47702 -110.94826,70.38453 C 184.11021,287.7285 199.93281,378.9897 255.68555,483.5 386.41652,728.55938 706.12671,1017.1633 1013.5,1167.5827 c 109.0473,53.3645 208.1775,85.4478 290,93.8578 18.8052,1.9329 66.9403,1.4433 80.6541,-0.8203 z"
       id="path833"
       inkscape:connector-curvature="0" />
    <path
       style="fill:#c2bdac"
       d="m 1326,1312.403 c -1.925,-0.2185 -8.675,-0.8805 -15,-1.4713 -63.4883,-5.9301 -140.4778,-26.2515 -221.5,-58.465 C 808.38896,1140.7001 493.94531,897.37429 304.59446,645.08345 211.75403,521.38297 157.16771,406.24824 147.05114,312.78941 c -1.35236,-12.49332 -1.35357,-42.89887 -0.002,-53.81564 3.45693,-27.92494 11.49687,-50.36985 25.77423,-71.95326 6.24332,-9.43818 22.48363,-26.40797 31.64873,-33.07035 53.26574,-38.7204 135.57064,-47.88747 241.68862,-26.91912 106.20794,20.98612 229.38043,70.74461 358.83942,144.96183 119.08313,68.26887 238.09156,154.47485 345.95466,250.59875 119.4829,106.47902 219.2205,218.99609 290.382,327.58883 101.7874,155.32815 136.431,289.79525 96.1806,373.31955 -23.1638,48.0676 -69.4587,77.587 -136.5173,87.0489 -10.9124,1.5397 -65.8103,2.8968 -75,1.8541 z m 50.2011,-50.8873 c 73.4783,-8.5952 117.5276,-45.539 128.1945,-107.5157 13.7312,-79.7802 -33.0914,-200.69172 -128.4004,-331.57282 C 1163.6417,530.81731 771.74361,247.21081 481.5,175.10423 433.92736,163.28553 394.34338,158.33968 355,159.29858 c -24.38543,0.59434 -36.63924,2.08819 -55.38535,6.75197 -98.89838,24.60461 -126.95963,114.8607 -76.62285,246.44945 78.0831,204.12228 327.61401,470.09757 614.78472,655.2998 174.19628,112.3427 343.06128,182.1141 469.72348,194.0797 15.5364,1.4677 54.8225,1.2597 68.7011,-0.3638 z"
       id="path831"
       inkscape:connector-curvature="0" />
    <path
       style="fill:#b7b4a6"
       d="m 1331,1311.3148 c -108.0108,-6.19 -249.8092,-53.8932 -397,-133.557 C 672.13469,1036.0291 415.57334,810.06073 267.79782,590.99524 220.98782,521.60313 187.6825,457.03355 167.47619,396.5 133.20822,293.84087 142.15691,213.59334 193.23708,165.48896 c 20.30905,-19.12589 45.39434,-31.95866 77.98209,-39.89293 34.80256,-8.47352 68.92092,-10.25623 115.28083,-6.02351 196.56456,17.94663 478.19498,161.52425 722.5,368.33673 209.2392,177.1281 365.5867,377.48133 421.4898,540.12295 45.2615,131.6813 19.8925,227.2733 -70.434,265.3998 -33.9687,14.3381 -79.8863,20.7007 -129.0558,17.8828 z m 49.5,-49.7143 c 52.6766,-7.8112 87.0948,-27.528 108.0102,-61.8746 18.912,-31.0567 23.4926,-75.3587 13.0674,-126.3836 C 1465.3801,896.17794 1258.5076,640.5962 986.5,436.98694 837.29791,325.30284 684.78177,240.69443 550.1819,194.93925 426.86233,153.01864 328.78507,147.0252 266.35845,177.595 c -35.43102,17.35027 -58.59677,48.67219 -65.93267,89.14617 -2.17912,12.02276 -2.93468,37.23645 -1.54211,51.46189 10.65243,108.81731 94.94202,256.23493 233.84395,408.97951 C 607.76776,919.66681 847.27483,1096.0397 1063,1191.315 c 89.9897,39.744 176.4716,64.9621 242.2849,70.6502 6.7183,0.5806 13.7901,1.236 15.7151,1.4564 7.6903,0.8804 50.0186,-0.4152 59.5,-1.8211 z"
       id="path829"
       inkscape:connector-curvature="0" />
    <path
       style="fill:#a5a296"
       d="m 1329,1309.4134 c -1.925,-0.2159 -9.125,-0.8735 -16,-1.4615 -36.1404,-3.0906 -81.9275,-12.2766 -127.5,-25.5797 -151.6582,-44.2703 -325.65008,-136.8567 -494,-262.8723 C 607.90148,956.92355 539.6711,897.77981 465.44897,823.5534 423.93235,782.03438 400.20374,756.66162 370.20262,721.7075 256.19069,588.87288 180.72614,458.38426 156.97065,353 c -6.04773,-26.82897 -7.4321,-39.27535 -7.45218,-67 -0.0194,-26.72624 0.49551,-31.81354 5.11095,-50.5 21.70694,-87.88461 110.0596,-128.79653 243.87058,-112.92489 200.73086,23.80918 478.28726,168.55104 719.1684,375.0365 199.4982,171.01162 347.8371,360.25387 406.9597,519.17589 34.3444,92.318 34.6882,170.9791 0.9686,221.6015 -25.4142,38.1536 -66.7241,60.7159 -126.5967,69.1433 -10.8801,1.5314 -61.0866,2.8806 -70,1.8811 z m 52.5453,-46.797 c 23.4029,-3.5174 40.2833,-8.4601 57.2105,-16.7518 35.6297,-17.4529 57.5003,-46.0607 66.4081,-86.8646 2.0499,-9.3898 2.2916,-13.1433 2.2859,-35.5 -0.01,-27.2384 -1.0782,-36.1591 -7.5353,-62.7572 C 1488.4854,1013.6643 1462.9495,955.70777 1428.2093,898 1393.6711,840.62762 1343.3141,773.31146 1289.0827,712.01841 1231.6521,647.10953 1158.7927,576.21581 1087.5,515.87412 874.79875,335.84516 633.38441,203.10216 453.17313,167.08601 418.34348,160.12513 394.36141,157.60723 363,157.61867 c -27.39769,0.01 -41.91236,1.51624 -62.08942,6.4433 -50.43933,12.31683 -84.3322,41.97089 -97.31269,85.14226 -7.57926,25.20761 -8.66581,57.60012 -3.04148,90.67281 13.1397,77.26515 65.10789,179.58815 143.79354,283.12296 25.29348,33.28124 58.60999,73.13515 90.70231,108.5 20.98562,23.12557 92.9576,95.15253 116.99149,117.08084 C 660.85575,947.86 774.36799,1032.9556 891,1102.6827 c 161.6727,96.6543 308.4677,152.3063 426.5,161.692 11.1454,0.8863 54.3398,-0.2996 64.0453,-1.7583 z"
       id="path827"
       inkscape:connector-curvature="0" />
  </g>
</svg>
