<?xml version="1.0" encoding="UTF-8" standalone="no"?>
<svg
   xmlns:dc="http://purl.org/dc/elements/1.1/"
   xmlns:cc="http://creativecommons.org/ns#"
   xmlns:rdf="http://www.w3.org/1999/02/22-rdf-syntax-ns#"
   xmlns:svg="http://www.w3.org/2000/svg"
   xmlns="http://www.w3.org/2000/svg"
   xmlns:sodipodi="http://sodipodi.sourceforge.net/DTD/sodipodi-0.dtd"
   xmlns:inkscape="http://www.inkscape.org/namespaces/inkscape"
   version="1.1"
   viewBox="0.0 0.0 150.0 150.0"
   fill="none"
   stroke="none"
   stroke-linecap="square"
   stroke-miterlimit="10"
   id="svg45"
   sodipodi:docname="solar_panel_off.svg"
   inkscape:version="1.0.1 (3bc2e813f5, 2020-09-07)"
   inkscape:export-filename="/home/christian7573/Documents/glap/glap-rs-client/assets_rs/solar_panel_off.png"
   inkscape:export-xdpi="96"
   inkscape:export-ydpi="96">
  <metadata
     id="metadata51">
    <rdf:RDF>
      <cc:Work
         rdf:about="">
        <dc:format>image/svg+xml</dc:format>
        <dc:type
           rdf:resource="http://purl.org/dc/dcmitype/StillImage" />
      </cc:Work>
    </rdf:RDF>
  </metadata>
  <defs
     id="defs49" />
  <sodipodi:namedview
     pagecolor="#ffffff"
     bordercolor="#666666"
     borderopacity="1"
     objecttolerance="10"
     gridtolerance="10"
     guidetolerance="10"
     inkscape:pageopacity="0"
     inkscape:pageshadow="2"
     inkscape:window-width="1536"
     inkscape:window-height="792"
     id="namedview47"
     showgrid="false"
     inkscape:zoom="1.5438498"
     inkscape:cx="72.121526"
     inkscape:cy="58.22215"
     inkscape:window-x="0"
     inkscape:window-y="0"
     inkscape:window-maximized="1"
     inkscape:current-layer="svg45" />
  <clipPath
     id="p.0">
    <path
       d="m0 0l150.0 0l0 150.0l-150.0 0l0 -150.0z"
       clip-rule="nonzero"
       id="path2" />
  </clipPath>
  <g
     clip-path="url(#p.0)"
     id="g43"
     transform="matrix(0.95,0,0,0.97,3.75,4.5)"
     style="stroke-width:1.04172">
    <path
       fill="#000000"
       fill-opacity="0"
       d="M 0,0 H 150 V 150 H 0 Z"
       fill-rule="evenodd"
       id="path5"
       style="stroke-width:1.06878" />
    <path
       fill="#4f4f4f"
       d="m 48.269703,59.29239 h 53.441407 v 0 c 4.24444,0 8.31504,1.6861 11.31632,4.687378 3.00128,3.001274 4.68738,7.071884 4.68738,11.31633 v 74.484482 c 0,3.9e-4 -3.2e-4,7.2e-4 -7.1e-4,7.2e-4 l -85.448109,-7.2e-4 v 0 c -3.93e-4,0 -7.1e-4,-3.2e-4 -7.1e-4,-7.2e-4 l 7.1e-4,-74.483764 v 0 c 0,-8.838608 7.165104,-16.003708 16.003712,-16.003708 z"
       fill-rule="evenodd"
       id="path7"
       style="stroke-width:1.06878" />
    <path
       stroke="#000000"
       stroke-width="1.04172"
       stroke-linejoin="round"
       stroke-linecap="butt"
       d="m 48.269703,59.29239 h 53.441407 v 0 c 4.24444,0 8.31504,1.6861 11.31632,4.687378 3.00128,3.001274 4.68738,7.071884 4.68738,11.31633 v 74.484482 c 0,3.9e-4 -3.2e-4,7.2e-4 -7.1e-4,7.2e-4 l -85.448109,-7.2e-4 v 0 c -3.93e-4,0 -7.1e-4,-3.2e-4 -7.1e-4,-7.2e-4 l 7.1e-4,-74.483764 v 0 c 0,-8.838608 7.165104,-16.003708 16.003712,-16.003708 z"
       fill-rule="evenodd"
       id="path9" />
    <defs
       id="defs16">
      <linearGradient
         id="p.1"
         gradientUnits="userSpaceOnUse"
         gradientTransform="scale(-4.0887966)"
         spreadMethod="pad"
         x1="-28.797224"
         y1="-36.685684"
         x2="-28.797239"
         y2="-32.596886">
        <stop
           offset="0.0"
           stop-color="#ffc002"
           id="stop11" />
        <stop
           offset="1.0"
           stop-color="#ffff00"
           id="stop13" />
      </linearGradient>
    </defs>
    <path
       fill="url(#p.1)"
       d="M 117.74599,149.99998 H 32.261945 v -16.71794 h 85.484045 z"
       fill-rule="evenodd"
       id="path18"
       style="fill:url(#p.1);stroke-width:1.06878" />
    <path
       stroke="#000000"
       stroke-width="1.04172"
       stroke-linejoin="round"
       stroke-linecap="butt"
       d="M 117.74599,149.99998 H 32.261945 v -16.71794 h 85.484045 z"
       fill-rule="evenodd"
       id="path20" />
    <path
       fill="#232323"
       d="M 90.00915,132.91089 74.471056,149.98384 H 59.998793 L 75.53689,132.91089 Z"
       fill-rule="evenodd"
       id="path22"
       style="stroke-width:1.06878" />
    <path
       fill="#232323"
       d="m 117.74599,132.92702 -15.5381,17.07297 H 87.735635 l 15.538095,-17.07297 z"
       fill-rule="evenodd"
       id="path24"
       style="stroke-width:1.06878" />
    <path
       fill="#232323"
       d="M 62.272305,132.91089 46.734208,149.98384 H 32.261949 l 15.538094,-17.07295 z"
       fill-rule="evenodd"
       id="path26"
       style="stroke-width:1.06878" />
    <path
       fill="#666666"
       d="m 52.421425,96.101074 v 0 c 0,-12.463371 10.103558,-22.566933 22.566925,-22.566933 v 0 c 5.985123,0 11.725113,2.377586 15.95723,6.609703 4.232124,4.232117 6.609703,9.972107 6.609703,15.95723 v 0 c 0,12.463366 -10.103561,22.566926 -22.566933,22.566926 v 0 c -12.463367,0 -22.566925,-10.10356 -22.566925,-22.566926 z"
       fill-rule="evenodd"
       id="path28"
       style="stroke-width:1.06878" />
    <path
       fill="#cfe2f3"
       d="m 58.156055,49.71968 h 33.700787 v 9.574806 H 58.156055 Z"
       fill-rule="evenodd"
       id="path30"
       style="stroke-width:1.06878" />
    <path
       stroke="#000000"
       stroke-width="1.04172"
       stroke-linejoin="round"
       stroke-linecap="butt"
       d="m 58.156055,49.71968 h 33.700787 v 9.574806 H 58.156055 Z"
       fill-rule="evenodd"
       id="path32" />
    <defs
       id="defs39">
      <radialGradient
         id="p.2"
         gradientUnits="userSpaceOnUse"
         gradientTransform="scale(8.8891639)"
         spreadMethod="pad"
         cx="8.4390106"
         cy="2.7961752"
         fx="8.4390106"
         fy="2.7961752"
         r="8.889164">
        <stop
           offset="0.0"
           stop-color="#00ffff"
           id="stop34" />
        <stop
           offset="1.0"
           stop-color="#4a86e8"
           id="stop36" />
      </radialGradient>
    </defs>
    <path
       fill="url(#p.2)"
       d="m 0.00787402,17.214165 v 0 c 0,-9.504211 7.70468568,-17.208897 17.20889898,-17.208897 H 132.81472 c 4.56409,0 8.94123,1.8130752 12.16852,5.0403695 3.2273,3.2272944 5.04038,7.6044455 5.04038,12.1685275 v 15.282993 0 c 0,9.504211 -7.70469,17.208897 -17.2089,17.208897 H 17.216773 c -9.5042122,0 -17.20889918,-7.704685 -17.20889918,-17.208897 z"
       fill-rule="evenodd"
       id="path41"
       style="fill:url(#p.2);stroke-width:1.06878" />
  </g>
</svg>
