<?xml version="1.0" encoding="UTF-8" standalone="no"?>
<svg
   xmlns:dc="http://purl.org/dc/elements/1.1/"
   xmlns:cc="http://creativecommons.org/ns#"
   xmlns:rdf="http://www.w3.org/1999/02/22-rdf-syntax-ns#"
   xmlns:svg="http://www.w3.org/2000/svg"
   xmlns="http://www.w3.org/2000/svg"
   xmlns:sodipodi="http://sodipodi.sourceforge.net/DTD/sodipodi-0.dtd"
   xmlns:inkscape="http://www.inkscape.org/namespaces/inkscape"
   version="1.1"
   viewBox="0.0 0.0 150.0 150.0"
   fill="none"
   stroke="none"
   stroke-linecap="square"
   stroke-miterlimit="10"
   id="svg59"
   sodipodi:docname="solar_panel.svg"
   inkscape:export-filename="/home/christian7573/Documents/glap/glap-rs-client/assets_rs/solar_panel.png"
   inkscape:export-xdpi="96"
   inkscape:export-ydpi="96"
   inkscape:version="1.0.1 (3bc2e813f5, 2020-09-07)">
  <metadata
     id="metadata65">
    <rdf:RDF>
      <cc:Work
         rdf:about="">
        <dc:format>image/svg+xml</dc:format>
        <dc:type
           rdf:resource="http://purl.org/dc/dcmitype/StillImage" />
      </cc:Work>
    </rdf:RDF>
  </metadata>
  <defs
     id="defs63">
    <clipPath
       clipPathUnits="userSpaceOnUse"
       id="clipPath61">
      <rect
         style="fill:#333333;stroke:none;stroke-width:1.09276;stroke-linejoin:round;stroke-miterlimit:10;stop-color:#000000"
         id="rect63"
         width="85.475739"
         height="16.717941"
         x="32.276161"
         y="133.27977" />
    </clipPath>
  </defs>
  <sodipodi:namedview
     pagecolor="#ffffff"
     bordercolor="#666666"
     borderopacity="1"
     objecttolerance="10"
     gridtolerance="10"
     guidetolerance="10"
     inkscape:pageopacity="0"
     inkscape:pageshadow="2"
     inkscape:window-width="1536"
     inkscape:window-height="822"
     id="namedview61"
     showgrid="false"
     inkscape:zoom="8.7333332"
     inkscape:cx="66.469568"
     inkscape:cy="133.53306"
     inkscape:window-x="0"
     inkscape:window-y="0"
     inkscape:window-maximized="1"
     inkscape:current-layer="g57"
     inkscape:document-rotation="0" />
  <clipPath
     id="p.0">
    <path
       d="m0 0l150.0 0l0 150.0l-150.0 0l0 -150.0z"
       clip-rule="nonzero"
       id="path2" />
  </clipPath>
  <g
     clip-path="url(#p.0)"
     id="g57"
     transform="matrix(0.94666667,0,0,0.96666667,3.9999998,4.9999995)"
     style="stroke-width:1.04535">
    <path
       fill="#000000"
       fill-opacity="0"
       d="M 0,0 H 150 V 150 H 0 Z"
       fill-rule="evenodd"
       id="path5"
       style="stroke-width:1.0744" />
    <defs
       id="defs12">
      <radialGradient
         id="p.1"
         gradientUnits="userSpaceOnUse"
         gradientTransform="scale(7.8878193)"
         spreadMethod="pad"
         cx="9.5086365"
         cy="13.25069"
         fx="9.5086365"
         fy="13.25069"
         r="7.8878193">
        <stop
           offset="0.0"
           stop-color="#8c8c8c"
           id="stop7" />
        <stop
           offset="1.0"
           stop-color="#404040"
           id="stop9" />
      </radialGradient>
    </defs>
    <path
       fill="url(#p.1)"
       d="m 48.282063,59.290344 h 53.441407 v 0 c 4.24444,0 8.31505,1.6861 11.31632,4.687378 3.00128,3.001274 4.68738,7.071884 4.68738,11.31633 v 74.452988 c 0,3.8e-4 -3.2e-4,7e-4 -7.1e-4,7e-4 l -85.448102,-7e-4 v 0 c -3.92e-4,0 -7.13e-4,-3.2e-4 -7.13e-4,-7.2e-4 l 7.13e-4,-74.452265 v 0 c 0,-8.838608 7.165104,-16.003708 16.003708,-16.003708 z"
       fill-rule="evenodd"
       id="path14"
       style="fill:url(#p.1);stroke-width:1.0744;stroke:none" />
    <path
       stroke="#000000"
       stroke-width="1.04535"
       stroke-linejoin="round"
       stroke-linecap="butt"
       d="m 48.282063,59.290344 h 53.441407 v 0 c 4.24444,0 8.31505,1.6861 11.31632,4.687378 3.00128,3.001274 4.68738,7.071884 4.68738,11.31633 v 74.452988 c 0,3.8e-4 -3.2e-4,7e-4 -7.1e-4,7e-4 l -85.448102,-7e-4 v 0 c -3.92e-4,0 -7.13e-4,-3.2e-4 -7.13e-4,-7.2e-4 l 7.13e-4,-74.452265 v 0 c 0,-8.838608 7.165104,-16.003708 16.003708,-16.003708 z"
       fill-rule="evenodd"
       id="path16"
       style="stroke:none" />
    <defs
       id="defs23">
      <linearGradient
         id="p.2"
         gradientUnits="userSpaceOnUse"
         gradientTransform="scale(-4.0887954)"
         spreadMethod="pad"
         x1="-28.798679"
         y1="-36.685139"
         x2="-28.798695"
         y2="-32.596344">
        <stop
           offset="0.0"
           stop-color="#ffc002"
           id="stop18" />
        <stop
           offset="1.0"
           stop-color="#ffff00"
           id="stop20" />
      </linearGradient>
    </defs>
    <g
       id="g53"
       clip-path="url(#clipPath61)">
      <path
         fill="url(#p.2)"
         d="M 117.75191,149.99771 H 32.276165 v -16.71794 h 85.475745 z"
         fill-rule="evenodd"
         id="path25"
         style="fill:url(#p.2);stroke-width:1.0744" />
      <path
         stroke="#000000"
         stroke-width="1.04535"
         stroke-linejoin="round"
         stroke-linecap="butt"
         d="M 117.75191,149.99771 H 32.276165 v -16.71794 h 85.475745 z"
         fill-rule="evenodd"
         id="path27"
         style="stroke:none" />
      <path
         fill="#232323"
         d="M 90.01776,132.90862 74.479659,149.98157 H 60.01031 l 15.538097,-17.07295 z"
         fill-rule="evenodd"
         id="path29"
         style="stroke-width:1.0744" />
      <path
         fill="#232323"
         d="m 117.75191,132.92476 -15.5381,17.07295 H 87.744469 l 15.538091,-17.07295 z"
         fill-rule="evenodd"
         id="path31"
         style="stroke-width:1.0744" />
      <path
         fill="#232323"
         d="M 62.283604,132.90862 46.745507,149.98157 H 32.276158 l 15.538097,-17.07295 z"
         fill-rule="evenodd"
         id="path33"
         style="stroke-width:1.0744" />
    </g>
    <defs
       id="defs40">
      <radialGradient
         id="p.3"
         gradientUnits="userSpaceOnUse"
         gradientTransform="scale(5.6492882)"
         spreadMethod="pad"
         cx="13.275787"
         cy="17.011063"
         fx="13.275787"
         fy="17.011063"
         r="5.6492882">
        <stop
           offset="0.0"
           stop-color="#ffffff"
           id="stop35" />
        <stop
           offset="1.0"
           stop-color="#b3b3b3"
           id="stop37" />
      </radialGradient>
    </defs>
    <path
       fill="url(#p.3)"
       d="m 52.43182,96.100395 v 0 c 0,-12.463371 10.103558,-22.566933 22.566929,-22.566933 v 0 c 5.985123,0 11.725113,2.377579 15.95723,6.609703 4.232124,4.232117 6.609703,9.972107 6.609703,15.95723 v 0 c 0,12.463365 -10.103561,22.566925 -22.566933,22.566925 v 0 c -12.463371,0 -22.566929,-10.10356 -22.566929,-22.566925 z"
       fill-rule="evenodd"
       id="path42"
       style="fill:url(#p.3);stroke-width:1.0744" />
    <path
       fill="#cfe2f3"
       d="m 58.1657,49.71754 h 33.700787 v 9.574802 H 58.1657 Z"
       fill-rule="evenodd"
       id="path44"
       style="stroke-width:1.0744;stroke:none" />
    <path
       stroke="#000000"
       stroke-width="1.04535"
       stroke-linejoin="round"
       stroke-linecap="butt"
       d="m 58.1657,49.71754 h 33.700787 v 9.574802 H 58.1657 Z"
       fill-rule="evenodd"
       id="path46"
       style="stroke:none" />
    <defs
       id="defs53">
      <radialGradient
         id="p.4"
         gradientUnits="userSpaceOnUse"
         gradientTransform="scale(8.8891639)"
         spreadMethod="pad"
         cx="8.4407825"
         cy="2.7958767"
         fx="8.4407825"
         fy="2.7958767"
         r="8.889164">
        <stop
           offset="0.0"
           stop-color="#00ffff"
           id="stop48" />
        <stop
           offset="1.0"
           stop-color="#4a86e8"
           id="stop50" />
      </radialGradient>
    </defs>
    <path
       fill="url(#p.4)"
       d="m 0.02362205,17.21151 v 0 c 0,-9.504211 7.70468565,-17.208897 17.20889695,-17.208897 H 132.83047 c 4.56409,0 8.94124,1.8130751 12.16853,5.0403695 3.22728,3.227294 5.04036,7.6044445 5.04036,12.1685275 v 15.282993 0 c 0,9.504211 -7.70468,17.208897 -17.20889,17.208897 H 17.232519 c -9.5042115,0 -17.20889745,-7.704684 -17.20889745,-17.208897 z"
       fill-rule="evenodd"
       id="path55"
       style="fill:url(#p.4);stroke-width:1.0744" />
  </g>
</svg>
