<?xml version="1.0" encoding="UTF-8" standalone="no"?>
<svg
   xmlns:dc="http://purl.org/dc/elements/1.1/"
   xmlns:cc="http://creativecommons.org/ns#"
   xmlns:rdf="http://www.w3.org/1999/02/22-rdf-syntax-ns#"
   xmlns:svg="http://www.w3.org/2000/svg"
   xmlns="http://www.w3.org/2000/svg"
   xmlns:sodipodi="http://sodipodi.sourceforge.net/DTD/sodipodi-0.dtd"
   xmlns:inkscape="http://www.inkscape.org/namespaces/inkscape"
   version="1.1"
   viewBox="0.0 0.0 150.0 150.0"
   fill="none"
   stroke="none"
   stroke-linecap="square"
   stroke-miterlimit="10"
   id="svg43"
   sodipodi:docname="super_thruster_off.svg"
   inkscape:export-filename="/home/christian7573/Documents/glap/glap-rs-client/assets_rs/super_thruster_off.png"
   inkscape:export-xdpi="128"
   inkscape:export-ydpi="128"
   inkscape:version="1.0.2 (e86c870879, 2021-01-15)">
  <metadata
     id="metadata49">
    <rdf:RDF>
      <cc:Work
         rdf:about="">
        <dc:format>image/svg+xml</dc:format>
        <dc:type
           rdf:resource="http://purl.org/dc/dcmitype/StillImage" />
      </cc:Work>
    </rdf:RDF>
  </metadata>
  <defs
     id="defs47" />
  <sodipodi:namedview
     pagecolor="#ffffff"
     bordercolor="#666666"
     borderopacity="1"
     objecttolerance="10"
     gridtolerance="10"
     guidetolerance="10"
     inkscape:pageopacity="0"
     inkscape:pageshadow="2"
     inkscape:window-width="1707"
     inkscape:window-height="884"
     id="namedview45"
     showgrid="false"
     inkscape:zoom="4.7666667"
     inkscape:cx="83.838387"
     inkscape:cy="90.167755"
     inkscape:window-x="0"
     inkscape:window-y="0"
     inkscape:window-maximized="1"
     inkscape:current-layer="g41" />
  <clipPath
     id="p.0">
    <path
       d="m0 0l150.0 0l0 150.0l-150.0 0l0 -150.0z"
       clip-rule="nonzero"
       id="path2" />
  </clipPath>
  <g
     clip-path="url(#p.0)"
     id="g41"
     transform="rotate(180,75,75)">
    <path
       fill="#000000"
       fill-opacity="0"
       d="M 0,0 H 150 V 150 H 0 Z"
       fill-rule="evenodd"
       id="path5" />
    <defs
       id="defs12">
      <linearGradient
         id="p.1"
         gradientUnits="userSpaceOnUse"
         gradientTransform="scale(4.8894825)"
         spreadMethod="pad"
         x1="23.410364"
         y1="25.784941"
         x2="23.410419"
         y2="20.895458">
        <stop
           offset="0.0"
           stop-color="#8c8c8c"
           id="stop7" />
        <stop
           offset="1.0"
           stop-color="#404040"
           id="stop9" />
      </linearGradient>
    </defs>
    <path
       fill="url(#p.1)"
       d="m 47.48819,102.16798 h 55.02362 c 3.17007,0 6.2103,1.25931 8.45187,3.50088 2.24158,2.24158 3.50089,5.28181 3.50089,8.45188 v 11.95276 c 0,3.6e-4 -3e-4,6.5e-4 -6.6e-4,6.5e-4 l -78.928477,-6.5e-4 v 0 c -3.66e-4,0 -6.6e-4,-3e-4 -6.6e-4,-6.7e-4 l 6.6e-4,-11.95209 v 0 c 0,-6.60133 5.351429,-11.95276 11.952755,-11.95276 z"
       fill-rule="evenodd"
       id="path14"
       style="fill:url(#p.1)" />
    <path
       stroke="#000000"
       stroke-width="1"
       stroke-linejoin="round"
       stroke-linecap="butt"
       d="m 47.48819,102.16798 h 55.02362 c 3.17007,0 6.2103,1.25931 8.45187,3.50088 2.24158,2.24158 3.50089,5.28181 3.50089,8.45188 v 11.95276 c 0,3.6e-4 -3e-4,6.5e-4 -6.6e-4,6.5e-4 l -78.928477,-6.5e-4 v 0 c -3.66e-4,0 -6.6e-4,-3e-4 -6.6e-4,-6.7e-4 l 6.6e-4,-11.95209 v 0 c 0,-6.60133 5.351429,-11.95276 11.952755,-11.95276 z"
       fill-rule="evenodd"
       id="path16"
       style="stroke:none" />
    <path
       fill="#4f4f4f"
       d="m 138.31303,83.43491 v 0 c 0,11.602447 -9.40564,21.00809 -21.00809,21.00809 H 32.958933 v 0 c -5.571695,0 -10.915188,-2.21334 -14.854969,-6.153125 -3.939783,-3.939781 -6.15313,-9.283272 -6.15313,-14.854965 V 36.09677 c 0,-11.602453 9.405645,-21.008099 21.008099,-21.008099 h 84.346007 c 11.60245,0 21.00809,9.405644 21.00809,21.008099 z"
       fill-rule="evenodd"
       id="path18" />
    <path
       stroke="#000000"
       stroke-width="1"
       stroke-linejoin="round"
       stroke-linecap="butt"
       d="m 138.31303,83.73536 v 0 c 0,11.602447 -9.40564,21.00809 -21.00809,21.00809 H 32.958933 v 0 c -5.571695,0 -10.915188,-2.21334 -14.854969,-6.153125 -3.939783,-3.939781 -6.15313,-9.283272 -6.15313,-14.854965 V 36.39722 c 0,-11.602453 9.405645,-21.008099 21.008099,-21.008099 h 84.346007 c 11.60245,0 21.00809,9.405644 21.00809,21.008099 z"
       fill-rule="evenodd"
       id="path20"
       style="stroke:none" />
    <defs
       id="defs27">
      <linearGradient
         id="p.2"
         gradientUnits="userSpaceOnUse"
         gradientTransform="scale(3.8833291)"
         spreadMethod="pad"
         x1="7.6752405"
         y1="0.00012891127"
         x2="7.6752267"
         y2="3.8834581">
        <stop
           offset="0.0"
           stop-color="#ffc002"
           id="stop22" />
        <stop
           offset="1.0"
           stop-color="#ffff00"
           id="stop24" />
      </linearGradient>
    </defs>
    <path
       fill="url(#p.2)"
       d="M 29.805487,8.278215e-4 H 120.19707 V 15.080746 H 29.805487 Z"
       fill-rule="evenodd"
       id="path29"
       style="fill:url(#p.2)" />
    <path
       stroke="#000000"
       stroke-width="1"
       stroke-linejoin="round"
       stroke-linecap="butt"
       d="M 29.805487,8.278215e-4 H 120.19707 V 15.080746 H 29.805487 Z"
       fill-rule="evenodd"
       id="path31"
       style="stroke:none" />
    <path
       fill="#232323"
       d="M 59.13467,15.415532 73.150345,0.015384 H 90.86789 L 76.852212,15.415532 Z"
       fill-rule="evenodd"
       id="path33" />
    <path
       fill="#232323"
       d="M 29.805487,15.400976 43.82116,8.28e-4 H 61.5387 L 47.523025,15.400976 Z"
       fill-rule="evenodd"
       id="path35" />
    <path
       fill="#232323"
       d="M 88.46385,15.415532 102.47953,0.015384 h 17.71753 l -14.01567,15.400148 z"
       fill-rule="evenodd"
       id="path37" />
    <path
       fill="#666666"
       d="m 97.56605,60.091892 v 0 c 0,12.541645 -10.103554,22.70866 -22.566925,22.70866 v 0 c -5.985123,0 -11.725109,-2.39251 -15.95723,-6.651207 -4.23212,-4.258705 -6.609699,-10.034737 -6.609699,-16.057453 v 0 c 0,-12.541645 10.103558,-22.70866 22.566929,-22.70866 v 0 c 12.463371,0 22.566925,10.167015 22.566925,22.70866 z"
       fill-rule="evenodd"
       id="path39" />
  </g>
</svg>
