<?xml version="1.0" encoding="UTF-8" standalone="no"?>
<svg
   xmlns:dc="http://purl.org/dc/elements/1.1/"
   xmlns:cc="http://creativecommons.org/ns#"
   xmlns:rdf="http://www.w3.org/1999/02/22-rdf-syntax-ns#"
   xmlns:svg="http://www.w3.org/2000/svg"
   xmlns="http://www.w3.org/2000/svg"
   xmlns:xlink="http://www.w3.org/1999/xlink"
   xmlns:sodipodi="http://sodipodi.sourceforge.net/DTD/sodipodi-0.dtd"
   xmlns:inkscape="http://www.inkscape.org/namespaces/inkscape"
   version="1.1"
   viewBox="0 0 174.54343 174.54343"
   fill="none"
   stroke="none"
   stroke-linecap="square"
   stroke-miterlimit="10"
   id="svg43"
   sodipodi:docname="thruster_off.svg"
   width="174.54343"
   height="174.54343"
   inkscape:version="1.0.2 (e86c870879, 2021-01-15)"
   inkscape:export-filename="/home/christian7573/Documents/glap/glap-rs-client/assets_rs/thruster_off.png"
   inkscape:export-xdpi="110.00128"
   inkscape:export-ydpi="110.00128">
  <metadata
     id="metadata49">
    <rdf:RDF>
      <cc:Work
         rdf:about="">
        <dc:format>image/svg+xml</dc:format>
        <dc:type
           rdf:resource="http://purl.org/dc/dcmitype/StillImage" />
        <dc:title></dc:title>
      </cc:Work>
    </rdf:RDF>
  </metadata>
  <defs
     id="defs47">
    <linearGradient
       id="p.1-2"
       gradientUnits="userSpaceOnUse"
       gradientTransform="matrix(6.9848691,0,0,6.9848691,0,7.4832549)"
       spreadMethod="pad"
       x1="14.421499"
       y1="21.475134"
       x2="14.421576"
       y2="14.490264">
      <stop
         offset="0.0"
         stop-color="#8c8c8c"
         id="stop7-7" />
      <stop
         offset="1.0"
         stop-color="#404040"
         id="stop9-0" />
    </linearGradient>
    <linearGradient
       id="linearGradient1633"
       gradientUnits="userSpaceOnUse"
       gradientTransform="scale(3.8833291)"
       spreadMethod="pad"
       x1="7.6752405"
       y1="0.00012891127"
       x2="7.6752267"
       y2="3.8834581">
      <stop
         offset="0.0"
         stop-color="#ffc002"
         id="stop18" />
      <stop
         offset="1.0"
         stop-color="#ffff00"
         id="stop20" />
    </linearGradient>
    <radialGradient
       id="p.3"
       gradientUnits="userSpaceOnUse"
       gradientTransform="matrix(-8.796677,0,0,-9.4308031,0,-1.9637699)"
       spreadMethod="pad"
       cx="-8.525878"
       cy="-6.8312769"
       fx="-8.525878"
       fy="-6.8312769"
       r="8.7966766">
      <stop
         offset="0.0"
         stop-color="#8c8c8c"
         id="stop35" />
      <stop
         offset="1.0"
         stop-color="#404040"
         id="stop37" />
    </radialGradient>
    <radialGradient
       id="p.4"
       gradientUnits="userSpaceOnUse"
       gradientTransform="matrix(-5.6581652,0,0,-5.6581652,-0.00104,2.3687613)"
       spreadMethod="pad"
       cx="-13.255258"
       cy="-10.620385"
       fx="-13.255258"
       fy="-10.620385"
       r="5.658165">
      <stop
         offset="0.0"
         stop-color="#ffffff"
         id="stop46" />
      <stop
         offset="1.0"
         stop-color="#b3b3b3"
         id="stop48" />
    </radialGradient>
    <radialGradient
       id="radialGradient908"
       gradientUnits="userSpaceOnUse"
       gradientTransform="matrix(-8.796677,0,0,-9.4308031,0,-1.9637699)"
       spreadMethod="pad"
       cx="-8.525878"
       cy="-6.8312769"
       fx="-8.525878"
       fy="-6.8312769"
       r="8.7966766">
      <stop
         offset="0.0"
         stop-color="#8c8c8c"
         id="stop904" />
      <stop
         offset="1.0"
         stop-color="#404040"
         id="stop906" />
    </radialGradient>
    <radialGradient
       id="radialGradient917"
       gradientUnits="userSpaceOnUse"
       gradientTransform="matrix(-5.6581652,0,0,-5.6581652,-0.00104,2.3687613)"
       spreadMethod="pad"
       cx="-13.255258"
       cy="-10.620385"
       fx="-13.255258"
       fy="-10.620385"
       r="5.658165">
      <stop
         offset="0.0"
         stop-color="#ffffff"
         id="stop913" />
      <stop
         offset="1.0"
         stop-color="#b3b3b3"
         id="stop915" />
    </radialGradient>
    <linearGradient
       inkscape:collect="always"
       xlink:href="#p.2"
       id="linearGradient1714"
       gradientUnits="userSpaceOnUse"
       gradientTransform="scale(3.8833291)"
       x1="7.6752405"
       y1="0.00012891127"
       x2="7.6752267"
       y2="3.8834581"
       spreadMethod="pad" />
    <linearGradient
       id="p.1-2-1"
       gradientUnits="userSpaceOnUse"
       gradientTransform="matrix(6.9848691,0,0,6.9848691,0.132147,7.6198302)"
       spreadMethod="pad"
       x1="14.421499"
       y1="21.475134"
       x2="14.421576"
       y2="14.490264">
      <stop
         offset="0.0"
         stop-color="#8c8c8c"
         id="stop7-7-8" />
      <stop
         offset="1.0"
         stop-color="#404040"
         id="stop9-0-7" />
    </linearGradient>
  </defs>
  <sodipodi:namedview
     pagecolor="#ffffff"
     bordercolor="#666666"
     borderopacity="1"
     objecttolerance="10"
     gridtolerance="10"
     guidetolerance="10"
     inkscape:pageopacity="0"
     inkscape:pageshadow="2"
     inkscape:window-width="1707"
     inkscape:window-height="884"
     id="namedview45"
     showgrid="false"
     inkscape:snap-global="false"
     inkscape:zoom="2.3833333"
     inkscape:cx="50.461326"
     inkscape:cy="74.306443"
     inkscape:window-x="0"
     inkscape:window-y="0"
     inkscape:window-maximized="1"
     inkscape:current-layer="svg43"
     fit-margin-top="0"
     fit-margin-left="0"
     fit-margin-right="0"
     fit-margin-bottom="0" />
  <g
     clip-path="none"
     id="g41"
     transform="matrix(-1.1073667,0,0,-1.1073667,170.32422,174.54343)">
    <path
       fill="url(#p.1)"
       d="m 73.793557,108.83243 h 2.67717 v 0 c 6.46962,0 12.67425,2.57004 17.24895,7.14474 4.57471,4.57471 7.144753,10.77935 7.144753,17.24896 v 24.3937 c 0,2.4e-4 -1.9e-4,4.3e-4 -4.2e-4,4.3e-4 l -51.464143,-4.3e-4 v 0 c -2.4e-4,0 -4.3e-4,-2e-4 -4.3e-4,-4.3e-4 l 4.3e-4,-24.39327 v 0 c 0,-13.47227 10.92143,-24.3937 24.3937,-24.3937 z"
       fill-rule="evenodd"
       id="path14-6-9"
       style="display:inline;fill:url(#p.1-2-1);stroke:none" />
    <path
       fill="#000000"
       fill-opacity="0"
       d="M 0,0 H 150 V 150 H 0 Z"
       fill-rule="evenodd"
       id="path5" />
    <defs
       id="defs12">
      <linearGradient
         id="p.1"
         gradientUnits="userSpaceOnUse"
         gradientTransform="matrix(6.9848691,0,0,6.9848691,0,8.9753948)"
         spreadMethod="pad"
         x1="14.421499"
         y1="21.475134"
         x2="14.421576"
         y2="14.490264">
        <stop
           offset="0.0"
           stop-color="#8c8c8c"
           id="stop7" />
        <stop
           offset="1.0"
           stop-color="#404040"
           id="stop9" />
      </linearGradient>
    </defs>
    <path
       stroke="#000000"
       stroke-width="1"
       stroke-linejoin="round"
       stroke-linecap="butt"
       d="m 73.661415,101.2126 h 2.67717 v 0 c 6.469612,0 12.67424,2.57004 17.248947,7.14474 4.574707,4.57471 7.144748,10.77935 7.144748,17.24896 V 150 c 0,2.4e-4 -1.9e-4,4.3e-4 -4.2e-4,4.3e-4 L 49.267717,150 v 0 c -2.36e-4,0 -4.27e-4,-2e-4 -4.27e-4,-4.3e-4 l 4.27e-4,-24.39327 v 0 c 0,-13.47227 10.921433,-24.3937 24.3937,-24.3937 z"
       fill-rule="evenodd"
       id="path16"
       style="stroke:none" />
    <path
       fill="#4f4f4f"
       d="m 138.31303,88.20241 v 0 c 0,12.43885 -9.40564,22.52253 -21.00809,22.52253 H 32.958933 v 0 c -5.571695,0 -10.915188,-2.3729 -14.854969,-6.59669 -3.939783,-4.223803 -6.15313,-9.952493 -6.15313,-15.92584 V 37.451742 c 0,-12.438854 9.405645,-22.522538 21.008099,-22.522538 h 84.346007 c 11.60245,0 21.00809,10.083682 21.00809,22.522538 z"
       fill-rule="evenodd"
       id="path18"
       style="stroke-width:1.03542" />
    <path
       stroke="#000000"
       stroke-width="1"
       stroke-linejoin="round"
       stroke-linecap="butt"
       d="m 138.31303,83.73536 v 0 c 0,11.602447 -9.40564,21.00809 -21.00809,21.00809 H 32.958933 v 0 c -5.571695,0 -10.915188,-2.21334 -14.854969,-6.153125 -3.939783,-3.939781 -6.15313,-9.283272 -6.15313,-14.854965 V 36.39722 c 0,-11.602453 9.405645,-21.008099 21.008099,-21.008099 h 84.346007 c 11.60245,0 21.00809,9.405644 21.00809,21.008099 z"
       fill-rule="evenodd"
       id="path20"
       style="stroke:none" />
    <defs
       id="defs27">
      <linearGradient
         id="p.2"
         gradientUnits="userSpaceOnUse"
         gradientTransform="scale(3.8833291)"
         spreadMethod="pad"
         x1="7.6752405"
         y1="0.00012891127"
         x2="7.6752267"
         y2="3.8834581">
        <stop
           offset="0.0"
           stop-color="#ffc002"
           id="stop22" />
        <stop
           offset="1.0"
           stop-color="#ffff00"
           id="stop24" />
      </linearGradient>
    </defs>
    <path
       fill="url(#p.2)"
       d="M 29.805487,8.278215e-4 H 120.19707 V 15.080746 H 29.805487 Z"
       fill-rule="evenodd"
       id="path29"
       style="fill:url(#linearGradient1714)" />
    <path
       stroke="#000000"
       stroke-width="1"
       stroke-linejoin="round"
       stroke-linecap="butt"
       d="M 29.805487,8.278215e-4 H 120.19707 V 15.080746 H 29.805487 Z"
       fill-rule="evenodd"
       id="path31"
       style="stroke:none" />
    <path
       fill="#232323"
       d="M 59.13467,15.415532 73.150345,0.015384 H 90.86789 L 76.852212,15.415532 Z"
       fill-rule="evenodd"
       id="path33" />
    <path
       fill="#232323"
       d="M 29.805487,15.400976 43.82116,8.28e-4 H 61.5387 L 47.523025,15.400976 Z"
       fill-rule="evenodd"
       id="path35" />
    <path
       fill="#232323"
       d="M 88.46385,15.415532 102.47953,0.015384 h 17.71753 l -14.01567,15.400148 z"
       fill-rule="evenodd"
       id="path37" />
    <path
       fill="#666666"
       d="m 97.698859,62.827072 v 0 c 0,12.541645 -10.103554,22.70866 -22.566925,22.70866 v 0 c -5.985123,0 -11.725109,-2.39251 -15.95723,-6.651207 -4.23212,-4.258705 -6.609699,-10.034737 -6.609699,-16.057453 v 0 c 0,-12.541645 10.103558,-22.70866 22.566929,-22.70866 v 0 c 12.463371,0 22.566925,10.167015 22.566925,22.70866 z"
       fill-rule="evenodd"
       id="path39" />
  </g>
  <path
     d="M 170.32422,174.54343 H 4.2192158 V 8.4384222 H 170.32422 Z"
     clip-rule="nonzero"
     id="path2"
     style="stroke-width:1.10737" />
</svg>
