<?xml version="1.0" encoding="UTF-8" standalone="no"?>
<!-- Created with Inkscape (http://www.inkscape.org/) -->

<svg
   xmlns:dc="http://purl.org/dc/elements/1.1/"
   xmlns:cc="http://creativecommons.org/ns#"
   xmlns:rdf="http://www.w3.org/1999/02/22-rdf-syntax-ns#"
   xmlns:svg="http://www.w3.org/2000/svg"
   xmlns="http://www.w3.org/2000/svg"
   xmlns:sodipodi="http://sodipodi.sourceforge.net/DTD/sodipodi-0.dtd"
   xmlns:inkscape="http://www.inkscape.org/namespaces/inkscape"
   version="1.1"
   id="svg815"
   width="480"
   height="1953"
   viewBox="0 0 480 1953"
   sodipodi:docname="Uranus-Rings.svg"
   inkscape:version="0.92.3 (2405546, 2018-03-11)">
  <metadata
     id="metadata821">
    <rdf:RDF>
      <cc:Work
         rdf:about="">
        <dc:format>image/svg+xml</dc:format>
        <dc:type
           rdf:resource="http://purl.org/dc/dcmitype/StillImage" />
        <dc:title></dc:title>
      </cc:Work>
    </rdf:RDF>
  </metadata>
  <defs
     id="defs819" />
  <sodipodi:namedview
     pagecolor="#ffffff"
     bordercolor="#666666"
     borderopacity="1"
     objecttolerance="10"
     gridtolerance="10"
     guidetolerance="10"
     inkscape:pageopacity="0"
     inkscape:pageshadow="2"
     inkscape:window-width="1920"
     inkscape:window-height="1017"
     id="namedview817"
     showgrid="false"
     inkscape:zoom="0.085446595"
     inkscape:cx="1166.5101"
     inkscape:cy="1334.1694"
     inkscape:window-x="-8"
     inkscape:window-y="-8"
     inkscape:window-maximized="1"
     inkscape:current-layer="svg815" />
  <g
     id="g827"
     transform="translate(0.15527141,0.01894226)">
    <path
       style="fill:#ffffff"
       d="M 0,976.5 V 0 H 240 480 V 976.5 1953 H 240 0 Z"
       id="path881"
       inkscape:connector-curvature="0" />
    <path
       style="fill:#fefefe"
       d="m 227,1952.0492 c -1.375,-0.4674 -4.81627,-0.8947 -7.64728,-0.9495 -13.48075,-0.2611 -37.08203,-18.7321 -56.02336,-43.8454 C 85.046506,1803.4631 26.941614,1551.4899 4.9641888,1220.5 c -5.9879306,-90.1809 -5.9879306,-397.81908 0,-488 C 17.576139,542.55838 40.961338,383.5465 75.041012,256 111.34633,120.12382 156.49651,33.86719 205.72446,6.337352 213.33676,2.0803106 222.11678,0.61429213 240,0.61429213 c 17.88322,0 26.66324,1.46601847 34.27554,5.72305987 85.51126,47.820617 157.75347,274.872138 190.18818,597.746298 12.24678,121.91163 15.01435,190.55862 15.01435,372.41635 0,156.9459 -1.72471,215.4944 -9.02882,306.5 -21.74541,270.9369 -72.36815,492.0596 -137.30478,599.7543 -23.71964,39.338 -51.8523,65.8877 -72.52496,68.4442 -10.60239,1.3111 -30.76431,1.8213 -33.61951,0.8507 z m 22.21679,-52.0344 c 22.45363,-6.9353 46.63802,-34.5792 67.71019,-77.3961 78.2066,-158.9093 126.32568,-521.4245 120.98175,-911.44143 C 433.12265,561.87472 386.84064,257.44003 316.92698,115.3813 291.88686,64.501867 263.18907,36 237,36 210.81093,36 182.11314,64.501867 157.07302,115.3813 68.071021,296.22594 19.197662,739.78543 40.539879,1173 c 15.727655,319.2475 67.148341,579.9599 134.338051,681.1187 25.51637,38.4167 49.87146,53.4533 74.33886,45.8961 z"
       id="path879"
       inkscape:connector-curvature="0" />
    <path
       style="fill:#fdfefe"
       d="m 227,1952.0492 c -1.375,-0.4674 -4.075,-0.8951 -6,-0.9503 -8.25545,-0.237 -23.88977,-10.0365 -38.36771,-24.0486 C 96.705384,1843.8877 28.801478,1575.0263 6.079417,1228 1.6167785,1159.8436 0.5,1109.5033 0.5,976.5 0.5,843.49672 1.6167785,793.15637 6.079417,725 28.801478,377.97365 96.705384,109.11231 182.63229,25.949746 197.76327,11.305542 210.05305,3.7090222 221.91042,1.6712728 c 8.47002,-1.45561665 27.70914,-1.45561665 36.17916,0 11.85737,2.0377494 24.14715,9.6342692 39.27813,24.2784732 C 383.29462,109.11231 451.19852,377.97365 473.92058,725 478.38322,793.15637 479.5,843.49672 479.5,976.5 c 0,133.0033 -1.11678,183.3436 -5.57942,251.5 -22.72206,347.0263 -90.62596,615.8877 -176.55287,699.0503 -14.65435,14.1829 -27.49415,22.271 -38.30478,24.1292 -7.69938,1.3234 -29.02662,1.9019 -32.06293,0.8697 z m 25.23213,-51.9151 c 42.20566,-14.8294 83.959,-95.2663 116.19422,-223.8455 34.3657,-137.0772 57.18278,-316.7049 66.53391,-523.7886 4.86675,-107.7759 4.86675,-259.22413 0,-367 C 428.44264,641.1653 415.53914,511.34066 396.39624,397.5 361.47636,189.83536 308.86936,58.56816 252.23213,37.775612 c -8.0235,-2.945571 -22.44076,-2.945571 -30.46426,0 C 165.13064,58.56816 112.52364,189.83536 77.603757,397.5 58.46086,511.34066 45.557356,641.1653 39.039743,785.5 c -4.866753,107.77587 -4.866753,259.2241 0,367 16.621573,368.0902 77.347657,651.3401 156.459937,729.7896 10.95634,10.8646 20.9031,16.743 34.00032,20.0939 3.98467,1.0195 17.13099,-0.2814 22.73213,-2.2494 z"
       id="path877"
       inkscape:connector-curvature="0" />
    <path
       style="fill:#fdfdfd"
       d="m 227,1952.0492 c -1.375,-0.4674 -3.94967,-0.8947 -5.72149,-0.9495 -8.47412,-0.2622 -25.45418,-11.1345 -39.86626,-25.5262 C 94.796696,1839.0803 27.716684,1568.2193 5.5591737,1215.5 c -7.464968,-118.8328 -7.464968,-359.16723 0,-478 C 27.716684,384.7807 94.796696,113.91971 181.41225,27.426502 196.58459,12.275593 210.9234,3.3165997 223,1.4421604 c 7.08687,-1.09997084 26.91313,-1.09997084 34,0 12.0766,1.8744393 26.41541,10.8334326 41.58775,25.9843416 C 385.2033,113.91971 452.28332,384.7807 474.44083,737.5 c 7.46496,118.83277 7.46496,359.1672 0,478 -22.15751,352.7193 -89.23753,623.5803 -175.85308,710.0735 -14.66476,14.644 -28.80722,23.7015 -40.08775,25.6739 -7.19806,1.2585 -28.55707,1.8022 -31.5,0.8018 z m 24.05782,-51.3365 c 3.60679,-1.2296 9.19737,-3.8055 12.4235,-5.7242 7.64613,-4.5474 21.62794,-18.2808 29.49023,-28.9663 71.33631,-96.9521 125.42517,-363.0296 141.48904,-696.0222 3.52409,-73.052 4.02506,-98.0688 4.02506,-201 0,-102.93117 -0.50097,-127.94803 -4.02506,-201 C 418.39672,435.00736 364.30786,168.92986 292.97155,71.97785 285.10926,61.292333 271.12745,47.55889 263.48132,43.011462 c -17.84726,-10.614408 -35.11538,-10.614408 -52.96264,0 C 202.87255,47.55889 188.89074,61.292333 181.02845,71.97785 109.69214,168.92986 55.603277,435.00736 39.53941,768 c -3.524094,73.05197 -4.025061,98.06883 -4.025061,201 0,102.9312 0.500967,127.948 4.025061,201 16.063867,332.9926 70.15273,599.0701 141.48904,696.0222 7.86229,10.6855 21.8441,24.4189 29.49023,28.9663 8.95134,5.3237 17.72145,7.9599 26.48132,7.9599 5.14131,0 9.56238,-0.7031 14.05782,-2.2357 z"
       id="path875"
       inkscape:connector-curvature="0" />
    <path
       style="fill:#fcfdfd"
       d="m 227,1952.0492 c -1.375,-0.4674 -3.9353,-0.8947 -5.68955,-0.9495 -5.19455,-0.1624 -20.46602,-8.6849 -30.59705,-17.0753 C 162.5179,1910.6732 134.9522,1865.5981 110.27966,1802.5 102.77775,1783.3145 88.291416,1739.5753 81.631019,1716 44.252158,1583.693 18.442036,1413.7705 6.0640063,1218.5 c -8.2177569,-129.6398 -8.2177569,-354.36021 0,-484 C 26.377355,414.04537 84.11496,159.28585 160.6755,52.297313 180.48362,24.616712 204.17646,5.1371191 222.21124,1.7043357 c 8.08873,-1.5396278 27.48879,-1.5396278 35.57752,0 C 275.82354,5.1371191 299.51638,24.616712 319.3245,52.297313 357.8058,106.07252 392.64508,199.87817 419.86305,323 c 26.06407,117.90207 44.22075,256.07609 54.07294,411.5 8.21776,129.63979 8.21776,354.3602 0,484 -20.31334,320.4546 -78.05095,575.2141 -154.61149,682.2027 -19.31139,26.9864 -43.48521,47.1219 -60.54858,50.4336 -7.01996,1.3624 -28.62741,1.9832 -31.77592,0.9129 z m 24.16664,-51.1497 c 13.37155,-4.3999 27.82432,-16.2061 40.78376,-33.3155 59.11453,-78.0445 107.34976,-274.3494 131.47859,-535.084 16.38558,-177.0614 20.3273,-380.55613 11.0313,-569.5 C 418.11635,430.80443 363.35964,164.69225 291.9504,70.416005 260.91755,29.445669 228.27066,23.746404 196.80706,53.806549 131.29016,116.40102 76.81413,321.91854 50.571007,605.5 34.185433,782.56144 30.243709,986.05613 39.539705,1175 c 16.343948,332.1956 71.100655,598.3078 142.509895,692.584 22.48574,29.6862 45.87893,40.9621 69.11704,33.3155 z"
       id="path873"
       inkscape:connector-curvature="0" />
    <path
       style="fill:#fcfcfc"
       d="m 223.72158,1951.4175 c -13.08064,-2.6033 -24.91269,-9.7454 -39.58048,-23.8915 -20.72708,-19.9898 -40.24131,-49.5866 -57.59946,-87.3598 C 66.219038,1708.898 22.978006,1485.7792 6.0610337,1218.5 c -8.1631404,-128.9733 -8.1631404,-355.02671 0,-484 C 26.91499,405.01856 88.244447,143.15393 168.01235,43 181.22439,26.4114 199.68001,10.567868 212.28818,4.9906712 c 10.71765,-4.74092428 28.85068,-6.2075596 43.08119,-3.484492 9.50806,1.8194074 14.55889,3.9689392 23.97308,10.2024568 25.14078,16.646741 52.36387,53.790434 74.11591,101.125124 60.3226,131.26825 103.56363,354.38706 120.48061,621.66624 8.16314,128.97329 8.16314,355.0267 0,484 -20.85396,329.4814 -82.18342,591.3461 -161.95132,691.5 -13.21204,16.5886 -31.66766,32.4321 -44.27583,38.0093 -10.57942,4.6798 -30.02952,6.1867 -43.99024,3.4082 z M 251,1901.278 c 44.49844,-14.3858 86.98572,-97.1503 120.52359,-234.778 55.09221,-226.0792 79.29156,-573.654 62.93957,-904 -15.2369,-307.81879 -62.50691,-556.81536 -127.02549,-669.11161 -44.9278,-78.197995 -95.94754,-78.197995 -140.87534,0 C 66.827678,266.97912 12.970268,760.31865 42.534101,1229.5 c 10.536318,167.2126 31.574603,320.5889 59.942309,437 40.78664,167.3741 94.48005,252.2497 148.52359,234.778 z"
       id="path871"
       inkscape:connector-curvature="0" />
    <path
       style="fill:#fafcfc"
       d="m 223.74598,1951.4219 c -22.95169,-4.5694 -48.97664,-28.1514 -73.04,-66.1839 -9.88823,-15.6284 -28.05463,-52.6235 -37.45425,-76.2739 C 60.735226,1676.8273 23.187637,1472.4628 7.0632379,1231 -2.491524,1087.9175 -2.491524,865.08253 7.0632379,722 25.237952,449.83371 70.741493,224.85114 132.66274,101 149.31726,67.688622 162.49093,47.735691 179.39148,30.224326 200.36438,8.4934222 217.39566,3.4275647e-4 240,3.4275648e-4 c 22.60434,0 39.63562,8.49307944352 60.60852,30.22398324352 16.90055,17.511365 30.07422,37.464296 46.72874,70.775674 61.92125,123.85114 107.42479,348.83371 125.5995,621 9.55476,143.08253 9.55476,365.9175 0,509 -18.17471,272.1663 -63.67825,497.1489 -125.5995,621 -20.85454,41.712 -40.53008,68.5006 -62.75906,85.4477 -18.03737,13.7514 -38.42604,18.435 -60.83222,13.9742 z M 246.122,1902.5616 C 318.94858,1887.125 384.81232,1690.4555 417.94402,1389.5 441.36719,1176.733 446.05066,927.98549 430.95429,698.5 405.84711,316.83617 330.52681,49.594637 243.94868,34.991344 200.07769,27.591544 155.42295,89.908535 119.4147,208.78213 48.41318,443.17861 17.821617,856.05911 43.045707,1239.5 c 24.810945,377.1605 99.142743,644.4733 184.365223,663.0161 7.94471,1.7287 10.73848,1.7354 18.71107,0.045 z"
       id="path869"
       inkscape:connector-curvature="0" />
    <path
       style="fill:#fafcfb"
       d="m 224.63163,1951.4889 c -22.17532,-4.007 -47.84593,-26.4865 -70.91815,-62.1023 C 68.90022,1758.4634 8.6191142,1438.7313 1.0204945,1079.5 -2.5320146,911.55208 2.0358217,763.80217 15.0409,626 46.743796,290.07525 121.674,51.47393 209.4399,6.9725112 c 18.24706,-9.2521135 42.87314,-9.2521135 61.1202,0 C 368.3061,56.53431 448.48194,343.6321 473.45246,733.5 c 8.72599,136.23997 8.72599,349.76 0,486 -23.48622,366.6933 -95.54943,643.0286 -186.71114,715.967 -19.08389,15.269 -38.52414,20.2838 -62.10969,16.0219 z m 21.56915,-48.594 C 318.52499,1887.8126 384.35563,1692.82 417.50025,1395.5 467.77549,944.51154 431.03806,394.30746 334.30415,149.5 273.57276,-4.1947598 200.42724,-4.1947598 139.69585,149.5 24.323556,441.47617 -1.5126428,1152.1072 87.033176,1598 c 40.840004,205.6592 99.176064,317.4054 159.167604,304.8949 z"
       id="path867"
       inkscape:connector-curvature="0" />
    <path
       style="fill:#fafafa"
       d="m 224.62904,1951.4007 c -13.16265,-2.6165 -29.50436,-13.0301 -44.344,-28.2578 -29.05029,-29.81 -58.60033,-86.4441 -82.833151,-158.7538 C 49.804071,1622.21 17.156687,1416.6634 4.4733489,1179 c -5.6815727,-106.4627 -5.6815727,-298.53733 0,-405 C 18.537406,510.46432 57.254827,286.43486 113.02143,145.91145 122.59507,121.78733 141.07139,83.972299 150.84445,68.5 175.61077,29.291025 201.44077,6.135003 225.55928,1.5198309 c 27.39562,-5.2422595 49.7604,3.3040505 74.15568,28.3372891 29.05029,29.809984 58.60033,86.44407 82.83315,158.75379 47.64782,142.17906 80.2952,347.72566 92.97854,585.38909 5.68157,106.46267 5.68157,298.5373 0,405 -14.06406,263.5357 -52.78148,487.5651 -108.54808,628.0886 -9.57364,24.1241 -28.04996,61.9391 -37.82302,77.4114 -19.67546,31.1493 -37.75325,50.0224 -58.47159,61.044 -13.26246,7.0552 -29.58424,9.1308 -46.05492,5.8567 z m 24.43946,-48.997 c 14.81015,-4.3528 30.22673,-16.6585 44.2693,-35.3361 71.39357,-94.9588 125.97511,-362.6665 142.12146,-697.0676 3.53214,-73.1527 4.03109,-98.0317 4.03109,-201 0,-102.96833 -0.49895,-127.84734 -4.03109,-201 C 419.31291,433.59893 364.73137,165.89117 293.3378,70.932425 275.13826,46.725678 255.72613,34 237,34 218.27387,34 198.86174,46.725678 180.6622,70.932425 109.26863,165.89117 54.687093,433.59893 38.540736,768 c -3.532132,73.15266 -4.031085,98.03167 -4.031085,201 0,102.9683 0.498953,127.8473 4.031085,201 13.98285,289.5935 56.687864,530.617 115.493494,651.8355 14.41007,29.7041 26.91348,48.2269 42.68341,63.2321 17.0597,16.2324 35.41948,22.3123 52.35086,17.3361 z"
       id="path865"
       inkscape:connector-curvature="0" />
    <path
       style="fill:#f8fafa"
       d="m 224.62904,1951.4007 c -13.16265,-2.6165 -29.50436,-13.0301 -44.344,-28.2578 C 163.54127,1905.9612 149.08619,1883.9825 132.50901,1850.5 66.557835,1717.2923 20.235033,1474.3462 4.4733489,1179 c -5.6815727,-106.4627 -5.6815727,-298.53733 0,-405 C 18.552143,510.18817 57.242248,286.48969 113.16928,145.54178 122.61128,121.74594 141.12479,83.887756 150.84445,68.5 175.61077,29.291025 201.44077,6.135003 225.55928,1.5198309 c 27.39562,-5.2422595 49.7604,3.3040505 74.15568,28.3372891 16.74377,17.181635 31.19885,39.16041 47.77603,72.64288 65.95118,133.20771 112.27398,376.15379 128.03566,671.5 5.68157,106.46267 5.68157,298.5373 0,405 -14.07879,263.8118 -52.7689,487.5103 -108.69593,628.4582 -9.442,23.7959 -27.95551,61.654 -37.67517,77.0418 -19.67546,31.1493 -37.75325,50.0224 -58.47159,61.044 -13.26246,7.0552 -29.58424,9.1308 -46.05492,5.8567 z m 24.43946,-48.997 c 14.81015,-4.3528 30.22673,-16.6585 44.2693,-35.3361 71.39675,-94.963 125.97439,-362.6517 142.12146,-697.0676 3.53214,-73.1527 4.03109,-98.0317 4.03109,-201 0,-102.96833 -0.49895,-127.84734 -4.03109,-201 C 419.31219,433.58406 364.73455,165.89539 293.3378,70.932425 275.13826,46.725678 255.72613,34 237,34 218.27387,34 198.86174,46.725678 180.6622,70.932425 109.26545,165.89539 54.687811,433.58406 38.540736,768 c -3.532132,73.15266 -4.031085,98.03167 -4.031085,201 0,102.9683 0.498953,127.8473 4.031085,201 13.983786,289.6129 56.683925,530.6088 115.493494,651.8355 14.41007,29.7041 26.91348,48.2269 42.68341,63.2321 17.0597,16.2324 35.41948,22.3123 52.35086,17.3361 z"
       id="path863"
       inkscape:connector-curvature="0" />
    <path
       style="fill:#f8f8f8"
       d="m 226,1951.51 c -33.10971,-6.6323 -69.04481,-47.3816 -98.91095,-112.1618 C 63.93832,1702.3731 19.879532,1464.5144 4.4942836,1177.5 2.2336978,1135.3284 0.04513139,1036.4552 0.04513139,976.5 c 0,-59.95521 2.18856641,-158.82839 4.44915221,-201 C 19.879532,488.4856 63.93832,250.62692 127.08905,113.6518 157.29692,48.13035 193.07785,7.8633631 226.83025,1.4054622 250.9256,-3.2047407 271.793,3.9440849 293.60907,24.282789 385.3856,109.84429 455.30177,398.59193 475.50572,775.5 c 2.26058,42.17161 4.44915,141.04479 4.44915,201 0,59.9552 -2.18857,158.8284 -4.44915,201 -15.38525,287.0144 -59.44404,524.8731 -122.59477,661.8482 -25.96815,56.3254 -57.06085,95.2142 -86.55543,108.2581 -11.49697,5.0845 -26.98267,6.5825 -40.35552,3.9037 z m 24.0685,-49.0925 c 44.43109,-12.9455 87.30361,-94.6165 120.87017,-230.2544 32.73741,-132.2874 55.15152,-306.0399 64.52114,-500.1631 3.54649,-73.4773 4.03253,-97.9451 4.03253,-203 0,-105.05493 -0.48604,-129.52271 -4.03253,-203 C 415.91428,361.04873 339.95305,61.771427 250.0685,35.58253 c -6.95815,-2.027335 -19.17885,-2.027335 -26.137,0 C 179.50041,48.52804 136.62789,130.19901 103.06133,265.83689 70.323919,398.12431 47.909808,571.87683 38.540186,766 c -3.546482,73.47729 -4.032526,97.94507 -4.032526,203 0,105.0549 0.486044,129.5227 4.032526,203 19.456932,403.1157 94.751814,701.4507 184.257514,730.0692 7.22711,2.3108 19.9763,2.4736 27.2708,0.3483 z"
       id="path861"
       inkscape:connector-curvature="0" />
    <path
       style="fill:#f6f8f8"
       d="m 226,1951.449 c -8.10532,-1.7358 -22.43175,-8.8138 -31.03167,-15.3313 C 148.45546,1900.8681 103.7518,1804.4541 69.961048,1666.5102 32.485603,1513.5242 9.0091853,1320.1117 1.8049281,1105 c -1.64200904,-49.0287 -1.64200904,-207.97131 0,-257 C 11.581601,556.07867 52.227228,300.46481 113.43123,146 122.68997,122.63308 138.27657,90.262249 148.60091,72.958309 186.37079,9.6546945 228.33388,-13.084751 269.5,7.4441011 297.98299,21.648089 322.82344,52.497835 348.8741,106.02004 419.31358,250.74099 467.44008,526.86715 478.19507,848 c 1.64201,49.02869 1.64201,207.9713 0,257 -10.75499,321.1328 -58.88149,597.259 -129.32097,741.98 -16.71867,34.3492 -31.8759,57.6942 -49.12404,75.6602 -10.37135,10.8031 -18.86804,17.2397 -30.25006,22.9157 -14.28514,7.1238 -28.66003,9.0712 -43.5,5.8931 z m 20.25727,-47.9157 C 305.15299,1891.0528 360.34481,1760.7455 396.96695,1547.7094 434.50837,1329.3257 449.0051,1040.1174 435.97513,769.5 419.23642,421.85644 361.60878,148.88681 286.56952,61.797993 268.3148,40.611992 248.4726,30.884193 229.90238,34.016465 170.08568,44.105859 114.12354,174.53008 77.033052,390.2906 39.491627,608.67431 24.994901,897.88258 38.024873,1168.5 c 18.878777,392.0903 89.437817,684.4566 176.186727,730.0419 6.66772,3.5037 16.24082,6.236 22.2884,6.3612 1.65,0.034 6.04077,-0.5822 9.75727,-1.3698 z"
       id="path859"
       inkscape:connector-curvature="0" />
    <path
       style="fill:#f6f7f7"
       d="M 225.5,1951.1227 C 121.49569,1925.4179 33.537209,1630.3835 7.5307041,1220 2.1580371,1135.2191 0.55588382,1079.2859 0.55588382,976.5 0.55588382,873.71409 2.1580371,817.78085 7.5307041,733 25.123947,455.37808 71.70052,223.52725 135.01426,98.406961 210.11798,-50.012616 298.5411,-29.383928 369.02267,153 c 51.16845,132.40769 88.26161,340.37999 103.44663,580 5.37266,84.78085 6.97482,140.71409 6.97482,243.5 0,102.7859 -1.60216,158.7191 -6.97482,243.5 -17.59325,277.6219 -64.16982,509.4727 -127.48356,634.593 -37.19901,73.5125 -78.29224,106.7108 -119.48574,96.5297 z m 26.93216,-49.0064 c 18.50736,-6.5296 37.76659,-25.965 55.60992,-56.1184 39.53347,-66.8077 74.95931,-195.1766 98.38239,-356.4979 C 469.84075,1052.7342 443.22788,465.77285 347.13803,181.90553 325.82244,118.93532 302.83473,76.061953 277.7079,52.414448 262.9394,38.515432 252.31999,33.609925 237,33.609925 c -15.31999,0 -25.9394,4.905507 -40.7079,18.804523 C 88.437355,153.91932 17.109122,632.14176 36.014618,1127 c 15.185128,397.4762 83.148732,704.646 169.619072,766.6139 15.28318,10.9525 31.50191,13.8991 46.79847,8.5024 z"
       id="path857"
       inkscape:connector-curvature="0" />
    <path
       style="fill:#f5f8f7"
       d="m 225.5,1951.0987 c -15.37463,-4.2092 -26.18811,-10.8191 -40.72388,-24.8932 C 158.67667,1900.935 135.73782,1862.2348 113.52636,1806 75.842117,1710.5913 46.46978,1580.7562 26.495795,1421.2973 c -5.022208,-40.094 -5.180898,-41.4126 -5.993092,-49.7973 -0.319657,-3.3 -0.776308,-7.575 -1.01478,-9.5 C 17.81007,1348.456 12.968828,1295.1265 11,1268.5 c -0.569356,-7.7 -1.2478943,-16.475 -1.5078622,-19.5 -0.2599679,-3.025 -1.148181,-16.75 -1.9738067,-30.5 -2.0948498,-34.8877 -2.3957936,-40.3101 -3.024759,-54.5 -0.3047334,-6.875 -0.7640437,-16.325 -1.0206896,-21 -4.01897977,-73.2088 -4.01897977,-259.79123 0,-333 0.2566459,-4.675 0.7159562,-14.125 1.0206896,-21 0.6289654,-14.18991 0.9299092,-19.6123 3.024759,-54.5 C 8.3439568,720.75 9.2321699,707.025 9.4921378,704 9.7521057,700.975 10.430644,692.2 11,684.5 c 0.569356,-7.7 1.264624,-16.7 1.54504,-20 0.280415,-3.3 0.721533,-8.475 0.980261,-11.5 1.289009,-15.07083 5.245652,-56.21244 5.962622,-62 0.238472,-1.925 0.695123,-6.2 1.01478,-9.5 0.812194,-8.38472 0.970884,-9.7033 5.993092,-49.79726 C 46.46978,372.24375 75.842117,242.40869 113.52636,147 135.89371,90.370487 158.80229,51.829896 185.19533,26.426629 197.35527,14.722699 207.61117,7.9680294 219.80609,3.6315287 227.60189,0.85934919 229.68799,0.53998282 240,0.53998282 c 10.31201,0 12.39811,0.31936637 20.19391,3.09154588 4.78165,1.7003502 12.17039,5.2583373 16.41941,7.9066383 9.17367,5.717696 26.17486,21.777591 34.89378,32.961833 62.01109,79.54508 112.7326,253.57439 141.9971,487.20274 5.02221,40.09396 5.1809,41.41254 5.9931,49.79726 0.31965,3.3 0.77631,7.575 1.01478,9.5 1.67785,13.54405 6.51909,66.87349 8.48792,93.5 0.56936,7.7 1.24789,16.475 1.50786,19.5 0.25997,3.025 1.14818,16.75 1.97381,30.5 2.09485,34.8877 2.39579,40.31009 3.02476,54.5 0.30473,6.875 0.76404,16.325 1.02069,21 4.01898,73.20877 4.01898,259.7912 0,333 -0.25665,4.675 -0.71596,14.125 -1.02069,21 -0.62897,14.1899 -0.92991,19.6123 -3.02476,54.5 -0.82563,13.75 -1.71384,27.475 -1.97381,30.5 -0.25997,3.025 -0.9385,11.8 -1.50786,19.5 -1.55337,21.0078 -2.20484,28.5997 -5.01993,58.5 -2.31502,24.5888 -2.8616,30.1051 -3.46799,35 -0.23847,1.925 -0.69513,6.2 -1.01478,9.5 -0.8122,8.3847 -0.97089,9.7033 -5.9931,49.7973 -12.9633,103.4904 -29.48726,192.5739 -50.11947,270.2027 -26.55844,99.9263 -57.40424,172.7791 -91.87763,217 -8.71892,11.1842 -25.72011,27.2441 -34.89378,32.9618 -16.4731,10.2673 -35.62284,13.8777 -51.11332,9.6369 z m 27.64582,-49.02 c 16.61114,-6.3094 31.69041,-20.452 48.06432,-45.0787 83.06985,-124.9389 139.76171,-485.1404 139.76171,-888 0,-402.85964 -56.69186,-763.06111 -139.76171,-888 -16.32606,-24.55476 -31.14912,-38.483385 -48.06432,-45.164092 -8.09032,-3.195296 -24.20132,-3.195296 -32.29164,0 C 203.93898,42.516615 189.11592,56.44524 172.78986,81 89.720015,205.93889 33.028152,566.14036 33.028152,969 c 0,402.8596 56.691863,763.0611 139.761708,888 17.83986,26.8315 34.26672,41.3978 52.46081,46.5188 7.24083,2.0381 20.54641,1.3512 27.89515,-1.4401 z"
       id="path855"
       inkscape:connector-curvature="0" />
    <path
       style="fill:#f1f8f8"
       d="m 227.5,1951.5323 c -15.90735,-3.4695 -28.22738,-11.1265 -45.01144,-27.9748 C 164.41467,1905.4143 151.64616,1886.7576 135.56829,1855 87.803594,1760.6533 49.847924,1608.8378 26.063138,1417 14.166318,1321.0454 7.3988952,1233.971 2.3196834,1111.5 c -2.4068194,-58.0337 -2.4068194,-211.96628 0,-270 C 9.2114228,675.32499 21.156887,550.41221 42.101948,425.5 71.68957,249.04526 113.76212,119.88372 164.48856,49.776566 172.49223,38.714991 192.73558,18.545958 201.85915,12.543178 216.66472,2.8019676 233.11609,-1.4105632 247.92428,0.74775318 265.70655,3.3395452 279.40443,11.266144 297.51144,29.442536 315.58533,47.585675 328.35384,66.242363 344.43171,98 c 47.7647,94.34669 85.72037,246.16223 109.50515,438 11.89682,95.9546 18.66424,183.02902 23.74346,305.5 2.40682,58.03372 2.40682,211.9663 0,270 -6.89174,166.175 -18.83721,291.0878 -39.78227,416 -29.58762,176.4547 -71.66017,305.6163 -122.38661,375.7234 -7.95673,10.9967 -28.22907,31.2191 -37.23536,37.1435 -16.56243,10.895 -34.21691,14.7772 -50.77608,11.1654 z m 20.79681,-48.0214 c 35.91836,-9.3555 70.48554,-61.6321 100.67816,-152.2574 C 422.75503,1529.7975 457.07926,1114.7089 433.96128,723.5 419.51699,479.0697 384.14043,272.81881 335.46416,149.24646 327.29145,128.49876 312.31556,98.008429 303.29778,83.75696 285.94527,56.333498 266.99628,39.359686 248.29681,34.48909 205.0134,23.215196 161.67217,76.747503 125.02503,186.74646 51.24497,408.20251 16.920737,823.29112 40.038716,1214.5 c 14.44429,244.4303 49.820859,450.6812 98.497124,574.2535 8.17271,20.7477 23.1486,51.2381 32.16638,65.4895 24.58321,38.8507 51.63785,56.0288 77.59459,49.2679 z"
       id="path853"
       inkscape:connector-curvature="0" />
    <path
       style="fill:#f4f6f6"
       d="m 227.99799,1951.5149 c -16.0201,-3.1961 -28.44858,-10.8312 -45.50943,-27.9574 -12.54003,-12.5881 -19.40213,-21.3597 -30.77144,-39.3341 -8.1782,-12.9293 -23.38147,-42.7075 -31.25019,-61.2087 C 30.175591,1610.7188 -16.180941,1187.0526 5.5221496,772.5 17.532235,543.09432 49.845554,337.10995 96.02346,195.59069 116.10126,134.05919 139.3839,84.472794 164.48856,49.776566 172.49223,38.714991 192.73558,18.545958 201.85915,12.543178 216.7193,2.7660584 233.23977,-1.376256 248.25,0.91121134 258.80103,2.519123 268.84749,6.4286837 278.14085,12.543178 c 9.12357,6.00278 29.36692,26.171813 37.37059,37.233388 30.00077,41.462966 56.97456,103.303234 79.97138,183.342844 67.07485,233.45168 97.35777,596.63222 78.99503,947.38059 -12.01008,229.4057 -44.3234,435.39 -90.50131,576.9093 -20.0778,61.5315 -43.36044,111.1179 -68.4651,145.8141 -7.95673,10.9967 -28.22907,31.2191 -37.23536,37.1435 -8.89799,5.8532 -17.36319,9.3635 -27.05059,11.217 -8.8325,1.6899 -14.49539,1.6731 -23.2275,-0.069 z m 20.29882,-48.004 c 35.91836,-9.3555 70.48554,-61.6321 100.67816,-152.2574 C 422.75503,1529.7975 457.07926,1114.7089 433.96128,723.5 419.51699,479.0697 384.14043,272.81881 335.46416,149.24646 327.29145,128.49876 312.31556,98.008429 303.29778,83.75696 285.94527,56.333498 266.99628,39.359686 248.29681,34.48909 205.0134,23.215196 161.67217,76.747503 125.02503,186.74646 51.24497,408.20251 16.920737,823.29112 40.038716,1214.5 c 14.44429,244.4303 49.820859,450.6812 98.497124,574.2535 8.17271,20.7477 23.1486,51.2381 32.16638,65.4895 24.58321,38.8507 51.63785,56.0288 77.59459,49.2679 z"
       id="path851"
       inkscape:connector-curvature="0" />
    <path
       style="fill:#f4f4f4"
       d="m 228.5,1951.5671 c -25.79109,-6.047 -47.96756,-24.4787 -71.10135,-59.0952 C 84.927031,1784.0283 29.725375,1539.9815 9.0224623,1236.5 1.8257295,1131.004 -1.1156339,1015.1192 0.84562657,914.3463 2.3988989,834.53656 4.5948088,781.40443 9.0224623,716.5 34.826299,338.24469 113.30458,60.468515 209,8.67365 c 20.26582,-10.9688141 41.73418,-10.9688141 62,0 95.69542,51.794865 174.1737,329.57104 199.97754,707.82635 7.19673,105.49603 10.13809,221.38085 8.17683,322.1537 -1.55327,79.8097 -3.74918,132.9419 -8.17683,197.8463 -27.02687,396.1836 -111.93956,681.156 -212.47754,713.0882 -9.88059,3.1383 -21.72333,3.9194 -30,1.9789 z m 26.18551,-49.8319 c 9.19596,-3.7802 16.81861,-9.1895 26.3643,-18.7089 77.32772,-77.115 138.23372,-356.1618 155.41,-712.0263 3.53934,-73.3292 4.03154,-97.9911 4.03154,-202 0,-104.00887 -0.4922,-128.67081 -4.03154,-202 C 419.28353,411.13555 358.37753,132.08871 281.04981,54.973712 271.58919,45.539117 264.01559,40.141358 254.68551,36.183681 249.21373,33.862634 247.17305,33.559882 237,33.559882 c -10.17305,0 -12.21373,0.302752 -17.68551,2.623799 -9.33008,3.957677 -16.90368,9.355436 -26.3643,18.790031 C 115.62247,132.08871 54.716473,411.13555 37.540186,767 c -3.539334,73.32919 -4.03154,97.99113 -4.03154,202 0,104.0089 0.492206,128.6708 4.03154,202 17.876121,370.3639 82.895554,655.5171 164.200304,720.127 7.50984,5.9678 17.11943,11.1283 23.87794,12.8228 7.09479,1.7788 22.14143,0.6324 29.06708,-2.2146 z"
       id="path849"
       inkscape:connector-curvature="0" />
    <path
       style="fill:#eef7f6"
       d="m 230.49987,1952.0512 c -23.56016,-5.0746 -44.41261,-20.5323 -65.0781,-48.2418 C 83.668263,1794.1895 22.580505,1514.631 5.5103874,1172 c -7.0058499,-140.6212 -7.0058499,-250.37877 0,-391 C 22.580505,438.36905 83.668263,158.81049 165.42177,49.190613 183.47735,24.980631 201.58092,10.203071 221.5,3.4151327 c 6.71188,-2.2872445 9.69066,-2.72620504 18.5,-2.72620504 15.91118,0 28.07988,4.63666024 44.67954,17.02432534 47.1986,35.222443 93.60715,137.277617 127.31682,279.977277 35.08161,148.50738 56.08435,322.16241 64.98498,537.30947 7.59311,183.5415 -1.05289,401.2541 -22.98403,578.7547 C 413.52499,1741.319 332.39443,1947.986 242.5,1952.5101 c -4.4,0.2215 -9.80006,0.015 -12.00013,-0.4589 z M 251,1902.9645 c 9.68792,-2.8323 18.33228,-8.4194 28.5683,-18.4645 25.76233,-25.2818 48.05518,-67.9616 69.99183,-134 C 420.60819,1536.6161 455.20198,1143.1046 436.45966,762 420.25511,432.49825 366.01102,167.56694 294.97442,70.97785 286.79244,59.852733 272.02695,45.454405 263.94862,40.723525 254.86235,35.402374 246.05674,32.819782 237,32.819782 c -14.89591,0 -27.96464,6.348954 -42.5683,20.680218 -25.76233,25.281779 -48.05518,67.96165 -69.99183,134 C 53.391812,401.38391 18.798022,794.89538 37.540341,1176 c 16.204987,329.5107 70.558759,594.9312 141.510029,691.0222 12.49356,16.9203 27.94894,30.2148 40.6505,34.9671 11.3092,4.2313 19.30887,4.4805 31.29913,0.9752 z"
       id="path847"
       inkscape:connector-curvature="0" />
    <path
       style="fill:#f2f4f4"
       d="m 231,1952.0511 c -22.94145,-4.2649 -44.7402,-20.3009 -65.57823,-48.2417 C 83.709855,1794.2453 22.682506,1515.1193 5.5302426,1172.5 1.558846,1093.1707 0.70085612,1058.3493 0.70085612,976.5 c 0,-81.84928 0.85798988,-116.67069 4.82938648,-196 C 22.682506,437.88067 83.709855,158.75472 165.42177,49.190613 183.49255,24.960244 201.64393,10.150457 221.5,3.4361444 c 11.4354,-3.86687162 25.5646,-3.86687162 37,0 19.85607,6.7143126 38.00745,21.5240996 56.07823,45.7544686 C 396.29015,158.75472 457.31749,437.88067 474.46976,780.5 c 3.97139,79.32931 4.82938,114.15072 4.82938,196 0,81.8493 -0.85799,116.6707 -4.82938,196 -17.15227,342.6193 -78.17961,621.7453 -159.89153,731.3094 -13.57146,18.1974 -27.93037,31.6673 -42.57823,39.9422 -12.01718,6.7887 -29.78244,10.3849 -41,8.2995 z m 20,-49.0866 c 9.68792,-2.8323 18.33228,-8.4194 28.5683,-18.4645 25.76233,-25.2818 48.05518,-67.9616 69.99183,-134 C 420.60819,1536.6161 455.20198,1143.1046 436.45966,762 420.25511,432.49825 366.01102,167.56694 294.97442,70.97785 286.79244,59.852733 272.02695,45.454405 263.94862,40.723525 254.86235,35.402374 246.05674,32.819782 237,32.819782 c -14.89591,0 -27.96464,6.348954 -42.5683,20.680218 -25.76233,25.281779 -48.05518,67.96165 -69.99183,134 C 53.391812,401.38391 18.798022,794.89538 37.540341,1176 c 16.204987,329.5107 70.558759,594.9312 141.510029,691.0222 12.49356,16.9203 27.94894,30.2148 40.6505,34.9671 11.3092,4.2313 19.30887,4.4805 31.29913,0.9752 z"
       id="path845"
       inkscape:connector-curvature="0" />
    <path
       style="fill:#f2f2f2"
       d="M 231.5,1952.059 C 187.91676,1943.1672 149.55816,1895.1201 113.69562,1804.5 55.663632,1657.8605 15.091445,1411.6047 4.0503264,1139 c -0.5457687,-13.475 -1.5307046,-37.1 -2.1887465,-52.5 -1.56878241,-36.7138 -1.56878241,-183.28615 0,-220 C 2.5196218,851.1 3.5045577,827.475 4.0503264,814 15.091445,541.39535 55.663632,295.13953 113.69562,148.5 140.86328,79.85074 169.7032,35.432498 201,14.03687 c 26.29253,-17.974533 51.70747,-17.974533 78,0 31.2968,21.395628 60.13672,65.81387 87.30438,134.46313 58.03199,146.63953 98.60417,392.89535 109.64529,665.5 0.54577,13.475 1.53071,37.1 2.18875,52.5 1.56878,36.71385 1.56878,183.2862 0,220 -0.65804,15.4 -1.64298,39.025 -2.18875,52.5 -3.11121,76.8157 -9.13841,158.589 -17.02612,231 -34.37988,315.615 -106.4297,533.2592 -190.42355,575.221 -11.81771,5.904 -27.43296,8.7898 -37,6.838 z m 21.20596,-49.2044 c 8.90433,-2.7373 19.58824,-10.3311 30.3955,-21.6044 26.43761,-27.5775 50.08634,-75.9538 72.23549,-147.7663 C 434.39114,1477.1724 463.32139,999.75601 424.44745,593 402.67318,365.16587 361.01113,182.40181 311.02627,95.441354 296.79646,70.685232 281.03625,51.850806 266.30742,41.999569 c -18.72494,-12.524004 -39.8899,-12.524004 -58.61484,0 C 170.58755,66.816926 135.85433,136.75473 107.12477,244.5 c -63.555691,238.35464 -89.833712,633.60497 -66.085599,994 14.783395,224.3488 46.831167,413.3552 90.457099,533.4839 18.75368,51.6402 37.87286,86.8086 59.40227,109.2663 21.19878,22.1129 39.42687,28.4844 61.80742,21.6044 z"
       id="path843"
       inkscape:connector-curvature="0" />
    <path
       style="fill:#f0f2f2"
       d="m 232.5,1952.3759 c -1.65,-0.2455 -3.9,-0.8341 -5,-1.3079 -1.1,-0.4739 -4.925,-1.8637 -8.5,-3.0885 C 197.87498,1940.7419 176.5278,1920.8353 155.75231,1889 78.611747,1770.7936 21.304651,1494.2884 5.4924106,1164 -1.292546,1022.2748 -1.292546,930.72517 5.4924106,789 24.951541,382.53482 105.89507,69.27324 206.60252,10.678744 209.84614,8.7915178 215.425,6.245296 219,5.0204738 c 3.575,-1.2248222 7.57149,-2.7381011 8.88108,-3.3628421 3.08862,-1.4734264 21.14922,-1.4734264 24.23784,0 C 253.42851,2.2823727 257.425,3.7956516 261,5.0204738 282.12502,12.258065 303.4722,32.164674 324.24769,64 c 77.14056,118.20638 134.44766,394.71159 150.2599,725 6.78496,141.72517 6.78496,233.2748 0,375 -19.45913,406.4652 -100.40266,719.7268 -201.11011,778.3213 -3.24362,1.8872 -8.82248,4.4257 -12.39748,5.6411 -3.575,1.2154 -7.26099,2.6084 -8.1911,3.0954 -2.00093,1.0478 -16.01384,1.9573 -20.3089,1.3181 z M 248,1904.439 c 41.16264,-9.6983 81.27213,-77.4415 114.02147,-192.5773 C 454.01869,1388.4299 468.7853,776.80361 394.44651,368.83129 357.13861,164.08505 302.8385,42.60252 244.25,32.805258 202.06717,25.751378 159.79501,79.571121 124.60158,185.13831 22.364891,491.81038 1.2801979,1139.6038 79.553494,1569.1687 120.95229,1796.3659 182.95057,1919.7652 248,1904.439 Z"
       id="path841"
       inkscape:connector-curvature="0" />
    <path
       style="fill:#f0f1f1"
       d="m 232.51298,1952.3036 c -2.19287,-0.2489 -4.21787,-0.7634 -4.5,-1.1433 -0.28214,-0.3798 -3.66298,-1.6882 -7.51298,-2.9074 C 154.48809,1927.3481 91.847724,1787.8933 50.931502,1570.7466 27.469913,1446.2335 11.703188,1300.5474 4.9637517,1146 c -5.9668051,-136.8295 -5.9668051,-202.17045 0,-339 C 15.754324,559.55283 49.153543,340.53833 98.902369,191 134.48504,84.043246 177.32893,18.418621 220.5,4.7470963 c 3.85,-1.2192278 7.30162,-2.6420995 7.67026,-3.1619371 0.87466,-1.23338726 22.78482,-1.23338726 23.65948,0 C 252.19838,2.1049968 255.65,3.5278685 259.5,4.7470963 325.51191,25.651918 388.15228,165.10665 429.0685,382.25337 452.53009,506.76651 468.29681,652.45263 475.03625,807 c 5.9668,136.82955 5.9668,202.1705 0,339 -10.79057,247.4472 -44.18979,466.4617 -93.93862,616 -35.58267,106.9568 -78.42656,172.5814 -121.59763,186.2529 -3.85,1.2192 -7.225,2.5135 -7.5,2.8761 -0.68072,0.8976 -14.55809,1.7341 -19.48702,1.1746 z m 22.17253,-49.5684 c 18.13978,-7.4568 37.03449,-26.6027 53.51146,-54.2229 61.90671,-103.7736 109.73089,-342.2436 126.74747,-632.0123 5.61013,-95.5327 6.54828,-130.9913 6.54828,-247.5 0,-116.50875 -0.93815,-151.96732 -6.54828,-247.5 C 416.73532,411.42398 363.57284,162.59904 295.95979,70.987696 288.22535,60.508023 274.43316,46.66467 266.68551,41.604819 c -3.19797,-2.088537 -8.59797,-4.978049 -12,-6.421138 -5.47178,-2.321047 -7.51246,-2.623799 -17.68551,-2.623799 -10.17305,0 -12.21373,0.302752 -17.68551,2.623799 -18.40411,7.806743 -37.07865,26.757865 -53.51146,54.304015 C 103.89632,193.26129 56.072141,431.73127 39.055561,721.5 33.445434,817.03268 32.507282,852.49125 32.507282,969 c 0,100.4542 0.477453,126.2979 3.547134,192 17.778127,380.5153 83.550314,669.0353 166.916534,732.2054 6.97452,5.2849 16.4198,10.183 22.64748,11.7444 7.09479,1.7788 22.14143,0.6324 29.06708,-2.2146 z"
       id="path839"
       inkscape:connector-curvature="0" />
    <path
       style="fill:#f0f0f0"
       d="m 232,1952 c -2.475,-0.3848 -4.05,-0.7873 -3.5,-0.8945 0.55,-0.1073 -2.23228,-1.2419 -6.18285,-2.5216 -14.54833,-4.7123 -26.70185,-12.9804 -41.05191,-27.9277 C 114.25463,1850.8564 57.9759,1665.4523 26.560995,1411 14.838797,1316.0534 5.855842,1195.1241 3.3805334,1098.9429 c -0.4177581,-16.2325 -1.0771173,-26.701 -1.7076152,-27.1114 -1.4300355,-0.9307 -1.4300355,-189.73233 0,-190.66304 0.6304979,-0.41035 1.2898571,-10.87881 1.7076152,-27.11134 C 4.5153397,809.96278 7.1274872,758.82919 11.071708,703.5 32.854644,397.93088 91.178665,151.17201 165.17646,51.50937 183.8644,26.339854 202.90931,10.618606 222.07214,4.5429803 c 3.81581,-1.2098143 6.70073,-2.4367725 6.41093,-2.7265738 -0.97294,-0.97294272 11.45444,-1.79227332 17.53885,-1.15632682 3.31205,0.34617832 5.78481,0.86652542 5.49501,1.15632682 -0.2898,0.2898013 2.59512,1.5167595 6.41093,2.7265738 14.16204,4.4901116 26.49239,12.8905087 40.8069,27.8008307 C 365.74537,102.14363 422.0241,287.54774 453.43901,542 c 11.72219,94.94664 20.70515,215.87586 23.18046,312.05712 0.41775,16.23253 1.07711,26.70099 1.70761,27.11134 1.43004,0.93071 1.43004,189.73234 0,190.66304 -0.6305,0.4104 -1.28986,10.8789 -1.70761,27.1114 -1.13481,44.0943 -3.74696,95.2279 -7.69118,150.5571 -21.78293,305.5691 -80.10696,552.328 -154.10475,651.9906 -18.74637,25.2482 -37.55448,40.7492 -57.14069,47.0933 -3.95057,1.2797 -6.73285,2.4069 -6.18285,2.505 1.63957,0.2924 -8.74965,1.7411 -12,1.6733 -1.65,-0.034 -5.025,-0.3774 -7.5,-0.7622 z m 22.97984,-48.9376 C 326.70021,1874.0807 388.93838,1680.5337 420.92806,1387 c 10.38058,-95.251 16.98707,-197.252 20.07835,-310 1.25378,-45.7287 1.25378,-170.27128 0,-216 C 435.54214,661.70231 418.1842,485.49479 389.88051,342 354.73476,163.81715 307.79076,56.936205 254.97984,34.861455 250.25975,32.888473 247.76695,32.570903 237,32.570903 c -14.38848,0 -18.35814,1.202202 -30.47984,9.230759 C 130.67988,92.032889 67.248876,333.88489 42.548147,667 35.111813,767.28673 32.020258,855.97018 32.020258,969 c 0,113.0298 3.091555,201.7133 10.527889,302 22.420428,302.3629 76.309883,529.2733 144.311953,607.6494 10.98101,12.6562 26.54128,23.4778 37.83838,26.3153 6.7359,1.6918 24.084,0.602 30.28136,-1.9023 z"
       id="path837"
       inkscape:connector-curvature="0" />
    <path
       style="fill:#eff0ef"
       d="m 232,1952 c -2.475,-0.3848 -3.6,-0.792 -2.5,-0.9049 1.1,-0.1129 -1.27801,-1.0641 -5.28447,-2.1137 -14.16109,-3.7102 -27.84481,-12.6686 -42.376,-27.7424 C 97.617281,1833.8718 31.718907,1566.624 9.5434011,1222.5 6.5300902,1175.7388 3.2290012,1099.3745 2.8042541,1066.6029 2.6102582,1051.635 2.6035534,1051.5939 2.0542541,1062 1.0039438,1081.8975 -0.0341116,976.7837 0.73561492,928.47423 1.1837156,900.3506 1.7293372,884.84465 2.0542541,891 c 0.5492993,10.40613 0.5560041,10.36498 0.75,-4.6029 C 3.2290012,853.62546 6.5300902,777.26117 9.5434011,730.5 31.718907,386.37603 97.617281,119.12821 181.83953,31.760975 196.37072,16.687171 210.05444,7.7288424 224.21553,4.0186487 228.22199,2.9689596 230.6,2.0292053 229.5,1.9303058 c -1.1,-0.0989 0.475,-0.5640988 3.5,-1.03377613 5.26082,-0.81682239 21.62323,0.038874 17.51746,0.91610143 -1.16149,0.2481603 1.02703,1.1878745 5.28447,2.2690637 14.0112,3.5581838 27.7776,12.5538722 42.35854,27.6792802 C 382.38272,119.12821 448.28109,386.37603 470.4566,730.5 c 3.01331,46.76117 6.3144,123.12546 6.73915,155.8971 0.19399,14.96788 0.2007,15.00903 0.75,4.6029 1.05031,-19.89748 2.08836,85.2163 1.31864,133.5258 -0.44811,28.1236 -0.99373,43.6295 -1.31864,37.4742 -0.5493,-10.4061 -0.55601,-10.365 -0.75,4.6029 -0.42475,32.7716 -3.72584,109.1359 -6.73915,155.8971 -22.17551,344.124 -88.07388,611.3718 -172.29613,698.739 -14.53119,15.0738 -28.21491,24.0322 -42.376,27.7424 -4.00646,1.0496 -6.38447,1.9934 -5.28447,2.0972 2.67875,0.2527 -7.18959,1.7631 -11,1.6836 -1.65,-0.034 -5.025,-0.3774 -7.5,-0.7622 z m 20.07213,-47.9226 c 16.16944,-5.0384 32.77808,-19.8584 48.83685,-43.5774 67.93514,-100.3411 119.57805,-355.2426 136.04555,-671.5 3.08401,-59.2281 3.92339,-84.1547 5.21109,-154.75 C 445.41739,855.97939 435.80685,664.36727 415.45524,501.70639 381.62051,231.28125 319.90574,55.08512 251.54153,33.731496 229.5624,26.866298 206.93666,35.976649 186.30315,60 122.98952,133.7153 72.122832,334.04981 47.034185,608.5 34.806055,742.26618 29.314287,896.09184 31.834378,1034.25 c 1.287702,70.5953 2.127087,95.5219 5.211089,154.75 16.467505,316.2574 68.110413,571.1589 136.045553,671.5 25.7662,38.057 51.36683,52.182 78.98111,43.5774 z"
       id="path835"
       inkscape:connector-curvature="0" />
    <path
       style="fill:#eef0f0"
       d="m 232,1952 c -2.475,-0.3848 -3.6,-0.8047 -2.5,-0.9331 1.1,-0.1284 -0.69391,-0.8848 -3.98646,-1.6807 C 218.80939,1947.7655 206,1942.1633 206,1940.852 c 0,-0.4686 -0.5625,-0.8563 -1.25,-0.8616 -2.33816,-0.018 -14.24944,-9.7669 -22.91047,-18.7514 -21.62592,-22.4334 -45.375,-62.3538 -62.31044,-104.739 -1.53831,-3.85 -3.58379,-8.8 -4.54552,-11 -8.08085,-18.4854 -25.10599,-71.0993 -35.370834,-109.3089 -9.047481,-33.678 -22.602524,-93.3594 -26.957556,-118.6911 -0.283668,-1.65 -0.983524,-5.475 -1.555236,-8.5 -0.571712,-3.025 -1.281202,-6.85 -1.576644,-8.5 -0.295442,-1.65 -1.874942,-10.425 -3.51,-19.5 -2.497651,-13.8626 -7.538732,-45.0509 -9.374759,-58 -0.272942,-1.925 -1.627488,-11.375 -3.010101,-21 -2.487379,-17.3158 -5.998251,-44.3647 -7.13884,-55 -0.324418,-3.025 -0.776976,-6.4 -1.005683,-7.5 -0.228707,-1.1 -0.662104,-4.925 -0.963103,-8.5 -0.300999,-3.575 -0.739933,-8.075 -0.975408,-10 -0.235474,-1.925 -0.6822,-5.75 -0.992723,-8.5 -0.310523,-2.75 -0.99273,-8.6 -1.516015,-13 -0.523286,-4.4 -1.212953,-11.375 -1.532593,-15.5 -0.319641,-4.125 -0.757904,-8.175 -0.973919,-9 -0.216014,-0.825 -0.669655,-5.55 -1.00809,-10.5 -0.338435,-4.95 -0.801139,-10.8 -1.028231,-13 -0.726327,-7.0365 -2.443026,-26.7536 -3.003786,-34.5 -0.298608,-4.125 -0.9297,-12.225 -1.402426,-18 -0.472727,-5.775 -0.860866,-11.175 -0.862532,-12 -0.0017,-0.825 -0.714115,-12.075 -1.5832205,-25 -0.8691055,-12.925 -1.8343477,-28.675 -2.1449827,-35 -0.310635,-6.325 -0.7590469,-15.1 -0.996471,-19.5 -1.0373874,-19.2251 -3.606721,-84.8028 -3.3795632,-86.2573 C 3.1846473,1080.8342 3.095467,1073.975 2.9226752,1066 L 2.6085083,1051.5 2.0542541,1062 C 1.0039438,1081.8975 -0.0341116,976.7837 0.73561492,928.47423 1.1837156,900.3506 1.7293372,884.84465 2.0542541,891 L 2.6085083,901.5 2.9226752,887 C 3.095467,879.025 3.1846473,872.16578 3.1208536,871.7573 2.8936958,870.30275 5.4630294,804.72511 6.5004168,785.5 c 0.2374241,-4.4 0.685836,-13.175 0.996471,-19.5 0.310635,-6.325 1.2758772,-22.075 2.1449827,-35 0.8691055,-12.925 1.5815545,-24.175 1.5832205,-25 0.0017,-0.825 0.389805,-6.225 0.862532,-12 0.472726,-5.775 1.103818,-13.875 1.402426,-18 0.56076,-7.7464 2.277459,-27.46355 3.003786,-34.5 0.227092,-2.2 0.689796,-8.05 1.028231,-13 0.338435,-4.95 0.792076,-9.675 1.00809,-10.5 0.216015,-0.825 0.654278,-4.875 0.973919,-9 0.31964,-4.125 1.009307,-11.1 1.532593,-15.5 0.523285,-4.4 1.205492,-10.25 1.516015,-13 0.310523,-2.75 0.757249,-6.575 0.992723,-8.5 0.235475,-1.925 0.674409,-6.425 0.975408,-10 0.300999,-3.575 0.734396,-7.4 0.963103,-8.5 0.228707,-1.1 0.681265,-4.475 1.005683,-7.5 1.140589,-10.63531 4.651461,-37.68423 7.13884,-55 1.382613,-9.625 2.737159,-19.075 3.010101,-21 1.836027,-12.94909 6.877108,-44.13738 9.374759,-58 1.635058,-9.075 3.214558,-17.85 3.51,-19.5 0.295442,-1.65 1.004932,-5.475 1.576644,-8.5 0.571712,-3.025 1.271568,-6.85 1.555236,-8.5 C 57.010212,350.16826 70.565255,290.48691 79.612736,256.80886 89.87758,218.59933 106.90272,165.9854 114.98357,147.5 c 0.96173,-2.2 3.00721,-7.15 4.54552,-11 16.93544,-42.385197 40.68452,-82.30556 62.31044,-104.739025 8.66103,-8.98444 20.57231,-18.733381 22.91047,-18.751362 0.6875,-0.0053 1.25,-0.392996 1.25,-0.861575 0,-1.311339 12.80939,-6.9134973 19.51354,-8.5342052 C 228.80609,2.817869 230.6,2.0729949 229.5,1.9585571 228.4,1.8441193 229.975,1.366207 233,0.89652967 c 5.83455,-0.90590324 20.73417,-0.0310163 17.68533,1.03846033 -1.1982,0.4203039 0.0847,1.0234073 3.8625,1.8158106 C 260.71583,5.0445516 274,10.779148 274,12.148038 c 0,0.468579 0.5625,0.856288 1.25,0.861575 2.33816,0.01798 14.24944,9.766922 22.91047,18.751362 21.62592,22.433465 45.375,62.353828 62.31044,104.739025 1.53831,3.85 3.58379,8.8 4.54552,11 8.08085,18.4854 25.10599,71.09933 35.37083,109.30886 9.04749,33.67805 22.60253,93.3594 26.95756,118.69114 0.28367,1.65 0.98352,5.475 1.55524,8.5 0.57171,3.025 1.2812,6.85 1.57664,8.5 0.29544,1.65 1.87494,10.425 3.51,19.5 2.49765,13.86262 7.53873,45.05091 9.37476,58 0.27294,1.925 1.62749,11.375 3.0101,21 2.48738,17.31577 5.99825,44.36469 7.13884,55 0.32442,3.025 0.77698,6.4 1.00568,7.5 0.22871,1.1 0.66211,4.925 0.96311,8.5 0.301,3.575 0.73993,8.075 0.9754,10 0.23548,1.925 0.6822,5.75 0.99273,8.5 0.31052,2.75 0.99273,8.6 1.51601,13 0.52329,4.4 1.21295,11.375 1.5326,15.5 0.31964,4.125 0.7579,8.175 0.97391,9 0.21602,0.825 0.66966,5.55 1.00809,10.5 0.33844,4.95 0.80114,10.8 1.02823,13 0.72633,7.03645 2.44303,26.7536 3.00379,34.5 0.29861,4.125 0.9297,12.225 1.40243,18 0.47272,5.775 0.86086,11.175 0.86253,12 0.002,0.825 0.71411,12.075 1.58322,25 0.8691,12.925 1.83435,28.675 2.14498,35 0.31064,6.325 0.75905,15.1 0.99647,19.5 1.03739,19.22511 3.60672,84.80275 3.37957,86.2573 -0.0638,0.40848 0.0254,7.2677 0.19817,15.2427 l 0.31417,14.5 0.55426,-10.5 c 1.05031,-19.89748 2.08836,85.2163 1.31864,133.5258 -0.44811,28.1236 -0.99373,43.6295 -1.31864,37.4742 l -0.55426,-10.5 -0.31417,14.5 c -0.17279,7.975 -0.26197,14.8342 -0.19817,15.2427 0.22715,1.4545 -2.34218,67.0322 -3.37957,86.2573 -0.23742,4.4 -0.68583,13.175 -0.99647,19.5 -0.31063,6.325 -1.27588,22.075 -2.14498,35 -0.86911,12.925 -1.58156,24.175 -1.58322,25 -0.002,0.825 -0.38981,6.225 -0.86253,12 -0.47273,5.775 -1.10382,13.875 -1.40243,18 -0.56076,7.7464 -2.27746,27.4635 -3.00379,34.5 -0.22709,2.2 -0.68979,8.05 -1.02823,13 -0.33843,4.95 -0.79207,9.675 -1.00809,10.5 -0.21601,0.825 -0.65427,4.875 -0.97391,9 -0.31965,4.125 -1.00931,11.1 -1.5326,15.5 -0.52328,4.4 -1.20549,10.25 -1.51601,13 -0.31053,2.75 -0.75725,6.575 -0.99273,8.5 -0.23547,1.925 -0.6744,6.425 -0.9754,10 -0.301,3.575 -0.7344,7.4 -0.96311,8.5 -0.2287,1.1 -0.68126,4.475 -1.00568,7.5 -1.14059,10.6353 -4.65146,37.6842 -7.13884,55 -1.38261,9.625 -2.73716,19.075 -3.0101,21 -1.83603,12.9491 -6.87711,44.1374 -9.37476,58 -1.63506,9.075 -3.21456,17.85 -3.51,19.5 -0.29544,1.65 -1.00493,5.475 -1.57664,8.5 -0.57172,3.025 -1.27157,6.85 -1.55524,8.5 -4.35503,25.3317 -17.91007,85.0131 -26.95756,118.6911 -10.26484,38.2096 -27.28998,90.8235 -35.37083,109.3089 -0.96173,2.2 -3.00721,7.15 -4.54552,11 -16.93544,42.3852 -40.68452,82.3056 -62.31044,104.739 -8.66103,8.9845 -20.57231,18.7334 -22.91047,18.7514 -0.6875,0.01 -1.25,0.393 -1.25,0.8616 0,1.3113 -12.80939,6.9135 -19.51354,8.5342 -3.29255,0.7959 -5.08646,1.5448 -3.98646,1.6641 2.6096,0.283 -7.09513,1.7934 -11,1.7119 -1.65,-0.034 -5.025,-0.3774 -7.5,-0.7622 z m 20.07213,-47.9226 c 16.16944,-5.0384 32.77808,-19.8584 48.83685,-43.5774 67.93514,-100.3411 119.57805,-355.2426 136.04555,-671.5 3.08401,-59.2281 3.92339,-84.1547 5.21109,-154.75 C 445.41739,855.97939 435.80685,664.36727 415.45524,501.70639 381.62051,231.28125 319.90574,55.08512 251.54153,33.731496 229.5624,26.866298 206.93666,35.976649 186.30315,60 122.98952,133.7153 72.122832,334.04981 47.034185,608.5 34.806055,742.26618 29.314287,896.09184 31.834378,1034.25 c 1.287702,70.5953 2.127087,95.5219 5.211089,154.75 16.467505,316.2574 68.110413,571.1589 136.045553,671.5 25.7662,38.057 51.36683,52.182 78.98111,43.5774 z"
       id="path833"
       inkscape:connector-curvature="0" />
    <path
       style="fill:#efefef"
       d="m 232,1952 c -3.67342,-0.5711 -3.94895,-0.7418 -1.5,-0.9293 2.22397,-0.1703 1.35244,-0.5872 -3.36914,-1.6117 C 212.99357,1946.3914 198.02721,1937.1361 183.5,1922.4772 149.70952,1888.3803 116.83156,1821.3356 89.964869,1731.7404 40.512701,1566.827 8.4068891,1320.5726 3.2330855,1066.5 L 2.5,1030.5 2,1051.5 C 1.6206175,1067.4341 1.3275731,1058.629 0.78523263,1015 0.39211057,983.375 0.42659643,940.175 0.86186788,919 1.5838449,883.8774 1.6825976,882.34222 1.9875788,901.5 2.3216876,922.48747 2.3223402,922.48 3.080871,889 10.037183,581.96258 51.362788,309.50314 115.62459,147 135.97248,95.54492 160.10859,54.12631 183.5,30.522838 198.02721,15.863932 212.99357,6.6085523 227.13086,3.5409978 231.75515,2.5376035 232.67814,2.1034068 230.5,1.956072 c -1.80217,-0.1219032 -0.50451,-0.5609041 3.25,-1.099488 3.68594,-0.52874714 8.81406,-0.52874714 12.5,0 3.75451,0.5385839 5.05217,0.9775848 3.25,1.099488 -2.17814,0.1473348 -1.25515,0.5815315 3.36914,1.5849258 C 277.7287,8.9351063 302.25355,31.08341 327.28652,70.747056 342.65585,95.099079 364.42989,143.68108 378.49373,185 c 56.06558,164.71815 92.03644,422.00419 98.4254,704 0.75853,33.48 0.75918,33.48747 1.09329,12.5 0.30498,-19.15778 0.40374,-17.6226 1.12571,17.5 0.43527,21.175 0.46976,64.375 0.0766,96 -0.54234,43.629 -0.83539,52.4341 -1.21477,36.5 l -0.5,-21 -0.73309,36 c -3.37185,165.5835 -19.4352,341.2261 -43.821,479.1552 -23.07045,130.4892 -52.57978,232.4101 -87.97277,303.8448 -16.67198,33.6496 -31.25172,55.5996 -48.47314,72.9772 -14.52721,14.6589 -29.49357,23.9142 -43.63086,26.9818 -4.66202,1.0116 -5.56505,1.4391 -3.36914,1.5951 2.24105,0.1592 1.73508,0.4101 -2,0.9919 -5.88668,0.9169 -9.3731,0.9065 -15.5,-0.046 z m 22.28007,-48.3521 c 10.03362,-3.8194 17.06687,-8.8333 28.21993,-20.1174 11.31326,-11.4462 18.92245,-21.6525 28.22853,-37.8633 C 411.92378,1669.3895 465.93991,1163.6606 433.94996,692 415.25561,416.37003 369.82436,195.27511 310.72853,92.332751 301.42245,76.121968 293.81326,65.91566 282.5,54.469472 271.42731,43.266682 264.43306,38.259456 254.28007,34.266656 248.46031,31.977959 246.01281,31.600304 237,31.600304 c -9.01281,0 -11.46031,0.377655 -17.28007,2.666352 C 209.56694,38.259456 202.57269,43.266682 191.5,54.469472 180.18674,65.91566 172.57755,76.121968 163.27147,92.332751 66.715081,260.52977 12.785377,726.62086 36.553652,1187.5 c 11.276802,218.663 40.398332,415.1713 81.022128,546.7266 31.5803,102.269 67.93046,160.1145 107.6337,171.2817 7.81368,2.1977 20.55126,1.3826 29.07059,-1.8604 z"
       id="path831"
       inkscape:connector-curvature="0" />
    <path
       style="fill:#eeefef"
       d="m 235.8125,1950.3169 c 0.72187,-0.2889 1.58437,-0.2534 1.91667,0.079 0.33229,0.3323 -0.25834,0.5687 -1.3125,0.5253 -1.16495,-0.048 -1.4019,-0.285 -0.60417,-0.6042 z m 7,0 c 0.72187,-0.2889 1.58437,-0.2534 1.91667,0.079 0.33229,0.3323 -0.25834,0.5687 -1.3125,0.5253 -1.16495,-0.048 -1.4019,-0.285 -0.60417,-0.6042 z M 50.078947,1372.4167 c 0.04798,-1.165 0.284941,-1.4019 0.604167,-0.6042 0.288871,0.7219 0.253344,1.5844 -0.07895,1.9167 -0.332292,0.3323 -0.568641,-0.2584 -0.52522,-1.3125 z m 373.000003,0 c 0.048,-1.165 0.28494,-1.4019 0.60416,-0.6042 0.28887,0.7219 0.25335,1.5844 -0.0789,1.9167 -0.33229,0.3323 -0.56864,-0.2584 -0.52522,-1.3125 z m -375.000003,-20 c 0.04798,-1.165 0.284941,-1.4019 0.604167,-0.6042 0.288871,0.7219 0.253344,1.5844 -0.07895,1.9167 -0.332292,0.3323 -0.568641,-0.2584 -0.52522,-1.3125 z m 377.000003,0 c 0.048,-1.165 0.28494,-1.4019 0.60416,-0.6042 0.28887,0.7219 0.25335,1.5844 -0.0789,1.9167 -0.33229,0.3323 -0.56864,-0.2584 -0.52522,-1.3125 z m -379.000003,-21 c 0.04798,-1.165 0.284941,-1.4019 0.604167,-0.6042 0.288871,0.7219 0.253344,1.5844 -0.07895,1.9167 -0.332292,0.3323 -0.568641,-0.2584 -0.52522,-1.3125 z m 381.000003,0 c 0.048,-1.165 0.28494,-1.4019 0.60416,-0.6042 0.28887,0.7219 0.25335,1.5844 -0.0789,1.9167 -0.33229,0.3323 -0.56864,-0.2584 -0.52522,-1.3125 z m -382.000003,-11 c 0.04798,-1.165 0.284941,-1.4019 0.604167,-0.6042 0.288871,0.7219 0.253344,1.5844 -0.07895,1.9167 -0.332292,0.3323 -0.568641,-0.2584 -0.52522,-1.3125 z m 383.000003,0 c 0.048,-1.165 0.28494,-1.4019 0.60416,-0.6042 0.28887,0.7219 0.25335,1.5844 -0.0789,1.9167 -0.33229,0.3323 -0.56864,-0.2584 -0.52522,-1.3125 z m -384.000003,-12 c 0.04798,-1.165 0.284941,-1.4019 0.604167,-0.6042 0.288871,0.7219 0.253344,1.5844 -0.07895,1.9167 -0.332292,0.3323 -0.568641,-0.2584 -0.52522,-1.3125 z m 385.000003,0 c 0.048,-1.165 0.28494,-1.4019 0.60416,-0.6042 0.28887,0.7219 0.25335,1.5844 -0.0789,1.9167 -0.33229,0.3323 -0.56864,-0.2584 -0.52522,-1.3125 z m -386.000003,-12 c 0.04798,-1.165 0.284941,-1.4019 0.604167,-0.6042 0.288871,0.7219 0.253344,1.5844 -0.07895,1.9167 -0.332292,0.3323 -0.568641,-0.2584 -0.52522,-1.3125 z m 387.000003,0 c 0.048,-1.165 0.28494,-1.4019 0.60416,-0.6042 0.28887,0.7219 0.25335,1.5844 -0.0789,1.9167 -0.33229,0.3323 -0.56864,-0.2584 -0.52522,-1.3125 z m -415.000003,-2 c 0.04798,-1.165 0.284941,-1.4019 0.604167,-0.6042 0.288871,0.7219 0.253344,1.5844 -0.07895,1.9167 -0.332292,0.3323 -0.568641,-0.2584 -0.52522,-1.3125 z m 449.000003,0 c 0.048,-1.165 0.28494,-1.4019 0.60416,-0.6042 0.28887,0.7219 0.25335,1.5844 -0.0789,1.9167 -0.33229,0.3323 -0.56864,-0.2584 -0.52522,-1.3125 z m -422.000003,-11 c 0.04798,-1.165 0.284941,-1.4019 0.604167,-0.6042 0.288871,0.7219 0.253344,1.5844 -0.07895,1.9167 -0.332292,0.3323 -0.568641,-0.2584 -0.52522,-1.3125 z m 389.000003,0 c 0.048,-1.165 0.28494,-1.4019 0.60416,-0.6042 0.28887,0.7219 0.25335,1.5844 -0.0789,1.9167 -0.33229,0.3323 -0.56864,-0.2584 -0.52522,-1.3125 z m -417.000003,-1 c 0.04798,-1.165 0.284941,-1.4019 0.604167,-0.6042 0.288871,0.7219 0.253344,1.5844 -0.07895,1.9167 -0.332292,0.3323 -0.568641,-0.2584 -0.52522,-1.3125 z m 451.000003,0 c 0.048,-1.165 0.28494,-1.4019 0.60416,-0.6042 0.28887,0.7219 0.25335,1.5844 -0.0789,1.9167 -0.33229,0.3323 -0.56864,-0.2584 -0.52522,-1.3125 z m -424.000003,-12 c 0.04798,-1.165 0.284941,-1.4019 0.604167,-0.6042 0.288871,0.7219 0.253344,1.5844 -0.07895,1.9167 -0.332292,0.3323 -0.568641,-0.2584 -0.52522,-1.3125 z m 391.000003,0 c 0.048,-1.165 0.28494,-1.4019 0.60416,-0.6042 0.28887,0.7219 0.25335,1.5844 -0.0789,1.9167 -0.33229,0.3323 -0.56864,-0.2584 -0.52522,-1.3125 z M 12.157895,1257 c 0,-1.375 0.226973,-1.9375 0.504386,-1.25 0.277412,0.6875 0.277412,1.8125 0,2.5 -0.277413,0.6875 -0.504386,0.125 -0.504386,-1.25 z m 454.999995,0 c 0,-1.375 0.22698,-1.9375 0.50439,-1.25 0.27741,0.6875 0.27741,1.8125 0,2.5 -0.27741,0.6875 -0.50439,0.125 -0.50439,-1.25 z m -427.078943,-0.5833 c 0.04798,-1.165 0.284941,-1.4019 0.604167,-0.6042 0.288871,0.7219 0.253344,1.5844 -0.07895,1.9167 -0.332292,0.3323 -0.568641,-0.2584 -0.52522,-1.3125 z m 393.000003,0 c 0.048,-1.165 0.28494,-1.4019 0.60416,-0.6042 0.28887,0.7219 0.25335,1.5844 -0.0789,1.9167 -0.33229,0.3323 -0.56864,-0.2584 -0.52522,-1.3125 z M 11.157895,1243 c 0,-1.375 0.226973,-1.9375 0.504386,-1.25 0.277412,0.6875 0.277412,1.8125 0,2.5 -0.277413,0.6875 -0.504386,0.125 -0.504386,-1.25 z m 456.999995,0 c 0,-1.375 0.22698,-1.9375 0.50439,-1.25 0.27741,0.6875 0.27741,1.8125 0,2.5 -0.27741,0.6875 -0.50439,0.125 -0.50439,-1.25 z m -428.999995,-1 c 0,-1.375 0.226973,-1.9375 0.504386,-1.25 0.277412,0.6875 0.277412,1.8125 0,2.5 -0.277413,0.6875 -0.504386,0.125 -0.504386,-1.25 z m 394.999995,0 c 0,-1.375 0.22698,-1.9375 0.50439,-1.25 0.27741,0.6875 0.27741,1.8125 0,2.5 -0.27741,0.6875 -0.50439,0.125 -0.50439,-1.25 z M 10.078947,1228.4167 c 0.04798,-1.165 0.284941,-1.4019 0.604167,-0.6042 0.288871,0.7219 0.253344,1.5844 -0.07895,1.9167 -0.332292,0.3323 -0.568641,-0.2584 -0.52522,-1.3125 z m 459.000003,0 c 0.048,-1.165 0.28494,-1.4019 0.60416,-0.6042 0.28887,0.7219 0.25335,1.5844 -0.0789,1.9167 -0.33229,0.3323 -0.56864,-0.2584 -0.52522,-1.3125 z m -431.000003,-2 c 0.04798,-1.165 0.284941,-1.4019 0.604167,-0.6042 0.288871,0.7219 0.253344,1.5844 -0.07895,1.9167 -0.332292,0.3323 -0.568641,-0.2584 -0.52522,-1.3125 z m 397.000003,0 c 0.048,-1.165 0.28494,-1.4019 0.60416,-0.6042 0.28887,0.7219 0.25335,1.5844 -0.0789,1.9167 -0.33229,0.3323 -0.56864,-0.2584 -0.52522,-1.3125 z m -426.0000026,-14 c 0.047984,-1.165 0.2849403,-1.4019 0.6041666,-0.6042 0.2888706,0.7219 0.2533443,1.5844 -0.078947,1.9167 -0.3322917,0.3323 -0.5686404,-0.2584 -0.5252196,-1.3125 z m 461.0000026,0 c 0.048,-1.165 0.28494,-1.4019 0.60416,-0.6042 0.28887,0.7219 0.25335,1.5844 -0.0789,1.9167 -0.33229,0.3323 -0.56864,-0.2584 -0.52522,-1.3125 z m -433.000003,-3 c 0.04798,-1.165 0.284941,-1.4019 0.604167,-0.6042 0.288871,0.7219 0.253344,1.5844 -0.07895,1.9167 -0.332292,0.3323 -0.568641,-0.2584 -0.52522,-1.3125 z m 399.000003,0 c 0.048,-1.165 0.28494,-1.4019 0.60416,-0.6042 0.28887,0.7219 0.25335,1.5844 -0.0789,1.9167 -0.33229,0.3323 -0.56864,-0.2584 -0.52522,-1.3125 z M 8.1578947,1196 c 0,-1.375 0.2269737,-1.9375 0.504386,-1.25 0.2774123,0.6875 0.2774123,1.8125 0,2.5 -0.2774123,0.6875 -0.504386,0.125 -0.504386,-1.25 z m 462.9999953,0 c 0,-1.375 0.22698,-1.9375 0.50439,-1.25 0.27741,0.6875 0.27741,1.8125 0,2.5 -0.27741,0.6875 -0.50439,0.125 -0.50439,-1.25 z m -435.078943,-4.5833 c 0.04798,-1.165 0.284941,-1.4019 0.604167,-0.6042 0.288871,0.7219 0.253344,1.5844 -0.07895,1.9167 -0.332292,0.3323 -0.568641,-0.2584 -0.52522,-1.3125 z m 401.000003,0 c 0.048,-1.165 0.28494,-1.4019 0.60416,-0.6042 0.28887,0.7219 0.25335,1.5844 -0.0789,1.9167 -0.33229,0.3323 -0.56864,-0.2584 -0.52522,-1.3125 z m -430.0000026,-14 c 0.047984,-1.165 0.2849403,-1.4019 0.6041666,-0.6042 0.2888706,0.7219 0.2533443,1.5844 -0.078947,1.9167 -0.3322917,0.3323 -0.5686404,-0.2584 -0.5252196,-1.3125 z m 465.0000026,0 c 0.048,-1.165 0.28494,-1.4019 0.60416,-0.6042 0.28887,0.7219 0.25335,1.5844 -0.0789,1.9167 -0.33229,0.3323 -0.56864,-0.2584 -0.52522,-1.3125 z M 35.157895,1172 c 0,-1.375 0.226973,-1.9375 0.504386,-1.25 0.277412,0.6875 0.277412,1.8125 0,2.5 -0.277413,0.6875 -0.504386,0.125 -0.504386,-1.25 z m 402.999995,0 c 0,-1.375 0.22698,-1.9375 0.50439,-1.25 0.27741,0.6875 0.27741,1.8125 0,2.5 -0.27741,0.6875 -0.50439,0.125 -0.50439,-1.25 z M 6.1578947,1157 c 0,-1.375 0.2269737,-1.9375 0.504386,-1.25 0.2774123,0.6875 0.2774123,1.8125 0,2.5 -0.2774123,0.6875 -0.504386,0.125 -0.504386,-1.25 z m 466.9999953,0 c 0,-1.375 0.22698,-1.9375 0.50439,-1.25 0.27741,0.6875 0.27741,1.8125 0,2.5 -0.27741,0.6875 -0.50439,0.125 -0.50439,-1.25 z m -438.999995,-7 c 0,-1.375 0.226973,-1.9375 0.504386,-1.25 0.277412,0.6875 0.277412,1.8125 0,2.5 -0.277413,0.6875 -0.504386,0.125 -0.504386,-1.25 z m 404.999995,0 c 0,-1.375 0.22698,-1.9375 0.50439,-1.25 0.27741,0.6875 0.27741,1.8125 0,2.5 -0.27741,0.6875 -0.50439,0.125 -0.50439,-1.25 z M 5.1578947,1134 c 0,-1.375 0.2269737,-1.9375 0.504386,-1.25 0.2774123,0.6875 0.2774123,1.8125 0,2.5 -0.2774123,0.6875 -0.504386,0.125 -0.504386,-1.25 z m 468.9999953,0 c 0,-1.375 0.22698,-1.9375 0.50439,-1.25 0.27741,0.6875 0.27741,1.8125 0,2.5 -0.27741,0.6875 -0.50439,0.125 -0.50439,-1.25 z m -440.962941,-9.5 c 0.02038,-1.65 0.244498,-2.2039 0.498042,-1.231 0.253543,0.973 0.236869,2.323 -0.03705,3 -0.273923,0.6771 -0.481368,-0.119 -0.460988,-1.769 z m 407.000001,0 c 0.0204,-1.65 0.2445,-2.2039 0.49804,-1.231 0.25354,0.973 0.23687,2.323 -0.0371,3 -0.27393,0.6771 -0.48137,-0.119 -0.46099,-1.769 z m -436.0000013,-17 c 0.02038,-1.65 0.2444986,-2.2039 0.498042,-1.231 0.2535434,0.973 0.2368691,2.323 -0.037054,3 -0.2739231,0.6771 -0.4813677,-0.119 -0.460988,-1.769 z m 471.0000013,0 c 0.0204,-1.65 0.2445,-2.2039 0.49804,-1.231 0.25354,0.973 0.23687,2.323 -0.0371,3 -0.27393,0.6771 -0.48137,-0.119 -0.46099,-1.769 z m -443.000001,-14 c 0.02038,-1.65 0.244498,-2.2039 0.498042,-1.231 0.253543,0.973 0.236869,2.323 -0.03705,3 -0.273923,0.6771 -0.481368,-0.119 -0.460988,-1.769 z m 409.000001,0 c 0.0204,-1.65 0.2445,-2.2039 0.49804,-1.231 0.25354,0.973 0.23687,2.323 -0.0371,3 -0.27393,0.6771 -0.48137,-0.119 -0.46099,-1.769 z M 3.2320027,1073 c 0,-1.925 0.2057953,-2.7125 0.4573228,-1.75 0.2515276,0.9625 0.2515276,2.5375 0,3.5 -0.2515275,0.9625 -0.4573228,0.175 -0.4573228,-1.75 z M 476.232,1073 c 0,-1.925 0.2058,-2.7125 0.45733,-1.75 0.25152,0.9625 0.25152,2.5375 0,3.5 -0.25153,0.9625 -0.45733,0.175 -0.45733,-1.75 z M 31.272364,1052 c 0,-2.475 0.195016,-3.4875 0.433369,-2.25 0.238353,1.2375 0.238353,3.2625 0,4.5 -0.238353,1.2375 -0.433369,0.225 -0.433369,-2.25 z m 410.999996,0 c 0,-2.475 0.19502,-3.4875 0.43337,-2.25 0.23836,1.2375 0.23836,3.2625 0,4.5 -0.23835,1.2375 -0.43337,0.225 -0.43337,-2.25 z M 2.3362062,1015 c 0,-4.125 0.176518,-5.8125 0.3922622,-3.75 0.2157442,2.0625 0.2157442,5.4375 0,7.5 -0.2157442,2.0625 -0.3922622,0.375 -0.3922622,-3.75 z m 475.0000038,0 c 0,-4.125 0.17651,-5.8125 0.39226,-3.75 0.21574,2.0625 0.21574,5.4375 0,7.5 -0.21575,2.0625 -0.39226,0.375 -0.39226,-3.75 z M 2.3362062,938 c 0,-4.125 0.176518,-5.8125 0.3922622,-3.75 0.2157442,2.0625 0.2157442,5.4375 0,7.5 -0.2157442,2.0625 -0.3922622,0.375 -0.3922622,-3.75 z m 475.0000038,0 c 0,-4.125 0.17651,-5.8125 0.39226,-3.75 0.21574,2.0625 0.21574,5.4375 0,7.5 -0.21575,2.0625 -0.39226,0.375 -0.39226,-3.75 z M 31.272364,886 c 0,-2.475 0.195016,-3.4875 0.433369,-2.25 0.238353,1.2375 0.238353,3.2625 0,4.5 -0.238353,1.2375 -0.433369,0.225 -0.433369,-2.25 z m 410.999996,0 c 0,-2.475 0.19502,-3.4875 0.43337,-2.25 0.23836,1.2375 0.23836,3.2625 0,4.5 -0.23835,1.2375 -0.43337,0.225 -0.43337,-2.25 z M 3.2320027,880 c 0,-1.925 0.2057953,-2.7125 0.4573228,-1.75 0.2515276,0.9625 0.2515276,2.5375 0,3.5 C 3.437798,882.7125 3.2320027,881.925 3.2320027,880 Z M 476.232,880 c 0,-1.925 0.2058,-2.7125 0.45733,-1.75 0.25152,0.9625 0.25152,2.5375 0,3.5 -0.25153,0.9625 -0.45733,0.175 -0.45733,-1.75 z M 4.1949487,845.5 c 0.02038,-1.65 0.2444986,-2.20394 0.498042,-1.23097 0.2535434,0.97297 0.2368691,2.32297 -0.037054,3 C 4.3820136,847.94606 4.174569,847.15 4.1949487,845.5 Z m 471.0000013,0 c 0.0204,-1.65 0.2445,-2.20394 0.49804,-1.23097 0.25354,0.97297 0.23687,2.32297 -0.0371,3 -0.27393,0.67703 -0.48137,-0.11903 -0.46099,-1.76903 z m -443.000001,-1 c 0.02038,-1.65 0.244498,-2.20394 0.498042,-1.23097 0.253543,0.97297 0.236869,2.32297 -0.03705,3 C 32.382014,846.94606 32.174569,846.15 32.194949,844.5 Z m 409.000001,0 c 0.0204,-1.65 0.2445,-2.20394 0.49804,-1.23097 0.25354,0.97297 0.23687,2.32297 -0.0371,3 -0.27393,0.67703 -0.48137,-0.11903 -0.46099,-1.76903 z M 5.1578947,819 c 0,-1.375 0.2269737,-1.9375 0.504386,-1.25 0.2774123,0.6875 0.2774123,1.8125 0,2.5 -0.2774123,0.6875 -0.504386,0.125 -0.504386,-1.25 z m 468.9999953,0 c 0,-1.375 0.22698,-1.9375 0.50439,-1.25 0.27741,0.6875 0.27741,1.8125 0,2.5 -0.27741,0.6875 -0.50439,0.125 -0.50439,-1.25 z M 33.194949,813.5 c 0.02038,-1.65 0.244498,-2.20394 0.498042,-1.23097 0.253543,0.97297 0.236869,2.32297 -0.03705,3 C 33.382014,815.94606 33.174569,815.15 33.194949,813.5 Z m 407.000001,0 c 0.0204,-1.65 0.2445,-2.20394 0.49804,-1.23097 0.25354,0.97297 0.23687,2.32297 -0.0371,3 -0.27393,0.67703 -0.48137,-0.11903 -0.46099,-1.76903 z M 6.1578947,796 c 0,-1.375 0.2269737,-1.9375 0.504386,-1.25 0.2774123,0.6875 0.2774123,1.8125 0,2.5 -0.2774123,0.6875 -0.504386,0.125 -0.504386,-1.25 z m 466.9999953,0 c 0,-1.375 0.22698,-1.9375 0.50439,-1.25 0.27741,0.6875 0.27741,1.8125 0,2.5 -0.27741,0.6875 -0.50439,0.125 -0.50439,-1.25 z M 34.157895,788 c 0,-1.375 0.226973,-1.9375 0.504386,-1.25 0.277412,0.6875 0.277412,1.8125 0,2.5 -0.277413,0.6875 -0.504386,0.125 -0.504386,-1.25 z m 404.999995,0 c 0,-1.375 0.22698,-1.9375 0.50439,-1.25 0.27741,0.6875 0.27741,1.8125 0,2.5 -0.27741,0.6875 -0.50439,0.125 -0.50439,-1.25 z M 7.0789474,775.41667 c 0.047984,-1.16495 0.2849403,-1.4019 0.6041666,-0.60417 0.2888706,0.72187 0.2533443,1.58438 -0.078947,1.91667 -0.3322917,0.33229 -0.5686404,-0.25834 -0.5252196,-1.3125 z m 465.0000026,0 c 0.048,-1.16495 0.28494,-1.4019 0.60416,-0.60417 0.28887,0.72187 0.25335,1.58438 -0.0789,1.91667 -0.33229,0.33229 -0.56864,-0.25834 -0.52522,-1.3125 z M 35.157895,766 c 0,-1.375 0.226973,-1.9375 0.504386,-1.25 0.277412,0.6875 0.277412,1.8125 0,2.5 -0.277413,0.6875 -0.504386,0.125 -0.504386,-1.25 z m 402.999995,0 c 0,-1.375 0.22698,-1.9375 0.50439,-1.25 0.27741,0.6875 0.27741,1.8125 0,2.5 -0.27741,0.6875 -0.50439,0.125 -0.50439,-1.25 z M 8.1578947,757 c 0,-1.375 0.2269737,-1.9375 0.504386,-1.25 0.2774123,0.6875 0.2774123,1.8125 0,2.5 -0.2774123,0.6875 -0.504386,0.125 -0.504386,-1.25 z m 462.9999953,0 c 0,-1.375 0.22698,-1.9375 0.50439,-1.25 0.27741,0.6875 0.27741,1.8125 0,2.5 -0.27741,0.6875 -0.50439,0.125 -0.50439,-1.25 z M 36.078947,746.41667 c 0.04798,-1.16495 0.284941,-1.4019 0.604167,-0.60417 0.288871,0.72187 0.253344,1.58438 -0.07895,1.91667 -0.332292,0.33229 -0.568641,-0.25834 -0.52522,-1.3125 z m 401.000003,0 c 0.048,-1.16495 0.28494,-1.4019 0.60416,-0.60417 0.28887,0.72187 0.25335,1.58438 -0.0789,1.91667 -0.33229,0.33229 -0.56864,-0.25834 -0.52522,-1.3125 z m -428.0000026,-6 c 0.047984,-1.16495 0.2849403,-1.4019 0.6041666,-0.60417 0.2888706,0.72187 0.2533443,1.58438 -0.078947,1.91667 -0.3322917,0.33229 -0.5686404,-0.25834 -0.5252196,-1.3125 z m 461.0000026,0 c 0.048,-1.16495 0.28494,-1.4019 0.60416,-0.60417 0.28887,0.72187 0.25335,1.58438 -0.0789,1.91667 -0.33229,0.33229 -0.56864,-0.25834 -0.52522,-1.3125 z m -433.000003,-12 c 0.04798,-1.16495 0.284941,-1.4019 0.604167,-0.60417 0.288871,0.72187 0.253344,1.58438 -0.07895,1.91667 -0.332292,0.33229 -0.568641,-0.25834 -0.52522,-1.3125 z m 399.000003,0 c 0.048,-1.16495 0.28494,-1.4019 0.60416,-0.60417 0.28887,0.72187 0.25335,1.58438 -0.0789,1.91667 -0.33229,0.33229 -0.56864,-0.25834 -0.52522,-1.3125 z m -426.000003,-4 c 0.04798,-1.16495 0.284941,-1.4019 0.604167,-0.60417 0.288871,0.72187 0.253344,1.58438 -0.07895,1.91667 -0.332292,0.33229 -0.568641,-0.25834 -0.52522,-1.3125 z m 459.000003,0 c 0.048,-1.16495 0.28494,-1.4019 0.60416,-0.60417 0.28887,0.72187 0.25335,1.58438 -0.0789,1.91667 -0.33229,0.33229 -0.56864,-0.25834 -0.52522,-1.3125 z m -431.000003,-13 c 0.04798,-1.16495 0.284941,-1.4019 0.604167,-0.60417 0.288871,0.72187 0.253344,1.58438 -0.07895,1.91667 -0.332292,0.33229 -0.568641,-0.25834 -0.52522,-1.3125 z m 397.000003,0 c 0.048,-1.16495 0.28494,-1.4019 0.60416,-0.60417 0.28887,0.72187 0.25335,1.58438 -0.0789,1.91667 -0.33229,0.33229 -0.56864,-0.25834 -0.52522,-1.3125 z M 11.157895,710 c 0,-1.375 0.226973,-1.9375 0.504386,-1.25 0.277412,0.6875 0.277412,1.8125 0,2.5 -0.277413,0.6875 -0.504386,0.125 -0.504386,-1.25 z m 456.999995,0 c 0,-1.375 0.22698,-1.9375 0.50439,-1.25 0.27741,0.6875 0.27741,1.8125 0,2.5 -0.27741,0.6875 -0.50439,0.125 -0.50439,-1.25 z M 12.157895,696 c 0,-1.375 0.226973,-1.9375 0.504386,-1.25 0.277412,0.6875 0.277412,1.8125 0,2.5 -0.277413,0.6875 -0.504386,0.125 -0.504386,-1.25 z m 27,0 c 0,-1.375 0.226973,-1.9375 0.504386,-1.25 0.277412,0.6875 0.277412,1.8125 0,2.5 -0.277413,0.6875 -0.504386,0.125 -0.504386,-1.25 z m 394.999995,0 c 0,-1.375 0.22698,-1.9375 0.50439,-1.25 0.27741,0.6875 0.27741,1.8125 0,2.5 -0.27741,0.6875 -0.50439,0.125 -0.50439,-1.25 z m 33,0 c 0,-1.375 0.22698,-1.9375 0.50439,-1.25 0.27741,0.6875 0.27741,1.8125 0,2.5 -0.27741,0.6875 -0.50439,0.125 -0.50439,-1.25 z M 40.078947,681.41667 c 0.04798,-1.16495 0.284941,-1.4019 0.604167,-0.60417 0.288871,0.72187 0.253344,1.58438 -0.07895,1.91667 -0.332292,0.33229 -0.568641,-0.25834 -0.52522,-1.3125 z m 393.000003,0 c 0.048,-1.16495 0.28494,-1.4019 0.60416,-0.60417 0.28887,0.72187 0.25335,1.58438 -0.0789,1.91667 -0.33229,0.33229 -0.56864,-0.25834 -0.52522,-1.3125 z m -419.000003,-11 c 0.04798,-1.16495 0.284941,-1.4019 0.604167,-0.60417 0.288871,0.72187 0.253344,1.58438 -0.07895,1.91667 -0.332292,0.33229 -0.568641,-0.25834 -0.52522,-1.3125 z m 451.000003,0 c 0.048,-1.16495 0.28494,-1.4019 0.60416,-0.60417 0.28887,0.72187 0.25335,1.58438 -0.0789,1.91667 -0.33229,0.33229 -0.56864,-0.25834 -0.52522,-1.3125 z m -424.000003,-3 c 0.04798,-1.16495 0.284941,-1.4019 0.604167,-0.60417 0.288871,0.72187 0.253344,1.58438 -0.07895,1.91667 -0.332292,0.33229 -0.568641,-0.25834 -0.52522,-1.3125 z m 391.000003,0 c 0.048,-1.16495 0.28494,-1.4019 0.60416,-0.60417 0.28887,0.72187 0.25335,1.58438 -0.0789,1.91667 -0.33229,0.33229 -0.56864,-0.25834 -0.52522,-1.3125 z m -417.000003,-9 c 0.04798,-1.16495 0.284941,-1.4019 0.604167,-0.60417 0.288871,0.72187 0.253344,1.58438 -0.07895,1.91667 -0.332292,0.33229 -0.568641,-0.25834 -0.52522,-1.3125 z m 449.000003,0 c 0.048,-1.16495 0.28494,-1.4019 0.60416,-0.60417 0.28887,0.72187 0.25335,1.58438 -0.0789,1.91667 -0.33229,0.33229 -0.56864,-0.25834 -0.52522,-1.3125 z m -422.000003,-4 c 0.04798,-1.16495 0.284941,-1.4019 0.604167,-0.60417 0.288871,0.72187 0.253344,1.58438 -0.07895,1.91667 -0.332292,0.33229 -0.568641,-0.25834 -0.52522,-1.3125 z m 389.000003,0 c 0.048,-1.16495 0.28494,-1.4019 0.60416,-0.60417 0.28887,0.72187 0.25335,1.58438 -0.0789,1.91667 -0.33229,0.33229 -0.56864,-0.25834 -0.52522,-1.3125 z m -388.000003,-13 c 0.04798,-1.16495 0.284941,-1.4019 0.604167,-0.60417 0.288871,0.72187 0.253344,1.58438 -0.07895,1.91667 -0.332292,0.33229 -0.568641,-0.25834 -0.52522,-1.3125 z m 387.000003,0 c 0.048,-1.16495 0.28494,-1.4019 0.60416,-0.60417 0.28887,0.72187 0.25335,1.58438 -0.0789,1.91667 -0.33229,0.33229 -0.56864,-0.25834 -0.52522,-1.3125 z m -386.000003,-12 c 0.04798,-1.16495 0.284941,-1.4019 0.604167,-0.60417 0.288871,0.72187 0.253344,1.58438 -0.07895,1.91667 -0.332292,0.33229 -0.568641,-0.25834 -0.52522,-1.3125 z m 385.000003,0 c 0.048,-1.16495 0.28494,-1.4019 0.60416,-0.60417 0.28887,0.72187 0.25335,1.58438 -0.0789,1.91667 -0.33229,0.33229 -0.56864,-0.25834 -0.52522,-1.3125 z m -384.000003,-12 c 0.04798,-1.16495 0.284941,-1.4019 0.604167,-0.60417 0.288871,0.72187 0.253344,1.58438 -0.07895,1.91667 -0.332292,0.33229 -0.568641,-0.25834 -0.52522,-1.3125 z m 383.000003,0 c 0.048,-1.16495 0.28494,-1.4019 0.60416,-0.60417 0.28887,0.72187 0.25335,1.58438 -0.0789,1.91667 -0.33229,0.33229 -0.56864,-0.25834 -0.52522,-1.3125 z m -382.000003,-11 c 0.04798,-1.16495 0.284941,-1.4019 0.604167,-0.60417 0.288871,0.72187 0.253344,1.58438 -0.07895,1.91667 -0.332292,0.33229 -0.568641,-0.25834 -0.52522,-1.3125 z m 381.000003,0 c 0.048,-1.16495 0.28494,-1.4019 0.60416,-0.60417 0.28887,0.72187 0.25335,1.58438 -0.0789,1.91667 -0.33229,0.33229 -0.56864,-0.25834 -0.52522,-1.3125 z m -379.000003,-21 c 0.04798,-1.16495 0.284941,-1.4019 0.604167,-0.60417 0.288871,0.72187 0.253344,1.58438 -0.07895,1.91667 -0.332292,0.33229 -0.568641,-0.25834 -0.52522,-1.3125 z m 377.000003,0 c 0.048,-1.16495 0.28494,-1.4019 0.60416,-0.60417 0.28887,0.72187 0.25335,1.58438 -0.0789,1.91667 -0.33229,0.33229 -0.56864,-0.25834 -0.52522,-1.3125 z m -375.000003,-20 c 0.04798,-1.16495 0.284941,-1.4019 0.604167,-0.60417 0.288871,0.72187 0.253344,1.58438 -0.07895,1.91667 -0.332292,0.33229 -0.568641,-0.25834 -0.52522,-1.3125 z m 373.000003,0 c 0.048,-1.16495 0.28494,-1.4019 0.60416,-0.60417 0.28887,0.72187 0.25335,1.58438 -0.0789,1.91667 -0.33229,0.33229 -0.56864,-0.25834 -0.52522,-1.3125 z M 235.8125,2.316886 c 0.72187,-0.2888706 1.58437,-0.2533443 1.91667,0.078947 0.33229,0.3322917 -0.25834,0.5686404 -1.3125,0.5252193 -1.16495,-0.047984 -1.4019,-0.2849403 -0.60417,-0.6041663 z m 7,0 c 0.72187,-0.2888706 1.58437,-0.2533443 1.91667,0.078947 0.33229,0.3322917 -0.25834,0.5686404 -1.3125,0.5252193 -1.16495,-0.047984 -1.4019,-0.2849403 -0.60417,-0.6041663 z"
       id="path829"
       inkscape:connector-curvature="0" />
  </g>
  <path
     style="fill:#000000"
     d=""
     id="path825"
     inkscape:connector-curvature="0" />
</svg>
