<?xml version="1.0" encoding="UTF-8" standalone="no"?>
<svg
   xmlns:dc="http://purl.org/dc/elements/1.1/"
   xmlns:cc="http://creativecommons.org/ns#"
   xmlns:rdf="http://www.w3.org/1999/02/22-rdf-syntax-ns#"
   xmlns:svg="http://www.w3.org/2000/svg"
   xmlns="http://www.w3.org/2000/svg"
   xmlns:sodipodi="http://sodipodi.sourceforge.net/DTD/sodipodi-0.dtd"
   xmlns:inkscape="http://www.inkscape.org/namespaces/inkscape"
   inkscape:export-ydpi="79.781677"
   inkscape:export-xdpi="79.781677"
   inkscape:export-filename="\\wsl$\Debian\home\christian7573\glap\glap-rs-client\assets\Cargo.png"
   inkscape:version="1.0.1 (3bc2e813f5, 2020-09-07)"
   sodipodi:docname="battery.svg"
   viewBox="0 0 180.70096 174.47614"
   height="174.47615"
   width="180.70096"
   id="svg917"
   version="1.1">
  <metadata
     id="metadata923">
    <rdf:RDF>
      <cc:Work
         rdf:about="">
        <dc:format>image/svg+xml</dc:format>
        <dc:type
           rdf:resource="http://purl.org/dc/dcmitype/StillImage" />
        <dc:title />
      </cc:Work>
    </rdf:RDF>
  </metadata>
  <defs
     id="defs921">
    <clipPath
       id="clipPath967"
       clipPathUnits="userSpaceOnUse">
      <rect
         style="display:inline;fill:#383536;fill-opacity:1;stroke:none;stroke-width:11.9622;stop-color:#000000"
         id="rect969"
         width="32.615299"
         height="7.6897864"
         x="23.953241"
         y="11.402097" />
    </clipPath>
    <clipPath
       id="clipPath949"
       clipPathUnits="userSpaceOnUse">
      <path
         id="path952"
         style="fill:#7f3300;fill-opacity:1;stroke-width:11.9622;stop-color:#000000"
         d="m -146.78411,-79.844001 h 91.965892 c 12.487526,0 22.540661,10.05314 22.540661,22.54066 v 41.444859 c 0,12.487526 -10.053135,22.540661 -22.540661,22.540661 h -91.965892 c -12.48752,0 -22.54066,-10.053135 -22.54066,-22.540661 v -41.444859 c 0,-12.48752 10.05314,-22.54066 22.54066,-22.54066 z"
         sodipodi:nodetypes="sssssssss" />
    </clipPath>
  </defs>
  <sodipodi:namedview
     fit-margin-bottom="0"
     fit-margin-right="0"
     fit-margin-left="0"
     fit-margin-top="0"
     inkscape:current-layer="g925"
     inkscape:window-maximized="0"
     inkscape:window-y="0"
     inkscape:window-x="0"
     inkscape:cy="88.203169"
     inkscape:cx="-5.1704983"
     inkscape:zoom="2.609375"
     inkscape:document-rotation="0"
     showgrid="false"
     id="namedview919"
     inkscape:window-height="864"
     inkscape:window-width="1536"
     inkscape:pageshadow="2"
     inkscape:pageopacity="0"
     guidetolerance="10"
     gridtolerance="10"
     objecttolerance="10"
     borderopacity="1"
     bordercolor="#666666"
     pagecolor="#ffffff" />
  <g
     transform="translate(-10.450684,49.211719)"
     id="g925"
     inkscape:label="Image"
     inkscape:groupmode="layer">
    <rect
       transform="scale(-1)"
       y="-125.26442"
       x="-149.53667"
       height="18.984169"
       width="97.471001"
       id="rect944"
       style="display:inline;fill:#383536;fill-opacity:1;stroke:none;stroke-width:11.9622;stop-color:#000000" />
    <path
       d="M 168.95865,54.508454 V -0.02452954 -1.8970317 h -0.0532 a 68.166038,49.186537 0 0 0 -68.113,-47.3146873 68.166038,49.186537 0 0 0 -68.118972,47.3146873 h -0.04727 V -0.02452954 54.508454 Z"
       style="display:inline;fill:#333333;fill-opacity:1;stroke:none;stroke-width:11.9622;stop-color:#000000"
       id="path937" />
    <path
       sodipodi:nodetypes="sssssssss"
       d="m -146.78411,-107.43681 h 91.965892 c 12.487526,0 22.540661,10.053131 22.540661,22.540658 v 41.444856 c 0,12.487526 -10.053135,22.540661 -22.540661,22.540661 h -91.965892 c -12.48752,0 -22.54066,-10.053135 -22.54066,-22.540661 v -41.444856 c 0,-12.487527 10.05314,-22.540658 22.54066,-22.540658 z"
       transform="scale(-1)"
       style="fill:#6e6a6a;fill-opacity:1;stroke-width:11.9622;stop-color:#000000"
       id="rect929" />
    <g
       style="stroke-width:0.334616"
       transform="matrix(-2.9885053,0,0,-2.9885053,221.12105,159.33966)"
       clip-path="url(#clipPath967)"
       id="g965">
      <path
         id="rect946"
         style="fill:#fefe00;fill-opacity:1;stroke:none;stroke-width:4.84908;stop-color:#000000"
         transform="matrix(1,0,-0.73192108,0.68138941,0,0)"
         d="m 47.59668,15.695857 h 6.517856 v 10.11799 H 47.59668 Z"
         sodipodi:nodetypes="ccccc" />
      <path
         sodipodi:nodetypes="ccccc"
         d="m 48.217755,10.694991 h 6.517856 l -7.40557,6.894291 h -6.517856 z"
         style="fill:#fefe00;fill-opacity:1;stroke:none;stroke-width:4.00274;stop-color:#000000"
         id="path949" />
      <path
         id="path951"
         style="fill:#fefe00;fill-opacity:1;stroke:none;stroke-width:4.00274;stop-color:#000000"
         d="m 60.23857,10.694991 h 6.517856 l -7.40557,6.894291 H 52.833 Z"
         sodipodi:nodetypes="ccccc" />
      <path
         sodipodi:nodetypes="ccccc"
         d="m 24.529677,10.694991 h 6.517856 l -7.40557,6.894291 h -6.517856 z"
         style="fill:#fefe00;fill-opacity:1;stroke:none;stroke-width:4.00274;stop-color:#000000"
         id="path953" />
    </g>
    <g
       transform="translate(0.38323353,-27.736355)"
       id="g912"
       style="fill:#333333;fill-opacity:1">
      <rect
         style="font-variation-settings:normal;opacity:1;vector-effect:none;fill:#333333;fill-opacity:1;stroke:none;stroke-width:5;stroke-linecap:butt;stroke-linejoin:miter;stroke-miterlimit:4;stroke-dasharray:none;stroke-dashoffset:0;stroke-opacity:1;stop-color:#000000;stop-opacity:1"
         id="rect886"
         width="5.4197397"
         height="26.014753"
         x="58.686375"
         y="68.938629" />
      <rect
         y="-74.403618"
         x="79.236137"
         height="26.014753"
         width="5.4197397"
         id="rect888"
         style="fill:#333333;fill-opacity:1;stroke:none;stroke-width:5;stop-color:#000000"
         transform="rotate(90)" />
    </g>
    <rect
       transform="rotate(90)"
       style="fill:#6e6a6a;fill-opacity:1;stroke:none;stroke-width:5;stop-color:#000000"
       id="rect888-8"
       width="5.4197397"
       height="19.499783"
       x="-6.5651913"
       y="-71.529366" />
    <path
       clip-path="url(#clipPath949)"
       id="path945"
       style="fill:none;fill-opacity:1;stroke:#1a1a1a;stroke-width:2;stroke-miterlimit:4;stroke-dasharray:none;stop-color:#000000"
       transform="scale(-1)"
       d="m -146.78411,-107.43681 h 91.965892 c 12.487526,0 22.540661,10.053131 22.540661,22.540658 v 41.444856 c 0,12.487526 -10.053135,22.540661 -22.540661,22.540661 h -91.965892 c -12.48752,0 -22.54066,-10.053135 -22.54066,-22.540661 v -41.444856 c 0,-12.487527 10.05314,-22.540658 22.54066,-22.540658 z"
       sodipodi:nodetypes="sssssssss" />
    <path
       id="path943"
       d="M 96.637852,-20.164593 H 115.9656 l -13.14287,33.780457 h 19.24184 L 91.913286,59.798389 100.46045,27.405576 H 79.199924 Z"
       style="fill:#ffffff;stroke:none;stroke-width:1px;stroke-linecap:butt;stroke-linejoin:miter;stroke-opacity:1" />
  </g>
</svg>
