<?xml version="1.0" encoding="UTF-8" standalone="no"?>
<svg
   xmlns:dc="http://purl.org/dc/elements/1.1/"
   xmlns:cc="http://creativecommons.org/ns#"
   xmlns:rdf="http://www.w3.org/1999/02/22-rdf-syntax-ns#"
   xmlns:svg="http://www.w3.org/2000/svg"
   xmlns="http://www.w3.org/2000/svg"
   xmlns:sodipodi="http://sodipodi.sourceforge.net/DTD/sodipodi-0.dtd"
   xmlns:inkscape="http://www.inkscape.org/namespaces/inkscape"
   inkscape:export-ydpi="173.90114"
   inkscape:export-xdpi="173.90114"
   inkscape:export-filename="\\wsl$\Debian\home\christian7573\glap\glap-rs-client\assets\mars.png"
   inkscape:version="1.0 (4035a4fb49, 2020-05-01)"
   sodipodi:docname="mars.svg"
   viewBox="0 0 552.03778 552.03778"
   height="552.03778"
   width="552.03778"
   id="svg951"
   version="1.1">
  <metadata
     id="metadata957">
    <rdf:RDF>
      <cc:Work
         rdf:about="">
        <dc:format>image/svg+xml</dc:format>
        <dc:type
           rdf:resource="http://purl.org/dc/dcmitype/StillImage" />
        <dc:title></dc:title>
      </cc:Work>
    </rdf:RDF>
  </metadata>
  <defs
     id="defs955">
    <clipPath
       clipPathUnits="userSpaceOnUse"
       id="clipPath836">
      <circle
         style="display:inline;fill:#427128;fill-opacity:1;stroke:#000000;stroke-width:3.45;stroke-miterlimit:4;stroke-dasharray:none;stop-color:#000000"
         id="circle838"
         cx="282"
         cy="282"
         r="276.01889"
         inkscape:label="Land" />
    </clipPath>
  </defs>
  <sodipodi:namedview
     inkscape:document-rotation="0"
     inkscape:current-layer="g959"
     inkscape:window-maximized="1"
     inkscape:window-y="42"
     inkscape:window-x="-8"
     inkscape:cy="338.47307"
     inkscape:cx="433.94162"
     inkscape:zoom="1.1578014"
     inkscape:snap-global="false"
     showgrid="false"
     id="namedview953"
     inkscape:window-height="1002"
     inkscape:window-width="1920"
     inkscape:pageshadow="2"
     inkscape:pageopacity="0"
     guidetolerance="10"
     gridtolerance="10"
     objecttolerance="10"
     borderopacity="1"
     bordercolor="#666666"
     pagecolor="#ffffff"
     fit-margin-top="0"
     fit-margin-left="0"
     fit-margin-right="0"
     fit-margin-bottom="0" />
  <g
     id="g959"
     inkscape:label="Image"
     inkscape:groupmode="layer"
     transform="translate(-5.9811091,-5.9811091)">
    <circle
       r="276.01889"
       inkscape:label="Land"
       cy="282"
       cx="282"
       id="path1019"
       style="display:inline;fill:#e14100;fill-opacity:1;stroke:none;stroke-width:3.45;stroke-miterlimit:4;stroke-dasharray:none;stop-color:#000000" />
    <path
       transform="rotate(53.223239,282,282)"
       inkscape:label="Ocean"
       sodipodi:nodetypes="cccccccccccccscsccccccc"
       id="path965"
       d="M 358.70324,16.964436 C 251.88525,-212.69814 -0.17470448,67.419352 31.957121,170.15008 c 24.016169,-1.45214 38.615338,-25.46752 54.413476,-49.23124 18.347443,-21.600136 39.794713,-20.39065 54.413473,-6.04595 23.35348,22.62601 26.21672,58.91219 29.36601,95.00766 1.32359,11.93841 35.6016,-8.89506 55.27718,-16.41041 23.14013,-7.5291 46.73111,10.6741 50.95865,24.18377 12.37166,36.41385 0.15226,55.40902 -14.683,72.5513 -18.11741,16.9975 -37.80757,27.72801 -51.82236,34.54824 -22.33513,10.9827 -49.65134,20.22202 -50.09495,38.86676 -4.05567,18.76022 34.92553,48.3805 39.73048,58.73201 7.13276,21.08968 -21.22306,88.16806 -50.97701,101.7203 53.45385,151.80552 252.26589,29.0503 342.18634,-59.81179 -30.61096,-40.76406 -68.35822,43.57789 -100.31409,47.58018 -29.65653,3.71431 -50.70412,-19.79132 -54.4754,-42.46724 -2.95746,-33.17904 30.63643,-59.31478 52.73611,-87.6122 17.73102,-22.70359 50.24913,-44.15525 48.36319,-56.14432 2.39014,-11.87329 -23.72006,-46.14622 -24.18377,-69.96018 -0.37745,-16.76493 -2.46083,-34.0189 19.00154,-53.54977 9.89806,-8.04181 29.07512,-4.61836 44.91271,-1.72741 25.443,4.58717 54.0468,-1.23412 65.85122,-9.50077 10.29985,-34.1401 27.15935,-103.722261 -48.904,-86.30538 C 662.6515,-73.602313 405.69432,-43.706133 358.70324,16.964436 Z"
       style="display:inline;fill:#f75715;fill-opacity:1;stroke:#000000;stroke-width:0;stroke-linecap:butt;stroke-linejoin:miter;stroke-miterlimit:4;stroke-dasharray:none;stroke-opacity:1"
       clip-path="url(#clipPath836)" />
    <circle
       style="display:inline;fill:none;fill-opacity:1;stroke:#000000;stroke-width:0;stroke-miterlimit:4;stroke-dasharray:none;stop-color:#000000"
       id="circle840"
       cx="282"
       cy="282"
       r="276.01889"
       inkscape:label="Outline" />
  </g>
</svg>
