<?xml version="1.0" encoding="UTF-8" standalone="no"?>
<svg
   xmlns:dc="http://purl.org/dc/elements/1.1/"
   xmlns:cc="http://creativecommons.org/ns#"
   xmlns:rdf="http://www.w3.org/1999/02/22-rdf-syntax-ns#"
   xmlns:svg="http://www.w3.org/2000/svg"
   xmlns="http://www.w3.org/2000/svg"
   xmlns:xlink="http://www.w3.org/1999/xlink"
   xmlns:sodipodi="http://sodipodi.sourceforge.net/DTD/sodipodi-0.dtd"
   xmlns:inkscape="http://www.inkscape.org/namespaces/inkscape"
   width="1000"
   height="1000"
   viewBox="0 0 264.58333 264.58334"
   version="1.1"
   id="svg8"
   inkscape:version="1.0.1 (3bc2e813f5, 2020-09-07)"
   sodipodi:docname="neptune.svg"
   inkscape:export-filename="/home/christian7573/Documents/glap/glap-rs-client/assets_io/neptune.png"
   inkscape:export-xdpi="96"
   inkscape:export-ydpi="96">
  <defs
     id="defs2">
    <clipPath
       clipPathUnits="userSpaceOnUse"
       id="clipPath915">
      <circle
         style="display:inline;fill:#7ec5d9;fill-opacity:1;stroke-width:0.686382;stop-color:#000000"
         id="circle917"
         cx="132.29167"
         cy="132.29167"
         r="132.29167" />
    </clipPath>
  </defs>
  <sodipodi:namedview
     id="base"
     pagecolor="#ffffff"
     bordercolor="#666666"
     borderopacity="1.0"
     inkscape:pageopacity="0.0"
     inkscape:pageshadow="2"
     inkscape:zoom="0.49497475"
     inkscape:cx="409.51269"
     inkscape:cy="575.15781"
     inkscape:document-units="px"
     inkscape:current-layer="layer1"
     inkscape:document-rotation="0"
     showgrid="false"
     units="px"
     inkscape:window-width="1669"
     inkscape:window-height="864"
     inkscape:window-x="0"
     inkscape:window-y="0"
     inkscape:window-maximized="1" />
  <metadata
     id="metadata5">
    <rdf:RDF>
      <cc:Work
         rdf:about="">
        <dc:format>image/svg+xml</dc:format>
        <dc:type
           rdf:resource="http://purl.org/dc/dcmitype/StillImage" />
        <dc:title></dc:title>
      </cc:Work>
    </rdf:RDF>
  </metadata>
  <g
     inkscape:label="Layer 1"
     inkscape:groupmode="layer"
     id="layer1">
    <image
       sodipodi:absref="/home/christian7573/Documents/archive/glap-old/glap-io-client/static/Neptune_Transparent.png"
       xlink:href="../../../archive/glap-old/glap-io-client/static/Neptune_Transparent.png"
       y="-2.4757587e-14"
       x="0"
       id="image893"
       style="display:none;fill:#3c718d;fill-opacity:1;stroke-width:0.574999;image-rendering:optimizeQuality"
       preserveAspectRatio="none"
       height="264.58334"
       width="264.58334" />
    <circle
       style="display:inline;fill:#7ec5d9;fill-opacity:1;stroke-width:0.686382;stop-color:#000000"
       id="path897"
       cx="132.29167"
       cy="132.29167"
       r="132.29167" />
    <g
       id="g913"
       clip-path="url(#clipPath915)">
      <path
         style="fill:#3c718d;fill-opacity:1;stroke:none;stroke-width:0.264583px;stroke-linecap:butt;stroke-linejoin:miter;stroke-opacity:1"
         d="m 1.8708867,113.05501 c 17.9287853,19.2119 100.1176733,26.34619 128.2771233,39.32804 22.73326,10.48032 54.36842,23.6858 101.3074,71.05427 l 15.7689,2.13816 -62.2738,51.31574 3.74177,-22.18336 C 136.62708,204.69625 61.627507,151.90934 1.8708867,155.01633 l -3.2072343,9.6217 -5.8799296,-60.67019 z"
         id="path899"
         sodipodi:nodetypes="cscccccccc" />
      <path
         style="fill:#2b5972;fill-opacity:1;stroke:none;stroke-width:0.264583px;stroke-linecap:butt;stroke-linejoin:miter;stroke-opacity:1"
         d="M 24.321527,87.397134 C 25.734132,74.422594 41.885631,69.369228 61.739261,76.171816 82.638602,84.573525 96.565908,96.998652 94.88068,106.106 95.256981,115.01188 69.584242,117.69445 52.117558,117.06405 38.265086,116.28402 21.935991,99.102503 24.321527,87.397134 Z"
         id="path901"
         sodipodi:nodetypes="ccccc" />
      <path
         style="fill:#3c718d;fill-opacity:1;stroke:none;stroke-width:0.264583px;stroke-linecap:butt;stroke-linejoin:miter;stroke-opacity:1"
         d="m 32.606882,44.901281 c 28.512096,11.282848 48.867142,5.046189 115.537928,50.529427 40.07238,27.337632 83.92871,70.960972 104.15762,97.270622 l -0.80181,13.36347 19.2434,-29.93418 -12.02712,2.93996 C 209.27911,81.491926 95.07204,34.567042 48.375784,29.666917 l 1.069078,-13.363476 -35.814116,16.036172 8.285355,14.967093 z"
         id="path903"
         sodipodi:nodetypes="csccccccccc" />
      <path
         style="fill:#3c718d;fill-opacity:1;stroke:none;stroke-width:0.264583px;stroke-linecap:butt;stroke-linejoin:miter;stroke-opacity:1"
         d="M 65.213764,17.372519 C 211.00914,65.761416 234.48638,117.81644 262.45867,164.10349 l 1.33635,9.35443 24.32152,-58.53203 -23.25243,6.94901 C 227.03522,69.107005 198.89188,21.590147 132.56568,-0.26726951 L 137.10927,-9.0871639 51.04848,3.4745038 64.144686,17.639789 Z"
         id="path905"
         sodipodi:nodetypes="cccccccccc" />
    </g>
  </g>
</svg>
