<?xml version="1.0" encoding="UTF-8" standalone="no"?>
<svg
   xmlns:dc="http://purl.org/dc/elements/1.1/"
   xmlns:cc="http://creativecommons.org/ns#"
   xmlns:rdf="http://www.w3.org/1999/02/22-rdf-syntax-ns#"
   xmlns:svg="http://www.w3.org/2000/svg"
   xmlns="http://www.w3.org/2000/svg"
   xmlns:sodipodi="http://sodipodi.sourceforge.net/DTD/sodipodi-0.dtd"
   xmlns:inkscape="http://www.inkscape.org/namespaces/inkscape"
   version="1.1"
   id="svg951"
   width="552.03778"
   height="552.03778"
   viewBox="0 0 552.03778 552.03778"
   sodipodi:docname="earth.svg"
   inkscape:version="1.0 (4035a4fb49, 2020-05-01)"
   inkscape:export-filename="\\wsl$\Debian\home\christian7573\glap\glap-rs-client\assets\earth.png"
   inkscape:export-xdpi="173.90114"
   inkscape:export-ydpi="173.90114">
  <metadata
     id="metadata957">
    <rdf:RDF>
      <cc:Work
         rdf:about="">
        <dc:format>image/svg+xml</dc:format>
        <dc:type
           rdf:resource="http://purl.org/dc/dcmitype/StillImage" />
        <dc:title></dc:title>
      </cc:Work>
    </rdf:RDF>
  </metadata>
  <defs
     id="defs955">
    <clipPath
       id="clipPath836"
       clipPathUnits="userSpaceOnUse">
      <circle
         inkscape:label="Land"
         r="276.01889"
         cy="282"
         cx="282"
         id="circle838"
         style="display:inline;fill:#427128;fill-opacity:1;stroke:#000000;stroke-width:3.45;stroke-miterlimit:4;stroke-dasharray:none;stop-color:#000000" />
    </clipPath>
  </defs>
  <sodipodi:namedview
     fit-margin-bottom="0"
     fit-margin-right="0"
     fit-margin-left="0"
     fit-margin-top="0"
     pagecolor="#ffffff"
     bordercolor="#666666"
     borderopacity="1"
     objecttolerance="10"
     gridtolerance="10"
     guidetolerance="10"
     inkscape:pageopacity="0"
     inkscape:pageshadow="2"
     inkscape:window-width="1707"
     inkscape:window-height="918"
     id="namedview953"
     showgrid="false"
     inkscape:snap-global="false"
     inkscape:zoom="0.81868925"
     inkscape:cx="314.61502"
     inkscape:cy="368.25402"
     inkscape:window-x="0"
     inkscape:window-y="0"
     inkscape:window-maximized="0"
     inkscape:current-layer="g959"
     inkscape:document-rotation="0" />
  <g
     transform="translate(-5.9811091,-5.9811091)"
     inkscape:groupmode="layer"
     inkscape:label="Image"
     id="g959">
    <circle
       style="display:inline;fill:#427128;fill-opacity:1;stroke:none;stroke-width:3.45;stroke-miterlimit:4;stroke-dasharray:none;stop-color:#000000"
       id="path1019"
       cx="282"
       cy="282"
       r="276.01889"
       inkscape:label="Land" />
    <path
       clip-path="url(#clipPath836)"
       style="display:inline;fill:#64c6f2;fill-opacity:1;stroke:#000000;stroke-width:0;stroke-linecap:butt;stroke-linejoin:miter;stroke-miterlimit:4;stroke-dasharray:none;stroke-opacity:1"
       d="M 358.70324,16.964436 C 251.88525,-212.69814 -0.17470448,67.419352 31.957121,170.15008 c 24.016169,-1.45214 38.615338,-25.46752 54.413476,-49.23124 18.347443,-21.600136 39.794713,-20.39065 54.413473,-6.04595 23.35348,22.62601 26.21672,58.91219 29.36601,95.00766 1.32359,11.93841 35.6016,-8.89506 55.27718,-16.41041 23.14013,-7.5291 46.73111,10.6741 50.95865,24.18377 12.37166,36.41385 0.15226,55.40902 -14.683,72.5513 -18.11741,16.9975 -37.80757,27.72801 -51.82236,34.54824 -22.33513,10.9827 -49.65134,20.22202 -50.09495,38.86676 -4.05567,18.76022 34.92553,48.3805 39.73048,58.73201 7.13276,21.08968 -21.22306,88.16806 -50.97701,101.7203 53.45385,151.80552 138.72701,105.93205 228.64746,17.06996 -32.29911,-36.54924 -30.91418,-45.17408 -31.70414,-60.05825 2.8941,-40.24252 21.08996,-71.02534 43.18964,-99.32276 17.73102,-22.70359 50.24913,-44.15525 48.36319,-56.14432 2.39014,-11.87329 -23.72006,-46.14622 -24.18377,-69.96018 -0.37745,-16.76493 -2.46083,-34.0189 19.00154,-53.54977 9.89806,-8.04181 29.07512,-4.61836 44.91271,-1.72741 25.443,4.58717 54.0468,-1.23412 65.85122,-9.50077 10.29985,-34.1401 27.15935,-103.722261 -48.904,-86.30538 -27.70238,1.84271 -47.84872,27.16702 -65.31476,51.75714 -18.4411,29.39392 -39.51517,31.35999 -55.27718,30.22971 -28.56317,-8.46674 -36.08694,-23.12154 -45.77642,-37.13936 -11.61135,-21.01684 -12.85361,-42.03369 -6.04594,-63.050533 9.14894,-20.745184 14.23385,-41.110756 37.40462,-69.406161 z"
       id="path965"
       sodipodi:nodetypes="ccccccccccccccsccccccccccc"
       inkscape:label="Ocean" />
    <circle
       inkscape:label="Outline"
       r="276.01889"
       cy="282"
       cx="282"
       id="circle840"
       style="display:inline;fill:none;fill-opacity:1;stroke:#000000;stroke-width:0;stroke-miterlimit:4;stroke-dasharray:none;stop-color:#000000" />
  </g>
</svg>
